<?xml version="1.0" encoding="utf-8"?>
<!-- Generator: Adobe Illustrator 21.0.2, SVG Export Plug-In . SVG Version: 6.00 Build 0)  -->
<svg version="1.1" xmlns="http://www.w3.org/2000/svg" xmlns:xlink="http://www.w3.org/1999/xlink" x="0px" y="0px"
	 viewBox="0 0 319.4 197.4" style="enable-background:new 0 0 319.4 197.4;" xml:space="preserve">
<style type="text/css">
	.st0{fill:#F2EBB3;}
	.st1{fill:#E0BB0B;}
	.st2{fill:#212121;}
	.st3{fill:#FFFFFF;}
	.st4{fill:#DD890E;stroke:#212121;stroke-width:2;stroke-linecap:round;stroke-linejoin:round;stroke-miterlimit:10;}
	.st5{fill:#648038;}
	.st6{fill:#DD890E;}
	.st7{fill:#231F20;}
</style>
<g id="info5">
	<rect id="bg_4_" x="0" y="0" class="st0" width="319.4" height="197.4"/>
	<g id="hive_2_">
		<path class="st1" d="M256.7,59.1c0,3.6,2.9,6.5,6.5,6.5h56.2V52.6h-56.2C259.6,52.6,256.7,55.5,256.7,59.1z"/>
		<path class="st1" d="M263.2,68.3h-5c-3.6,0-6.5,2.9-6.5,6.5c0,3.6,2.9,6.5,6.5,6.5h61.2v1.4h0V66.9h0v1.4H263.2z"/>
		<path class="st1" d="M258.2,83.9h-5.3c-3.6,0-6.5,2.9-6.5,6.5c0,3.6,2.9,6.5,6.5,6.5h31.9v-0.2c0-5.1,4.1-9.2,9.2-9.2
			c5,0,9.2,4.1,9.2,9.2v0.2h16.3V83.9H258.2z"/>
		<rect x="303.1" y="99.6" class="st1" width="16.3" height="12.9"/>
		<path class="st1" d="M247.2,99.6c-3.6,0-6.5,2.9-6.5,6.5s2.9,6.5,6.5,6.5h5.7h31.9V99.6h-31.9H247.2z"/>
		<path class="st1" d="M284.8,115.3h-31.9c-3.6,0-6.5,2.9-6.5,6.5c0,3.6,2.9,6.5,6.5,6.5h5.3h61.2v-12.9h-16.3H284.8z"/>
		<path class="st1" d="M258.2,130.9c-3.6,0-6.5,2.9-6.5,6.5s2.9,6.5,6.5,6.5h61.2v1.4h0v-15.7h0v1.4H258.2z"/>
		<path class="st2" d="M303.1,96.7c0-5.1-4.1-9.2-9.2-9.2c-5,0-9.2,4.1-9.2,9.2v0.2h-31.9c-3.6,0-6.5-2.9-6.5-6.5
			c0-3.6,2.9-6.5,6.5-6.5h5.3h61.2h0v-1.4v-1.4h-61.2c-3.6,0-6.5-2.9-6.5-6.5c0-3.6,2.9-6.5,6.5-6.5h5h56.2v-1.4v-1.4h0h-56.2
			c-3.6,0-6.5-2.9-6.5-6.5s2.9-6.5,6.5-6.5h56.2h0v-2.7h-56.2c-5,0-9.2,4.1-9.2,9.2c0,2.6,1.1,4.9,2.8,6.6c-4.4,0.7-7.8,4.5-7.8,9.1
			c0,2.6,1,4.9,2.7,6.5c-4.5,0.5-8.1,4.4-8.1,9.1c0,2.5,1,4.8,2.7,6.5c-4.7,0.4-8.4,4.3-8.4,9.1s3.7,8.7,8.4,9.1
			c-1.7,1.7-2.7,4-2.7,6.5c0,4.7,3.5,8.6,8.1,9.1c-1.7,1.7-2.7,4-2.7,6.5c0,5.1,4.1,9.2,9.2,9.2h61.2v-1.4v-1.4h-61.2
			c-3.6,0-6.5-2.9-6.5-6.5s2.9-6.5,6.5-6.5h61.2v-1.4v-1.4h0h-61.2h-5.3c-3.6,0-6.5-2.9-6.5-6.5c0-3.6,2.9-6.5,6.5-6.5h31.9h18.3
			h16.3h0v-2.7h0h-16.3V99.6h16.3h0v-2.7h0h-16.3V96.7z M284.8,112.5h-31.9h-5.7c-3.6,0-6.5-2.9-6.5-6.5s2.9-6.5,6.5-6.5h5.7h31.9
			V112.5z"/>
	</g>
	<g id="leaves_1_">
		<path class="st5" d="M115.7,175.4c-3.1-0.7-10.7-1.8-16.8,1.5c-6.1,3.3-9.2,10.3-10.3,13.3c3.1,0.7,10.7,1.8,16.8-1.5
			C111.5,185.3,114.6,178.4,115.7,175.4z"/>
		<path class="st2" d="M118.1,172.9c-0.5-0.1-11.6-3.6-20.6,1.4c-9,4.9-12.1,16.1-12.2,16.6c-0.2,0.8,0.2,1.6,1,1.8
			c0.3,0.1,4.2,1.3,9.2,1.3c3.5,0,7.6-0.6,11.4-2.6c9-4.9,12.1-16.1,12.2-16.6C119.3,173.9,118.9,173.1,118.1,172.9z M88.7,190.2
			c1.1-3,4.2-10,10.3-13.3c6.1-3.3,13.6-2.2,16.8-1.5c-1.1,3-4.2,10-10.3,13.3C99.3,192,91.8,190.9,88.7,190.2z"/>
		<path class="st5" d="M8.9,132.6c-0.7,3.1-1.9,10.7,1.3,16.8c3.3,6.1,10.2,9.3,13.2,10.4c0.7-3.1,1.9-10.7-1.3-16.8
			C18.9,136.9,11.9,133.8,8.9,132.6z"/>
		<path class="st2" d="M8.3,129.2c-0.8-0.2-1.6,0.2-1.8,1c-0.2,0.5-3.7,11.6,1.2,20.6c4.8,9,16,12.3,16.5,12.4
			c0.1,0,0.3,0.1,0.4,0.1c0.6,0,1.2-0.4,1.4-1c0.2-0.5,3.7-11.6-1.2-20.6S8.8,129.4,8.3,129.2z M23.5,159.8
			c-3-1.1-9.9-4.3-13.2-10.4c-3.3-6.1-2.1-13.6-1.3-16.8c3,1.1,9.9,4.3,13.2,10.4C25.4,149.2,24.2,156.7,23.5,159.8z"/>
		<path class="st5" d="M239,183.7c-2.8-1.6-9.6-5.1-16.4-3.8c-6.8,1.3-12,6.9-14,9.4c2.8,1.6,9.6,5.1,16.4,3.8
			C231.8,191.9,237,186.2,239,183.7z"/>
		<path class="st2" d="M242,182.1c-0.4-0.3-9.9-7-20-5.1c-10.1,1.9-16.6,11.5-16.8,11.9c-0.4,0.7-0.3,1.6,0.4,2
			c0.4,0.3,7.7,5.5,16.3,5.5c1.2,0,2.4-0.1,3.6-0.3c10.1-1.9,16.6-11.5,16.8-11.9C242.8,183.5,242.6,182.6,242,182.1z M208.6,189.3
			c2-2.5,7.1-8.1,14-9.4c6.8-1.3,13.6,2.2,16.4,3.8c-2,2.5-7.1,8.1-14,9.4C218.2,194.4,211.4,191,208.6,189.3z"/>
		<path class="st5" d="M250.6,133.6c0.3,3.2,1.5,10.7,6.5,15.5c5,4.8,12.6,5.7,15.8,5.8c-0.3-3.2-1.5-10.7-6.5-15.5
			C261.4,134.6,253.8,133.7,250.6,133.6z"/>
		<path class="st2" d="M268.5,137.2c-7.4-7.1-19-6.7-19.5-6.6c-0.8,0-1.4,0.7-1.4,1.5c0,0.5,0.1,12.1,7.5,19.2
			c6.5,6.2,16.3,6.7,18.9,6.7c0.4,0,0.6,0,0.7,0c0.8,0,1.4-0.7,1.4-1.5C276,155.9,275.9,144.3,268.5,137.2z M257.1,149.1
			c-5-4.8-6.2-12.3-6.5-15.5c3.2,0.1,10.8,1,15.8,5.8c5,4.8,6.2,12.3,6.5,15.5C269.7,154.8,262.1,153.9,257.1,149.1z"/>
	</g>
	<g id="flowers_1_">
		<path class="st6" d="M17.8,190.5c0,0,0-0.1,0-0.1c-1.1,1.1-2.5,2-4,2.5c-1.1,0.4-2.3,0.6-3.4,0.6c-4.4,0-8.5-2.8-10-7.1
			c-0.2-0.5-0.3-1-0.4-1.4v12.5h23.2C20.7,195.8,18.8,193.4,17.8,190.5z"/>
		<path class="st6" d="M6.9,172.9c0.4-0.1,0.8-0.3,1.3-0.3c-2-3.4-2.5-7.5-1.2-11.4c-2.4-0.7-5-0.2-7,1.2v18.5
			C0.7,177.3,3.2,174.2,6.9,172.9z"/>
		<path class="st5" d="M52.5,195.5c-1.7-0.1-3.4-0.5-5.1-1.3c-1.7-0.8-3.2-2-4.3-3.4c-0.2,0.4-0.3,0.9-0.5,1.3
			c-1.1,2.2-2.8,4.1-4.8,5.4h15.9c-0.3-0.4-0.5-0.7-0.8-1.1C52.7,196,52.6,195.7,52.5,195.5z"/>
		<path class="st1" d="M7.9,175.8c-3.9,1.3-6,5.6-4.7,9.6c1.3,3.9,5.6,6,9.6,4.7c1.9-0.6,3.4-2,4.3-3.8c0-1.5,0.2-3,0.7-4.4
			c-0.1-0.5-0.2-0.9-0.3-1.4c-0.2-0.6-0.5-1.2-0.9-1.8c-1-0.2-1.9-0.6-2.8-1c-1.3-0.6-2.4-1.4-3.3-2.3c0,0-0.1,0-0.1,0
			C9.5,175.4,8.7,175.5,7.9,175.8z"/>
		<path class="st6" d="M89.1,188.6c-0.6-1-1.3-1.8-2.2-2.5c-0.6-0.4-0.7-1.2-0.5-1.8c0.3-0.6,1-1,1.7-0.9c2,0.4,4,0.1,5.8-0.9
			c1.9-1.1,3.3-2.9,3.9-5c0.6-2.1,0.3-4.4-0.8-6.3c-2.3-4-7.4-5.4-11.4-3.1c-0.2,0.1-0.4,0.2-0.6,0.4c-0.6,0.4-1.3,0.3-1.9-0.1
			c-0.5-0.5-0.6-1.2-0.3-1.8c1.4-2.6,1.4-5.6-0.1-8.1c-2.3-4-7.4-5.4-11.4-3.1c-0.7,0.4-1.2,0.8-1.7,1.3c0.6,2.8,0.3,5.9-1.1,8.7
			c-1.5,3-3.9,5.3-6.9,6.5c1,0.8,1.8,1.6,2.5,2.6c0.9-2.1,2.4-3.9,4.5-5.1c5-2.9,11.5-1.1,14.4,3.9c1.4,2.4,1.8,5.3,1,8
			c-0.7,2.7-2.5,5-4.9,6.4c-1.6,0.9-3.4,1.4-5.2,1.4c-2.8,0-5.6-1.2-7.6-3.3c-0.2,0.8-0.5,1.7-0.9,2.5c-1.9,3.9-5.5,6.5-9.5,7.2
			c0.6,0.9,1.3,1.6,2.1,2.1h9.7c1.4-1,2.4-2.4,3-4c0.2-0.6,0.8-1,1.4-1c0.1,0,0.1,0,0.2,0c0.7,0.1,1.2,0.6,1.3,1.3
			c0.1,1.1,0.5,2.2,1,3.2c0.1,0.2,0.2,0.3,0.3,0.5h13.9C90.4,194.8,90.7,191.4,89.1,188.6z"/>
		<path class="st6" d="M39.8,190.7c0.6-1.3,1-2.6,1-4c0-0.7,0.6-1.3,1.2-1.4c0.7-0.1,1.4,0.2,1.6,0.9c1,2.3,2.7,4.2,5,5.3
			c5.1,2.5,11.4,0.4,13.9-4.7c1.2-2.5,1.4-5.3,0.5-7.9c-0.9-2.6-2.8-4.7-5.3-6c0,0,0,0,0,0c-0.2-0.1-0.5-0.2-0.7-0.3
			c-0.6-0.3-1-0.9-0.9-1.6c0.1-0.7,0.7-1.2,1.3-1.3c3.6-0.4,6.7-2.5,8.3-5.8c2.5-5.1,0.4-11.4-4.8-13.9c-4.3-2.1-9.5-1-12.6,2.7
			c-0.4,0.5-1.2,0.7-1.8,0.4c-0.6-0.3-1-1-0.8-1.7c1.1-4.7-1.2-9.5-5.6-11.6c-5.1-2.5-11.4-0.4-13.9,4.7c-1.6,3.3-1.4,7,0.5,10.1
			c0.4,0.6,0.3,1.3-0.2,1.8c-0.5,0.5-1.2,0.6-1.8,0.3c-0.2-0.1-0.5-0.3-0.7-0.4c-2.5-1.2-5.3-1.4-7.9-0.5s-4.7,2.8-6,5.2
			c-2.5,5.1-0.4,11.4,4.8,13.9c2.2,1.1,4.8,1.4,7.2,0.7c0.1,0,0.3,0,0.4,0c0.5,0,1.1,0.3,1.3,0.8c0.3,0.6,0.2,1.4-0.3,1.8
			c-1.1,0.9-1.9,2-2.5,3.3c-1.2,2.5-1.4,5.3-0.5,7.9c0.9,2.6,2.8,4.7,5.3,6c2.5,1.2,5.3,1.4,7.9,0.5
			C36.5,195.1,38.6,193.2,39.8,190.7z M28.4,163c3-6.1,10.5-8.7,16.6-5.7c3,1.5,5.2,4,6.3,7.1c1.1,3.1,0.9,6.5-0.6,9.5
			c-1.5,3-4,5.2-7.1,6.3c-1.3,0.4-2.7,0.7-4,0.7c-1.9,0-3.7-0.4-5.4-1.3C27.9,176.5,25.3,169.1,28.4,163z"/>
		<path class="st1" d="M66.6,176.3c-0.5,1.9-0.3,4,0.7,5.7c1,1.7,2.6,3,4.6,3.5c1.9,0.5,4,0.3,5.7-0.7c1.7-1,3-2.6,3.5-4.6
			c0.5-1.9,0.3-4-0.7-5.7c-1-1.7-2.6-3-4.6-3.5c-0.7-0.2-1.3-0.3-2-0.3c-1.3,0-2.6,0.3-3.7,1C68.4,172.8,67.1,174.4,66.6,176.3z"/>
		<path class="st1" d="M31,164.3c-2.3,4.6-0.4,10.3,4.3,12.6c2.3,1.1,4.8,1.3,7.2,0.5c2.4-0.8,4.3-2.5,5.4-4.7c0,0,0,0,0,0
			c1.1-2.3,1.3-4.8,0.5-7.2c-0.8-2.4-2.5-4.3-4.8-5.4c-1.3-0.7-2.7-1-4.1-1C36,159,32.7,161,31,164.3z"/>
		<g>
			<path class="st2" d="M99.5,169.6c-2.6-4.6-8-6.6-12.9-5.3c0.4-2.5,0-5.2-1.3-7.5c-3.1-5.4-10.1-7.3-15.5-4.2
				c-0.5,0.3-0.9,0.6-1.3,0.9c-1.3-2.6-3.3-4.8-6.1-6.2c-4.4-2.1-9.4-1.7-13.3,0.8c-0.3-4.6-3.1-8.9-7.5-11
				c-6.6-3.2-14.7-0.5-17.9,6.1c-1.5,3-1.8,6.3-0.9,9.5c-2.5-0.6-5-0.5-7.5,0.3c-2.9,1-5.3,2.9-6.9,5.4c-2.8-0.9-5.8-0.7-8.4,0.5
				v3.4c2.1-1.4,4.7-1.9,7-1.2c-1.4,3.9-0.9,8,1.2,11.4c-0.4,0.1-0.9,0.2-1.3,0.3c-3.7,1.3-6.2,4.4-6.9,8v4c0.1,0.5,0.2,1,0.4,1.4
				c1.5,4.4,5.6,7.1,10,7.1c1.1,0,2.3-0.2,3.4-0.6c1.5-0.5,2.9-1.4,4-2.5c0,0,0,0.1,0,0.1c1,2.9,2.9,5.3,5.5,6.9h14.4
				c2-1.3,3.7-3.1,4.8-5.4c0.2-0.4,0.4-0.8,0.5-1.3c1.2,1.4,2.7,2.6,4.3,3.4c1.6,0.8,3.4,1.2,5.1,1.3c0.1,0.3,0.2,0.5,0.4,0.8
				c0.2,0.4,0.5,0.8,0.8,1.1h4.2c-0.8-0.6-1.5-1.3-2.1-2.1c4-0.8,7.6-3.3,9.5-7.2c0.4-0.8,0.7-1.6,0.9-2.5c2,2.1,4.8,3.3,7.6,3.3
				c1.8,0,3.6-0.4,5.2-1.4c2.4-1.4,4.2-3.7,4.9-6.4c0.7-2.7,0.4-5.5-1-8c-2.9-5-9.3-6.8-14.4-3.9c-2.1,1.2-3.6,3-4.5,5.1
				c-0.7-1-1.6-1.9-2.5-2.6c3-1.2,5.5-3.5,6.9-6.5c1.4-2.8,1.7-5.9,1.1-8.7c0.5-0.5,1.1-1,1.7-1.3c4-2.3,9.1-0.9,11.4,3.1
				c1.4,2.5,1.5,5.6,0.1,8.1c-0.3,0.6-0.2,1.4,0.3,1.8c0.5,0.5,1.3,0.5,1.9,0.1c0.2-0.1,0.4-0.2,0.6-0.4c4-2.3,9.1-0.9,11.4,3.1
				c1.1,1.9,1.4,4.2,0.8,6.3c-0.6,2.2-2,3.9-3.9,5c-1.7,1-3.8,1.3-5.8,0.9c-0.7-0.1-1.4,0.2-1.7,0.9s-0.1,1.4,0.5,1.8
				c0.9,0.7,1.6,1.5,2.2,2.5c1.6,2.8,1.4,6.2-0.3,8.8h3.4c0.2-0.5,0.5-1.1,0.6-1.7c0.8-2.9,0.4-6-1.1-8.6c-0.1-0.2-0.3-0.4-0.4-0.6
				c1.4-0.2,2.8-0.7,4-1.4c2.6-1.5,4.5-3.9,5.3-6.9C101.4,175.3,101,172.3,99.5,169.6z M66.6,176.3c0.5-1.9,1.8-3.6,3.5-4.6
				c1.2-0.7,2.4-1,3.7-1c0.7,0,1.3,0.1,2,0.3c1.9,0.5,3.6,1.8,4.6,3.5c1,1.7,1.3,3.8,0.7,5.7c-0.5,1.9-1.8,3.6-3.5,4.6
				c-1.7,1-3.8,1.3-5.7,0.7c-1.9-0.5-3.6-1.8-4.6-3.5C66.3,180.3,66,178.3,66.6,176.3z M17.1,186.2c-0.9,1.8-2.4,3.1-4.3,3.8
				c-3.9,1.3-8.2-0.8-9.6-4.7c-1.3-3.9,0.8-8.2,4.7-9.6c0.8-0.3,1.6-0.4,2.4-0.4c0,0,0.1,0,0.1,0c1,0.9,2.1,1.7,3.3,2.3
				c0.9,0.4,1.9,0.8,2.8,1c0.4,0.5,0.7,1.1,0.9,1.8c0.2,0.5,0.3,0.9,0.3,1.4C17.3,183.3,17.1,184.7,17.1,186.2z M65.8,163.9
				c-1.6,3.3-4.7,5.4-8.3,5.8c-0.7,0.1-1.2,0.6-1.3,1.3c-0.1,0.7,0.3,1.3,0.9,1.6c0.3,0.1,0.5,0.2,0.7,0.3c0,0,0,0,0,0
				c2.5,1.2,4.4,3.3,5.3,6c0.9,2.6,0.7,5.4-0.5,7.9c-2.5,5.1-8.8,7.3-13.9,4.7c-2.2-1.1-4-3-5-5.3c-0.3-0.6-1-1-1.6-0.9
				c-0.7,0.1-1.2,0.7-1.2,1.4c-0.1,1.4-0.4,2.7-1,4c-1.2,2.5-3.3,4.4-6,5.2c-2.6,0.9-5.4,0.7-7.9-0.5c-2.5-1.2-4.4-3.3-5.3-6
				c-0.9-2.6-0.7-5.4,0.5-7.9c0.6-1.3,1.5-2.4,2.5-3.3c0.5-0.5,0.7-1.2,0.3-1.8c-0.3-0.5-0.8-0.8-1.3-0.8c-0.1,0-0.3,0-0.4,0
				c-2.4,0.6-5,0.4-7.2-0.7c-5.1-2.5-7.3-8.7-4.8-13.9c1.2-2.5,3.3-4.4,6-5.2s5.4-0.7,7.9,0.5c0.2,0.1,0.5,0.2,0.7,0.4
				c0.6,0.4,1.4,0.2,1.8-0.3c0.5-0.5,0.6-1.3,0.2-1.8c-1.9-3.1-2.1-6.8-0.5-10.1c2.5-5.1,8.8-7.3,13.9-4.7c4.3,2.1,6.6,6.9,5.6,11.6
				c-0.2,0.7,0.2,1.4,0.8,1.7c0.6,0.3,1.4,0.1,1.8-0.4c3.1-3.7,8.2-4.8,12.6-2.7C66.2,152.5,68.4,158.7,65.8,163.9z"/>
			<path class="st2" d="M73.5,193.7c-0.1-0.7-0.6-1.2-1.3-1.3c-0.1,0-0.1,0-0.2,0c-0.6,0-1.2,0.4-1.4,1c-0.6,1.6-1.6,3-3,4h7.3
				c-0.1-0.2-0.2-0.3-0.3-0.5C74,195.9,73.6,194.8,73.5,193.7z"/>
			<path class="st2" d="M44.9,157.3c-6.1-3-13.6-0.5-16.6,5.7c-3,6.1-0.5,13.6,5.7,16.6c1.7,0.8,3.6,1.3,5.4,1.3
				c1.4,0,2.7-0.2,4-0.7c3.1-1.1,5.7-3.3,7.1-6.3c1.5-3,1.7-6.3,0.6-9.5C50.1,161.3,47.9,158.8,44.9,157.3z M47.9,172.6
				C47.9,172.6,47.9,172.6,47.9,172.6c-1.1,2.3-3,3.9-5.4,4.7c-2.4,0.8-4.9,0.7-7.2-0.5c-4.7-2.3-6.6-7.9-4.3-12.6
				c1.6-3.3,5-5.3,8.4-5.3c1.4,0,2.8,0.3,4.1,1c2.3,1.1,3.9,3,4.8,5.4C49.2,167.8,49,170.3,47.9,172.6z"/>
		</g>
		<path class="st6" d="M316.1,156.1c-0.5,0.4-1,0.7-1.5,1c-0.6,0.4-1.2,0.7-1.8,0.9c0.4,0.5,0.7,1.1,1,1.7c1.8,3.8,1.8,8,0.1,11.5
			c0.2,0.1,0.4,0.1,0.6,0.2c2,0.7,3.6,1.9,4.9,3.4v-18.3C318.3,156.2,317.2,156.1,316.1,156.1z"/>
		<path class="st6" d="M306.3,194.1c0.3-0.5,0.8-0.8,1.3-0.8c0.1,0,0.3,0,0.4,0.1c0.7,0.2,1.1,0.8,1.1,1.5c0,0.8,0,1.7,0.2,2.5h10
			v-9.5c-1,1.2-2.2,2.2-3.6,2.9c-1.5,0.7-3,1.1-4.6,1.1c-1.1,0-2.3-0.2-3.4-0.6c-1.4-0.5-2.6-1.2-3.7-2.2c-0.1,0.4-0.2,0.9-0.4,1.3
			c-1,2.9-2.9,5.3-5.5,6.9h4.7c0.4-0.2,0.8-0.5,1.2-0.8C305.1,195.9,305.8,195.1,306.3,194.1z"/>
		<path class="st5" d="M279,192c-0.2-0.4-0.4-0.8-0.5-1.3c-1.2,1.4-2.7,2.6-4.3,3.4c-1.6,0.8-3.3,1.2-5.1,1.3
			c-0.1,0.3-0.2,0.5-0.4,0.8c-0.2,0.4-0.5,0.8-0.8,1.1h15.9C281.7,196.1,280.1,194.3,279,192z"/>
		<path class="st5" d="M306.2,143c-3.3,1.9-5.6,4.9-7.2,7.7c-0.1,0.7-0.2,1.3-0.4,2c4.3-1.1,8.8,0.1,12.1,3c0.8-0.3,1.6-0.7,2.4-1.2
			c2.7-1.6,4.7-3.9,6.3-6.2v-7.9C315.7,140.2,310.5,140.4,306.2,143z"/>
		<path class="st1" d="M308.7,188.5c3.9,1.3,8.2-0.8,9.6-4.7c1.3-3.9-0.8-8.2-4.7-9.6c-0.4-0.1-0.8-0.2-1.3-0.3
			c-1.2,1.5-2.7,2.8-4.6,3.7c-1.2,0.6-2.4,1-3.7,1.2c0,0,0,0.1,0,0.1c-0.3,0.9-0.4,1.8-0.4,2.7c0.3,0.9,0.6,1.9,0.7,2.9
			C305.1,186.3,306.6,187.8,308.7,188.5z"/>
		<path class="st6" d="M265.7,195.3c-0.6-0.1-1.2-0.3-1.8-0.5c-3.4-1.2-6.1-3.6-7.7-6.8c-0.4-0.8-0.7-1.6-0.9-2.5
			c-2,2.1-4.8,3.3-7.6,3.3c-1.8,0-3.6-0.4-5.2-1.4c-5-2.9-6.8-9.3-3.9-14.4c2.9-5,9.3-6.8,14.4-3.9c2,1.2,3.6,3,4.5,5.1
			c0.7-1,1.6-1.9,2.5-2.6c-3-1.2-5.5-3.5-6.9-6.5c-1.4-2.8-1.7-5.9-1.1-8.7c-0.5-0.5-1.1-1-1.7-1.3c-4-2.3-9.1-0.9-11.4,3.1
			c-1.4,2.5-1.5,5.6-0.1,8.1c0.3,0.6,0.2,1.4-0.3,1.8c-0.5,0.5-1.3,0.5-1.9,0.1c-0.2-0.1-0.4-0.2-0.6-0.4c-1.9-1.1-4.2-1.4-6.3-0.8
			c-2.2,0.6-3.9,2-5.1,3.9c0,0,0,0,0,0c-1.1,1.9-1.4,4.2-0.8,6.3c0.6,2.2,2,3.9,3.9,5c1.7,1,3.8,1.3,5.8,0.9c0.1,0,0.2,0,0.3,0
			c0.6,0,1.1,0.3,1.4,0.9c0.3,0.6,0.1,1.4-0.5,1.8c-0.9,0.7-1.6,1.5-2.2,2.5c-1.1,1.9-1.4,4.2-0.8,6.3c0.2,0.9,0.6,1.7,1.1,2.5h13.9
			c0.1-0.2,0.2-0.3,0.3-0.5c0.6-1,0.9-2,1-3.2c0.1-0.7,0.6-1.2,1.3-1.3c0.7-0.1,1.4,0.3,1.6,1c0.6,1.6,1.6,3,3,4h9.7
			C264.4,196.8,265.1,196.1,265.7,195.3z"/>
		<path class="st6" d="M295.6,195.4c2.5-1.2,4.4-3.3,5.3-6c0.9-2.6,0.7-5.4-0.5-7.9c-0.6-1.3-1.5-2.4-2.5-3.3
			c-0.5-0.5-0.7-1.2-0.3-1.8c0.3-0.6,1-0.9,1.7-0.8c2.4,0.6,5,0.4,7.2-0.7c5.1-2.5,7.3-8.7,4.8-13.9c-2.5-5.1-8.8-7.3-13.9-4.7
			c-0.2,0.1-0.5,0.2-0.7,0.4c-0.6,0.3-1.4,0.2-1.8-0.3c-0.5-0.5-0.6-1.3-0.2-1.8c1.9-3.1,2.1-6.8,0.5-10.1c-1.2-2.5-3.3-4.4-6-5.2
			c-2.6-0.9-5.4-0.7-7.9,0.5c-4.3,2.1-6.6,6.9-5.6,11.6c0.2,0.7-0.2,1.4-0.8,1.7c-0.6,0.3-1.4,0.1-1.8-0.4
			c-3.1-3.7-8.2-4.8-12.6-2.7c-5.1,2.5-7.3,8.7-4.8,13.9c1.6,3.3,4.7,5.4,8.3,5.8c0.7,0.1,1.2,0.6,1.3,1.3c0.1,0.7-0.3,1.3-0.9,1.6
			c-0.3,0.1-0.5,0.2-0.7,0.3c-2.5,1.2-4.4,3.3-5.3,6c-0.9,2.6-0.7,5.4,0.5,7.9c1.2,2.5,3.3,4.4,6,5.2c2.6,0.9,5.4,0.7,7.9-0.5
			c2.2-1.1,4-3,5-5.3c0.2-0.6,0.8-0.9,1.4-0.9c0.1,0,0.2,0,0.3,0c0.7,0.1,1.2,0.7,1.2,1.4c0.1,1.4,0.4,2.7,1,4
			c1.2,2.5,3.3,4.4,6,5.2C290.3,196.8,293.1,196.7,295.6,195.4z M276.5,157.3c6.1-3,13.6-0.5,16.6,5.7c3,6.1,0.5,13.6-5.7,16.6
			c-1.8,0.9-3.6,1.3-5.4,1.3c-4.6,0-9-2.5-11.2-6.9c0,0,0,0,0,0C267.8,167.8,270.4,160.3,276.5,157.3z"/>
		<path class="st1" d="M254.9,176.3c-0.5-1.9-1.8-3.6-3.5-4.6c-1.2-0.7-2.4-1-3.7-1c-0.7,0-1.3,0.1-2,0.3c-1.9,0.5-3.6,1.8-4.6,3.5
			c-1,1.7-1.3,3.8-0.7,5.7s1.8,3.6,3.5,4.6c1.7,1,3.8,1.3,5.7,0.7c1.9-0.5,3.6-1.8,4.6-3.5C255.2,180.3,255.4,178.3,254.9,176.3z"/>
		<path class="st1" d="M273.5,172.6L273.5,172.6c2.3,4.6,7.9,6.6,12.6,4.3c4.7-2.3,6.6-7.9,4.3-12.6c-2.3-4.6-7.9-6.6-12.6-4.3
			C273.2,162.3,271.3,167.9,273.5,172.6z"/>
		<g>
			<path class="st2" d="M308.1,193.4c-0.1,0-0.3-0.1-0.4-0.1c-0.5,0-1,0.3-1.3,0.8c-0.6,1-1.3,1.8-2.2,2.5c-0.4,0.3-0.8,0.6-1.2,0.8
				h6.5c-0.2-0.8-0.3-1.6-0.2-2.5C309.2,194.2,308.7,193.6,308.1,193.4z"/>
			<path class="st2" d="M306.2,143c4.3-2.5,9.4-2.8,13.1-2.5v-3c-4.1-0.3-9.8,0.1-14.6,3c-2.5,1.5-4.5,3.4-6,5.4
				c-0.2-0.9-0.5-1.7-0.9-2.6c-1.6-3.2-4.3-5.6-7.7-6.8c-3.4-1.2-7-0.9-10.2,0.6c-4.4,2.1-7.1,6.4-7.5,11c-3.9-2.6-8.9-3-13.3-0.8
				c-2.8,1.4-4.9,3.6-6.1,6.2c-0.4-0.3-0.9-0.6-1.3-0.9c-2.6-1.5-5.7-1.9-8.6-1.1c-2.9,0.8-5.4,2.7-6.9,5.3c-1.3,2.3-1.8,5-1.3,7.5
				c-1.9-0.5-4-0.5-6,0c-2.9,0.8-5.4,2.7-6.9,5.3c-1.5,2.6-1.9,5.7-1.1,8.6c0.8,2.9,2.7,5.4,5.3,6.9c1.3,0.7,2.6,1.2,4,1.4
				c-0.1,0.2-0.3,0.4-0.4,0.6c-1.5,2.6-1.9,5.7-1.1,8.6c0.2,0.6,0.4,1.1,0.6,1.7h3.4c-0.5-0.7-0.9-1.6-1.1-2.5
				c-0.6-2.1-0.3-4.4,0.8-6.3c0.6-1,1.3-1.8,2.2-2.5c0.6-0.4,0.7-1.2,0.5-1.8c-0.2-0.5-0.8-0.9-1.4-0.9c-0.1,0-0.2,0-0.3,0
				c-2,0.4-4,0.1-5.8-0.9c-1.9-1.1-3.3-2.9-3.9-5c-0.6-2.1-0.3-4.4,0.8-6.3c0,0,0,0,0,0c1.1-1.9,2.9-3.3,5.1-3.9
				c2.1-0.6,4.4-0.3,6.3,0.8c0.2,0.1,0.4,0.2,0.6,0.4c0.6,0.4,1.3,0.3,1.9-0.1c0.5-0.5,0.6-1.2,0.3-1.8c-1.4-2.6-1.4-5.6,0.1-8.1
				c2.3-4,7.4-5.4,11.4-3.1c0.7,0.4,1.2,0.8,1.7,1.3c-0.6,2.8-0.3,5.9,1.1,8.7c1.5,3,3.9,5.3,6.9,6.5c-1,0.8-1.8,1.6-2.5,2.6
				c-0.9-2.1-2.4-3.9-4.5-5.1c-5-2.9-11.5-1.1-14.4,3.9c-2.9,5-1.1,11.5,3.9,14.4c1.6,0.9,3.4,1.4,5.2,1.4c2.8,0,5.6-1.2,7.6-3.3
				c0.2,0.8,0.5,1.7,0.9,2.5c1.6,3.2,4.3,5.6,7.7,6.8c0.6,0.2,1.2,0.4,1.8,0.5c-0.6,0.8-1.3,1.6-2.1,2.1h4.2
				c0.3-0.4,0.5-0.7,0.8-1.1c0.1-0.2,0.3-0.5,0.4-0.8c1.7-0.1,3.5-0.6,5.1-1.3c1.7-0.8,3.2-2,4.3-3.4c0.2,0.4,0.3,0.9,0.5,1.3
				c1.1,2.2,2.8,4.1,4.8,5.4h14.4c2.5-1.6,4.5-4,5.5-6.9c0.1-0.4,0.3-0.9,0.4-1.3c1,0.9,2.3,1.7,3.7,2.2c1.1,0.4,2.3,0.6,3.4,0.6
				c1.6,0,3.2-0.4,4.6-1.1c1.4-0.7,2.7-1.7,3.6-2.9v-13c-1.2-1.5-2.9-2.8-4.9-3.4c-0.2-0.1-0.4-0.1-0.6-0.2
				c1.6-3.5,1.7-7.7-0.1-11.5c-0.3-0.6-0.6-1.2-1-1.7c0.6-0.3,1.2-0.6,1.8-0.9c0.5-0.3,1-0.6,1.5-1c1.1-0.1,2.2,0.1,3.2,0.4v-3.1
				c-0.1,0-0.1,0-0.2,0c0.1-0.1,0.1-0.1,0.2-0.2v-4.9c-1.5,2.3-3.6,4.6-6.3,6.2c-0.8,0.5-1.6,0.8-2.4,1.2c-3.3-2.9-7.8-4.1-12.1-3
				c0.2-0.7,0.3-1.3,0.4-2C300.6,147.9,303,144.9,306.2,143z M254.2,182.1c-1,1.7-2.6,3-4.6,3.5c-1.9,0.5-4,0.3-5.7-0.7
				c-1.7-1-3-2.6-3.5-4.6s-0.3-4,0.7-5.7c1-1.7,2.6-3,4.6-3.5c0.7-0.2,1.3-0.3,2-0.3c1.3,0,2.6,0.3,3.7,1c1.7,1,3,2.6,3.5,4.6
				C255.4,178.3,255.2,180.3,254.2,182.1z M313.5,174.3c3.9,1.3,6,5.6,4.7,9.6c-1.3,3.9-5.6,6-9.6,4.7c-2-0.7-3.6-2.2-4.4-4
				c-0.1-1-0.3-2-0.7-2.9c0-0.9,0.1-1.8,0.4-2.7c0,0,0-0.1,0-0.1c1.3-0.2,2.5-0.6,3.7-1.2c1.9-0.9,3.4-2.2,4.6-3.7
				C312.7,174,313.1,174.1,313.5,174.3z M311.1,161.1c2.5,5.1,0.4,11.4-4.8,13.9c-2.2,1.1-4.8,1.4-7.2,0.7c-0.7-0.2-1.4,0.1-1.7,0.8
				c-0.3,0.6-0.2,1.4,0.3,1.8c1.1,0.9,1.9,2,2.5,3.3c1.2,2.5,1.4,5.3,0.5,7.9c-0.9,2.6-2.8,4.7-5.3,6c-2.5,1.2-5.3,1.4-7.9,0.5
				c-2.6-0.9-4.7-2.8-6-5.2c-0.6-1.3-1-2.6-1-4c0-0.7-0.6-1.3-1.2-1.4c-0.1,0-0.2,0-0.3,0c-0.6,0-1.1,0.4-1.4,0.9
				c-1,2.3-2.7,4.2-5,5.3c-2.5,1.2-5.3,1.4-7.9,0.5c-2.6-0.9-4.7-2.8-6-5.2c-1.2-2.5-1.4-5.3-0.5-7.9c0.9-2.6,2.8-4.7,5.3-6
				c0.2-0.1,0.5-0.2,0.7-0.3c0.6-0.3,1-0.9,0.9-1.6c-0.1-0.7-0.7-1.2-1.3-1.3c-3.6-0.4-6.7-2.5-8.3-5.8c-2.5-5.1-0.4-11.4,4.8-13.9
				c4.3-2.1,9.5-1,12.6,2.7c0.4,0.5,1.2,0.7,1.8,0.4c0.6-0.3,1-1,0.8-1.7c-1.1-4.7,1.2-9.5,5.6-11.6c2.5-1.2,5.3-1.4,7.9-0.5
				c2.6,0.9,4.7,2.8,6,5.2c1.6,3.3,1.4,7-0.5,10.1c-0.4,0.6-0.3,1.3,0.2,1.8c0.5,0.5,1.2,0.6,1.8,0.3c0.2-0.1,0.5-0.3,0.7-0.4
				C302.4,153.8,308.6,156,311.1,161.1z"/>
			<path class="st2" d="M250.9,193.4c-0.2-0.7-0.9-1.1-1.6-1c-0.7,0.1-1.2,0.6-1.3,1.3c-0.1,1.1-0.5,2.2-1,3.2
				c-0.1,0.2-0.2,0.3-0.3,0.5h7.3C252.5,196.4,251.4,195,250.9,193.4z"/>
			<path class="st2" d="M276.5,157.3c-6.1,3-8.7,10.4-5.7,16.6c0,0,0,0,0,0c2.2,4.4,6.6,6.9,11.2,6.9c1.8,0,3.7-0.4,5.4-1.3
				c6.1-3,8.7-10.4,5.7-16.6C290.1,156.8,282.7,154.3,276.5,157.3z M286.1,176.9c-4.7,2.3-10.3,0.4-12.6-4.3v0
				c-2.3-4.6-0.4-10.3,4.3-12.6c4.6-2.3,10.3-0.4,12.6,4.3C292.7,168.9,290.8,174.6,286.1,176.9z"/>
		</g>
	</g>
	<g id="bee5-3">
		<g id="l-wing_11_">
			<path id="l-wing-in_11_" class="st3" d="M162.6,150.3c2.3,0,4.1-1.9,4.1-4.1s-1.9-4.1-4.1-4.1c-2,0-4.9,0-6.5,0
				C156.5,145.1,158.5,150.3,162.6,150.3z"/>
			<path id="l-wing-out_11_" class="st2" d="M153.9,141c0,2.9,2.1,11.3,8.6,11.3c3.4,0,6.2-2.8,6.2-6.2s-2.8-6.2-6.2-6.2
				c-2.8,0-7.6,0-7.6,0C154.4,140,153.9,140.5,153.9,141z M166.7,146.2c0,2.3-1.9,4.1-4.1,4.1c-4.1,0-6.1-5.2-6.5-8.2
				c1.6,0,4.5,0,6.5,0C164.8,142,166.7,143.9,166.7,146.2z"/>
		</g>
		<g id="r-wing_11_">
			<path id="r-wing-in_11_" class="st3" d="M156.1,124.6c1.6,0,4.5,0,6.5,0c2.3,0,4.1-1.9,4.1-4.1c0-2.3-1.9-4.1-4.1-4.1
				C158.5,116.3,156.5,121.6,156.1,124.6z"/>
			<path id="r-wing-out_11_" class="st2" d="M153.9,125.6c0,0.6,0.5,1,1,1c0,0,4.8,0,7.6,0c3.4,0,6.2-2.8,6.2-6.2
				c0-3.4-2.8-6.2-6.2-6.2C156.1,114.3,153.9,122.7,153.9,125.6z M166.7,120.5c0,2.3-1.9,4.1-4.1,4.1c-2,0-4.9,0-6.5,0
				c0.4-3,2.4-8.2,6.5-8.2C164.8,116.3,166.7,118.2,166.7,120.5z"/>
		</g>
		<g id="body_11_">
			<path id="yellow-stripe_11_" class="st1" d="M163.9,140c0.9,0,1.7-0.2,2.5-0.5v-12.4c-0.8-0.3-1.6-0.5-2.5-0.5h-0.3V140H163.9z"
				/>
			<path id="right-eye_11_" class="st3" d="M150.7,129.7c0.8,0,1.5-0.7,1.5-1.5c0-0.8-0.7-1.5-1.5-1.5c-2.3,0-4.3,1.2-5.5,3H150.7z"
				/>
			<path id="head_11_" class="st1" d="M150.7,131.7h-6.4c-0.1,0.5-0.2,1-0.2,1.6c0,0.6,0.1,1.1,0.2,1.6h6.4c2,0,3.6,1.6,3.6,3.6
				c0,0.5-0.1,1.1-0.3,1.5h2.8v-13.3h-2.8c0.2,0.5,0.3,1,0.3,1.5C154.3,130.1,152.7,131.7,150.7,131.7z"/>
			<path id="left-eye_11_" class="st3" d="M152.2,138.5c0-0.8-0.7-1.5-1.5-1.5h-5.5c1.2,1.8,3.2,3,5.5,3
				C151.6,140,152.2,139.3,152.2,138.5z"/>
			<path id="outline_11_" class="st2" d="M150.6,124.6c-3.4,0.1-6.3,2.1-7.7,5.1h-3.6c-0.8,0-1.5-0.7-1.5-1.5c0-0.8,0.7-1.5,1.5-1.5
				c0.6,0,1-0.5,1-1s-0.5-1-1-1c-2,0-3.6,1.6-3.6,3.6c0,2,1.6,3.6,3.6,3.6h2.9c-0.1,0.5-0.1,1.1-0.1,1.6c0,0.5,0.1,1.1,0.1,1.6h-2.9
				c-2,0-3.6,1.6-3.6,3.6c0,2,1.6,3.6,3.6,3.6c0.6,0,1-0.5,1-1c0-0.6-0.5-1-1-1c-0.8,0-1.5-0.7-1.5-1.5s0.7-1.5,1.5-1.5h3.6
				c1.4,2.9,4.3,5,7.7,5.1c0,0,0.1,0,0.1,0c0,0,0,0,0,0c0,0,0.1,0,0.1,0h6.8c0.1,0,0.1,0,0.2,0c0.1,0,0.1,0,0.2,0h4.5
				c0.1,0,0.1,0,0.2,0c0.1,0,0.1,0,0.2,0h1.1c1.4,0,2.7-0.3,3.9-0.9c0.1,0,0.2-0.1,0.2-0.1c2.5-1.3,4.2-3.8,4.6-6.7h1.5
				c0.6,0,1-0.5,1-1c0-0.6-0.5-1-1-1h-1.5c-0.5-4.3-4.2-7.7-8.7-7.7h-13c0,0-0.1,0-0.1,0c0,0,0,0,0,0
				C150.7,124.6,150.6,124.6,150.6,124.6z M145.3,129.7c1.2-1.8,3.2-3,5.5-3c0.8,0,1.5,0.7,1.5,1.5c0,0.8-0.7,1.5-1.5,1.5H145.3z
				 M145.3,137h5.5c0.8,0,1.5,0.7,1.5,1.5c0,0.8-0.7,1.5-1.5,1.5C148.5,140,146.4,138.8,145.3,137z M163.9,126.7
				c0.9,0,1.7,0.2,2.5,0.5v12.4c-0.8,0.3-1.6,0.5-2.5,0.5h-0.3v-13.3H163.9z M156.7,126.7V140h-2.8c0.2-0.5,0.3-1,0.3-1.5
				c0-2-1.6-3.6-3.6-3.6h-6.4c-0.1-0.5-0.2-1-0.2-1.6c0-0.6,0.1-1.1,0.2-1.6h6.4c2,0,3.6-1.6,3.6-3.6c0-0.5-0.1-1.1-0.3-1.5H156.7z"
				/>
		</g>
	</g>
	<path id="heart_5_" class="st4" d="M151.4,110.8c0-2.2-1.8-4-4-4s-4,1.8-4,4l0,0l0,0l0,0c0-2.2-1.8-4-4-4c-2.2,0-4,1.8-4,4
		c0,5.1,8.1,9.7,8.1,9.7S151.4,116,151.4,110.8z"/>
	<g id="bee5-2">
		<g id="l-wing_10_">
			<path id="l-wing-in_10_" class="st3" d="M65.5,102c2.3,0,4.1-1.9,4.1-4.1c0-2.3-1.9-4.1-4.1-4.1c-2,0-4.9,0-6.5,0
				C59.4,96.8,61.4,102,65.5,102z"/>
			<path id="l-wing-out_10_" class="st2" d="M56.9,92.7c0,2.9,2.1,11.3,8.6,11.3c3.4,0,6.2-2.8,6.2-6.2s-2.8-6.2-6.2-6.2
				c-2.8,0-7.6,0-7.6,0C57.3,91.7,56.9,92.2,56.9,92.7z M69.6,97.9c0,2.3-1.9,4.1-4.1,4.1c-4.1,0-6.1-5.2-6.5-8.2c1.6,0,4.5,0,6.5,0
				C67.8,93.7,69.6,95.6,69.6,97.9z"/>
		</g>
		<g id="r-wing_10_">
			<path id="r-wing-in_10_" class="st3" d="M59,76.3c1.6,0,4.5,0,6.5,0c2.3,0,4.1-1.9,4.1-4.1c0-2.3-1.9-4.1-4.1-4.1
				C61.4,68.1,59.4,73.3,59,76.3z"/>
			<path id="r-wing-out_10_" class="st2" d="M56.9,77.3c0,0.6,0.5,1,1,1c0,0,4.8,0,7.6,0c3.4,0,6.2-2.8,6.2-6.2
				c0-3.4-2.8-6.2-6.2-6.2C59,66,56.9,74.4,56.9,77.3z M69.6,72.2c0,2.3-1.9,4.1-4.1,4.1c-2,0-4.9,0-6.5,0c0.4-3,2.4-8.2,6.5-8.2
				C67.8,68.1,69.6,69.9,69.6,72.2z"/>
		</g>
		<g id="body_10_">
			<path id="yellow-stripe_10_" class="st1" d="M66.8,91.7c0.9,0,1.7-0.2,2.5-0.5V78.9c-0.8-0.3-1.6-0.5-2.5-0.5h-0.3v13.3H66.8z"/>
			<path id="right-eye_10_" class="st3" d="M53.6,81.4c0.8,0,1.5-0.7,1.5-1.5c0-0.8-0.7-1.5-1.5-1.5c-2.3,0-4.3,1.2-5.5,3H53.6z"/>
			<path id="head_10_" class="st1" d="M53.6,83.4h-6.4c-0.1,0.5-0.2,1-0.2,1.6c0,0.6,0.1,1.1,0.2,1.6h6.4c2,0,3.6,1.6,3.6,3.6
				c0,0.5-0.1,1.1-0.3,1.5h2.8V78.4h-2.8c0.2,0.5,0.3,1,0.3,1.5C57.2,81.8,55.6,83.4,53.6,83.4z"/>
			<path id="left-eye_10_" class="st3" d="M55.2,90.2c0-0.8-0.7-1.5-1.5-1.5h-5.5c1.2,1.8,3.2,3,5.5,3C54.5,91.7,55.2,91,55.2,90.2z
				"/>
			<path id="outline_10_" class="st2" d="M53.5,76.3c-3.4,0.1-6.3,2.1-7.7,5.1h-3.6c-0.8,0-1.5-0.7-1.5-1.5c0-0.8,0.7-1.5,1.5-1.5
				c0.6,0,1-0.5,1-1s-0.5-1-1-1c-2,0-3.6,1.6-3.6,3.6c0,2,1.6,3.6,3.6,3.6h2.9C45.1,84,45,84.5,45,85c0,0.5,0.1,1.1,0.1,1.6h-2.9
				c-2,0-3.6,1.6-3.6,3.6c0,2,1.6,3.6,3.6,3.6c0.6,0,1-0.5,1-1s-0.5-1-1-1c-0.8,0-1.5-0.7-1.5-1.5c0-0.8,0.7-1.5,1.5-1.5h3.6
				c1.4,2.9,4.3,5,7.7,5.1c0,0,0.1,0,0.1,0c0,0,0,0,0,0c0,0,0.1,0,0.1,0h6.8c0.1,0,0.1,0,0.2,0s0.1,0,0.2,0h4.5c0.1,0,0.1,0,0.2,0
				s0.1,0,0.2,0h1.1c1.4,0,2.7-0.3,3.9-0.9c0.1,0,0.2-0.1,0.2-0.1c2.5-1.3,4.2-3.8,4.6-6.7H77c0.6,0,1-0.5,1-1s-0.5-1-1-1h-1.5
				c-0.5-4.3-4.2-7.7-8.7-7.7h-13c0,0-0.1,0-0.1,0c0,0,0,0,0,0C53.6,76.3,53.6,76.3,53.5,76.3z M48.2,81.4c1.2-1.8,3.2-3,5.5-3
				c0.8,0,1.5,0.7,1.5,1.5c0,0.8-0.7,1.5-1.5,1.5H48.2z M48.2,88.7h5.5c0.8,0,1.5,0.7,1.5,1.5c0,0.8-0.7,1.5-1.5,1.5
				C51.4,91.7,49.4,90.5,48.2,88.7z M66.8,78.4c0.9,0,1.7,0.2,2.5,0.5v12.4c-0.8,0.3-1.6,0.5-2.5,0.5h-0.3V78.4H66.8z M59.7,78.4
				v13.3h-2.8c0.2-0.5,0.3-1,0.3-1.5c0-2-1.6-3.6-3.6-3.6h-6.4c-0.1-0.5-0.2-1-0.2-1.6c0-0.6,0.1-1.1,0.2-1.6h6.4
				c2,0,3.6-1.6,3.6-3.6c0-0.5-0.1-1.1-0.3-1.5H59.7z"/>
		</g>
	</g>
	<path id="heart_4_" class="st4" d="M54.3,62.6c0-2.2-1.8-4-4-4c-2.2,0-4,1.8-4,4l0,0l0,0l0,0c0-2.2-1.8-4-4-4c-2.2,0-4,1.8-4,4
		c0,5.1,8.1,9.7,8.1,9.7S54.3,67.7,54.3,62.6z"/>
	<g id="bee5-1">
		<g id="l-wing_9_">
			<path id="l-wing-in_9_" class="st3" d="M203.1,89.6c-2.3,0-4.1-1.9-4.1-4.1s1.9-4.1,4.1-4.1c2,0,4.9,0,6.5,0
				C209.2,84.3,207.2,89.6,203.1,89.6z"/>
			<path id="l-wing-out_9_" class="st2" d="M210.7,79.3c0,0-4.8,0-7.6,0c-3.4,0-6.2,2.8-6.2,6.2s2.8,6.2,6.2,6.2
				c6.5,0,8.6-8.4,8.6-11.3C211.7,79.7,211.3,79.3,210.7,79.3z M203.1,81.3c2,0,4.9,0,6.5,0c-0.4,3-2.4,8.2-6.5,8.2
				c-2.3,0-4.1-1.9-4.1-4.1S200.8,81.3,203.1,81.3z"/>
		</g>
		<g id="r-wing_9_">
			<path id="r-wing-in_9_" class="st3" d="M209.6,63.9c-1.6,0-4.5,0-6.5,0c-2.3,0-4.1-1.9-4.1-4.1s1.9-4.1,4.1-4.1
				C207.2,55.6,209.2,60.9,209.6,63.9z"/>
			<path id="r-wing-out_9_" class="st2" d="M203.1,53.6c-3.4,0-6.2,2.8-6.2,6.2c0,3.4,2.8,6.2,6.2,6.2c2.8,0,7.6,0,7.6,0
				c0.6,0,1-0.5,1-1C211.7,62,209.6,53.6,203.1,53.6z M203.1,55.6c4.1,0,6.1,5.2,6.5,8.2c-1.6,0-4.5,0-6.5,0c-2.3,0-4.1-1.9-4.1-4.1
				S200.8,55.6,203.1,55.6z"/>
		</g>
		<g id="body_9_">
			<path id="yellow-stripe_9_" class="st1" d="M201.8,79.3c-0.9,0-1.7-0.2-2.5-0.5V66.4c0.8-0.3,1.6-0.5,2.5-0.5h0.3v13.3H201.8z"/>
			<path id="right-eye_9_" class="st3" d="M214.9,69c-0.8,0-1.5-0.7-1.5-1.5c0-0.8,0.7-1.5,1.5-1.5c2.3,0,4.3,1.2,5.5,3H214.9z"/>
			<path id="head_9_" class="st1" d="M214.9,71h6.4c0.1,0.5,0.2,1,0.2,1.6c0,0.6-0.1,1.1-0.2,1.6h-6.4c-2,0-3.6,1.6-3.6,3.6
				c0,0.5,0.1,1.1,0.3,1.5h-2.8V65.9h2.8c-0.2,0.5-0.3,1-0.3,1.5C211.4,69.4,213,71,214.9,71z"/>
			<path id="left-eye_9_" class="st3" d="M213.4,77.8c0-0.8,0.7-1.5,1.5-1.5h5.5c-1.2,1.8-3.2,3-5.5,3
				C214.1,79.3,213.4,78.6,213.4,77.8z"/>
			<path id="outline_9_" class="st2" d="M214.9,63.9C214.9,63.9,214.9,63.9,214.9,63.9c-0.1,0-0.1,0-0.1,0h-13
				c-4.5,0-8.2,3.4-8.7,7.7h-1.5c-0.6,0-1,0.5-1,1s0.5,1,1,1h1.5c0.3,2.9,2.1,5.4,4.6,6.7c0.1,0.1,0.2,0.1,0.2,0.1
				c1.2,0.6,2.5,0.9,3.9,0.9h1.1c0.1,0,0.1,0,0.2,0c0.1,0,0.1,0,0.2,0h4.5c0.1,0,0.1,0,0.2,0c0.1,0,0.1,0,0.2,0h6.8c0,0,0.1,0,0.1,0
				c0,0,0,0,0,0c0,0,0.1,0,0.1,0c3.4-0.1,6.3-2.1,7.7-5.1h3.6c0.8,0,1.5,0.7,1.5,1.5s-0.7,1.5-1.5,1.5c-0.6,0-1,0.5-1,1s0.5,1,1,1
				c2,0,3.6-1.6,3.6-3.6s-1.6-3.6-3.6-3.6h-2.9c0.1-0.5,0.1-1.1,0.1-1.6c0-0.5-0.1-1.1-0.1-1.6h2.9c2,0,3.6-1.6,3.6-3.6
				c0-2-1.6-3.6-3.6-3.6c-0.6,0-1,0.5-1,1s0.5,1,1,1c0.8,0,1.5,0.7,1.5,1.5c0,0.8-0.7,1.5-1.5,1.5h-3.6c-1.4-2.9-4.3-5-7.7-5.1
				C215,63.9,215,63.9,214.9,63.9z M214.9,69c-0.8,0-1.5-0.7-1.5-1.5c0-0.8,0.7-1.5,1.5-1.5c2.3,0,4.3,1.2,5.5,3H214.9z M214.9,79.3
				c-0.8,0-1.5-0.7-1.5-1.5c0-0.8,0.7-1.5,1.5-1.5h5.5C219.2,78.1,217.2,79.3,214.9,79.3z M202.1,65.9v13.3h-0.3
				c-0.9,0-1.7-0.2-2.5-0.5V66.4c0.8-0.3,1.6-0.5,2.5-0.5H202.1z M211.7,65.9c-0.2,0.5-0.3,1-0.3,1.5c0,2,1.6,3.6,3.6,3.6h6.4
				c0.1,0.5,0.2,1,0.2,1.6c0,0.6-0.1,1.1-0.2,1.6h-6.4c-2,0-3.6,1.6-3.6,3.6c0,0.5,0.1,1.1,0.3,1.5h-2.8V65.9H211.7z"/>
		</g>
	</g>
	<path id="heart_3_" class="st4" d="M214.3,50.1c0-2.2,1.8-4,4-4c2.2,0,4,1.8,4,4c0,0,0,0,0,0l0,0c0,0,0,0,0,0c0-2.2,1.8-4,4-4
		s4,1.8,4,4c0,5.1-8.1,9.7-8.1,9.7S214.3,55.3,214.3,50.1z"/>
	
</g>
<g id="info4">
	<rect id="bg_3_" class="st0" width="319.4" height="197.4"/>
	<g id="keeper">
		<path id="outline" class="st2" d="M314.5,129l0-0.1l-0.2-0.3l-0.1-0.1c-0.2-0.4-1.7-2.6-6.1-5.3l-0.4-0.2l0.9-1.1V65.8l-0.2-1.2
			l0-0.1c-0.5-1.5-1.9-6.1-19.1-9.3c-3-12.4-16.2-21.6-31.6-21.6c-15.4,0-28.6,9.2-31.5,21.6C209,58.4,207.5,63,207,64.5l0,0.1
			l-0.2,1.2v53.1l1,1.3c0.2,0.3,0.7,0.9,1.6,1.8l-0.1,0c-6,3.2-7.8,5.9-8.1,6.4l-0.1,0.1l-0.1,0.3l0,0.1c-0.4,1-3.5,26.9-3.5,65.7
			v2.7h121.2l0.1-2.7C318.8,193.3,318.6,144.5,314.5,129z M283.4,95.7c3.2-1.3,5.8-5.5,6.6-10.8c0.4-2.9,0.2-5.7-0.6-8
			c3.6-0.7,6.7-1.5,9.4-2.4V118c-0.2,0.1-0.4,0.3-0.7,0.5l-3.9-1.2c-5-1.5-10.5-2.8-16.4-3.8l-1.2-4.7
			C279.6,104.9,281.9,100.4,283.4,95.7z M216.7,74.6c2.6,0.9,5.7,1.7,9.4,2.3c-0.8,2.3-1,5.1-0.5,8c0.7,5.2,3.3,9.4,6.5,10.8
			c1.5,4.3,3.9,8.7,7,12.5l-1.4,5.3c-5.2,0.9-9.8,1.9-13.9,3l-4,1.1c-1.4-0.9-2.4-1.7-3-2.3V74.6z"/>
		<path id="neck" class="st1" d="M225.9,120.4c8.6,3.7,19.6,5.6,32.6,5.6c18.8,0,29.5-3.1,35.2-5.6l1.4-0.6l-1.5-0.4
			c-5.3-1.6-11.2-2.9-17.5-4l-1.2-4.6l-0.7,0.8c-4.6,4.9-10.1,7.5-15.7,7.5c-7.5,0-13.4-4.5-17-8.2l-0.7-0.7l-1.4,5.2
			c-5.6,0.9-10.7,2-15,3.2l-1.5,0.4l1.4,0.7C224.8,119.9,225.3,120.1,225.9,120.4z"/>
		<path id="body" class="st1" d="M312.4,129.7l-0.1-0.1c0-0.1-1.2-2-5.4-4.6l-0.4-0.2l-0.3,0.3c-4,3.5-16.8,11.5-47.9,11.5
			c-27.9,0-41.7-7.9-47.5-12.6l-0.3-0.2l-0.3,0.2c-5.7,3-7.2,5.5-7.3,5.6l0,0.1c-0.1,0.4-3.3,25.8-3.3,65v2.7h117l0-2.7
			C316.7,194.3,315.9,144.7,312.4,129.7z"/>
		<path id="head" class="st1" d="M258.4,134c37.1,0,47.1-11.7,47.5-12.2l0.6-0.7V66l-0.2-0.9c-1.4-4.4-12.3-7-18.9-8.1
			c-2-12.2-14.7-21.3-29.7-21.3c-15,0-27.7,9.1-29.7,21.3c-6.6,1.2-17.5,3.7-18.9,8.2L209,66v52.2l0.5,0.7
			C210.7,120.5,222.2,134,258.4,134z M227.7,84.6c0.7,4.9,3.2,8.8,6,9.3c3.6,11.2,13.2,22.4,24.8,22.4c11.6,0,20.1-11.5,23.2-22.4
			c2.8-0.3,5.5-4.2,6.2-9.3c0.5-3.8-0.2-7.4-1.7-9.3c6.2-1,11.2-2.3,14.8-3.9V119c-2.8,2.5-13.6,9.6-42.5,9.6
			c-13.4,0-24.8-2-33.6-5.8c-6.2-2.7-9.3-5.5-10.2-6.5V71.4c3.5,1.5,8.4,2.8,14.8,3.9C227.8,77.3,227.1,80.8,227.7,84.6z
			 M257.8,102.9c-2.7,0-5.1-1.2-6.3-2.9H264C262.9,101.8,260.4,102.9,257.8,102.9z"/>
		<path id="lefteye" class="st2" d="M246.1,79.9c2,0,3.9,1.2,4.8,2.9h-9.6C242.2,81.1,244,79.9,246.1,79.9"/>
		<path id="righteye" class="st2" d="M270.5,79.9c2,0,3.9,1.2,4.8,2.9h-9.6C266.6,81.1,268.5,79.9,270.5,79.9"/>
	</g>
	<g id="hive_1_">
		<path class="st1" d="M62.6,110c0,3.6-2.9,6.5-6.5,6.5H0l0-12.9h56.2C59.7,103.5,62.6,106.4,62.6,110z"/>
		<path class="st1" d="M56.2,119.1h5c3.6,0,6.5,2.9,6.5,6.5s-2.9,6.5-6.5,6.5H0l0,1.4h0l0-15.7h0l0,1.4H56.2z"/>
		<path class="st1" d="M61.2,134.8h5.3c3.6,0,6.5,2.9,6.5,6.5s-2.9,6.5-6.5,6.5H34.6v-0.2c0-5.1-4.1-9.2-9.2-9.2s-9.2,4.1-9.2,9.2
			v0.2H0l0-12.9H61.2z"/>
		<rect x="0" y="150.4" class="st1" width="16.3" height="12.9"/>
		<path class="st1" d="M72.2,150.4c3.6,0,6.5,2.9,6.5,6.5c0,3.6-2.9,6.5-6.5,6.5h-5.7H34.6v-12.9h31.9H72.2z"/>
		<path class="st1" d="M34.6,166.1h31.9c3.6,0,6.5,2.9,6.5,6.5s-2.9,6.5-6.5,6.5h-5.3H0l0-12.9h16.3H34.6z"/>
		<path class="st1" d="M61.2,181.7c3.6,0,6.5,2.9,6.5,6.5c0,3.6-2.9,6.5-6.5,6.5H0l0,1.4h0l0-15.7h0l0,1.4H61.2z"/>
		<path class="st2" d="M16.3,147.7H0h0l0,2.7h0h16.3v12.9H0h0l0,2.7h0h16.3h18.3h31.9c3.6,0,6.5,2.9,6.5,6.5s-2.9,6.5-6.5,6.5h-5.3
			H0h0l0,1.4l0,1.4h61.2c3.6,0,6.5,2.9,6.5,6.5c0,3.6-2.9,6.5-6.5,6.5H0l0,1.4l0,1.4h61.2c5,0,9.2-4.1,9.2-9.2c0-2.6-1-4.9-2.7-6.5
			c4.5-0.5,8.1-4.4,8.1-9.1c0-2.5-1-4.8-2.7-6.5c4.7-0.4,8.4-4.3,8.4-9.1c0-4.8-3.7-8.7-8.4-9.1c1.7-1.7,2.7-4,2.7-6.5
			c0-4.7-3.5-8.6-8.1-9.1c1.7-1.7,2.7-4,2.7-6.5c0-4.6-3.4-8.4-7.8-9.1c1.7-1.7,2.8-4,2.8-6.6c0-5.1-4.1-9.2-9.2-9.2H0l0,2.7h0h56.2
			c3.6,0,6.5,2.9,6.5,6.5c0,3.6-2.9,6.5-6.5,6.5H0h0l0,1.4l0,1.4h56.2h5c3.6,0,6.5,2.9,6.5,6.5s-2.9,6.5-6.5,6.5H0l0,1.4l0,1.4h0
			h61.2h5.3c3.6,0,6.5,2.9,6.5,6.5s-2.9,6.5-6.5,6.5H34.6v-0.2c0-5.1-4.1-9.2-9.2-9.2s-9.2,4.1-9.2,9.2V147.7z M34.6,150.4h31.9h5.7
			c3.6,0,6.5,2.9,6.5,6.5c0,3.6-2.9,6.5-6.5,6.5h-5.7H34.6V150.4z"/>
	</g>
	<g id="bee4-3">
		<g id="l-wing_8_">
			<path id="l-wing-in_8_" class="st3" d="M98.5,148.5c0,2.3,1.9,4.1,4.1,4.1s4.1-1.9,4.1-4.1c0-2,0-4.9,0-6.5
				C103.7,142.3,98.5,144.3,98.5,148.5z"/>
			<path id="l-wing-out_8_" class="st2" d="M107.8,139.8c-2.9,0-11.3,2.1-11.3,8.6c0,3.4,2.8,6.2,6.2,6.2s6.2-2.8,6.2-6.2
				c0-2.8,0-7.6,0-7.6C108.8,140.3,108.4,139.8,107.8,139.8z M102.7,152.6c-2.3,0-4.1-1.9-4.1-4.1c0-4.1,5.2-6.1,8.2-6.5
				c0,1.6,0,4.5,0,6.5C106.8,150.7,104.9,152.6,102.7,152.6z"/>
		</g>
		<g id="r-wing_8_">
			<path id="r-wing-in_8_" class="st3" d="M124.2,141.9c0,1.6,0,4.5,0,6.5c0,2.3,1.9,4.1,4.1,4.1s4.1-1.9,4.1-4.1
				C132.5,144.3,127.2,142.3,124.2,141.9z"/>
			<path id="r-wing-out_8_" class="st2" d="M123.2,139.8c-0.6,0-1,0.5-1,1c0,0,0,4.8,0,7.6c0,3.4,2.8,6.2,6.2,6.2
				c3.4,0,6.2-2.8,6.2-6.2C134.5,141.9,126.1,139.8,123.2,139.8z M128.3,152.6c-2.3,0-4.1-1.9-4.1-4.1c0-2,0-4.9,0-6.5
				c3,0.4,8.2,2.4,8.2,6.5C132.5,150.7,130.6,152.6,128.3,152.6z"/>
		</g>
		<g id="body_8_">
			<path id="yellow-stripe_8_" class="st1" d="M108.8,149.7c0,0.9,0.2,1.7,0.5,2.5h12.4c0.3-0.8,0.5-1.6,0.5-2.5v-0.3h-13.3V149.7z"
				/>
			<path id="right-eye_8_" class="st3" d="M119.1,136.6c0,0.8,0.7,1.5,1.5,1.5c0.8,0,1.5-0.7,1.5-1.5c0-2.3-1.2-4.3-3-5.5V136.6z"/>
			<path id="head_8_" class="st1" d="M117.1,136.6v-6.4c-0.5-0.1-1-0.2-1.6-0.2c-0.6,0-1.1,0.1-1.6,0.2v6.4c0,2-1.6,3.6-3.6,3.6
				c-0.5,0-1.1-0.1-1.5-0.3v2.8h13.3v-2.8c-0.5,0.2-1,0.3-1.5,0.3C118.7,140.2,117.1,138.6,117.1,136.6z"/>
			<path id="left-eye_8_" class="st3" d="M110.3,138.1c0.8,0,1.5-0.7,1.5-1.5v-5.5c-1.8,1.2-3,3.2-3,5.5
				C108.8,137.5,109.5,138.1,110.3,138.1z"/>
			<path id="outline_8_" class="st2" d="M124.2,136.5c-0.1-3.4-2.1-6.3-5.1-7.7v-3.6c0-0.8,0.7-1.5,1.5-1.5c0.8,0,1.5,0.7,1.5,1.5
				c0,0.6,0.5,1,1,1s1-0.5,1-1c0-2-1.6-3.6-3.6-3.6c-2,0-3.6,1.6-3.6,3.6v2.9c-0.5-0.1-1.1-0.1-1.6-0.1c-0.5,0-1.1,0.1-1.6,0.1v-2.9
				c0-2-1.6-3.6-3.6-3.6s-3.6,1.6-3.6,3.6c0,0.6,0.5,1,1,1s1-0.5,1-1c0-0.8,0.7-1.5,1.5-1.5s1.5,0.7,1.5,1.5v3.6
				c-2.9,1.4-5,4.3-5.1,7.7c0,0,0,0.1,0,0.1c0,0,0,0,0,0c0,0,0,0.1,0,0.1v6.8c0,0.1,0,0.1,0,0.2c0,0.1,0,0.1,0,0.2v4.5
				c0,0.1,0,0.1,0,0.2c0,0.1,0,0.1,0,0.2v1.1c0,1.4,0.3,2.7,0.9,3.9c0,0.1,0.1,0.2,0.1,0.2c1.3,2.5,3.8,4.2,6.7,4.6v1.5
				c0,0.6,0.5,1,1,1s1-0.5,1-1v-1.5c4.3-0.5,7.7-4.2,7.7-8.7v-13c0,0,0-0.1,0-0.1c0,0,0,0,0,0C124.2,136.6,124.2,136.5,124.2,136.5z
				 M119.1,131.1c1.8,1.2,3,3.2,3,5.5c0,0.8-0.7,1.5-1.5,1.5c-0.8,0-1.5-0.7-1.5-1.5V131.1z M111.8,131.1v5.5c0,0.8-0.7,1.5-1.5,1.5
				c-0.8,0-1.5-0.7-1.5-1.5C108.8,134.3,110,132.3,111.8,131.1z M122.2,149.7c0,0.9-0.2,1.7-0.5,2.5h-12.4c-0.3-0.8-0.5-1.6-0.5-2.5
				v-0.3h13.3V149.7z M122.2,142.6h-13.3v-2.8c0.5,0.2,1,0.3,1.5,0.3c2,0,3.6-1.6,3.6-3.6v-6.4c0.5-0.1,1-0.2,1.6-0.2
				c0.6,0,1.1,0.1,1.6,0.2v6.4c0,2,1.6,3.6,3.6,3.6c0.5,0,1.1-0.1,1.5-0.3V142.6z"/>
		</g>
	</g>
	<path id="heart_2_" class="st4" d="M145.9,125.7c0-2.2-1.8-4-4-4c-2.2,0-4,1.8-4,4l0,0l0,0l0,0c0-2.2-1.8-4-4-4c-2.2,0-4,1.8-4,4
		c0,5.1,8.1,9.7,8.1,9.7S145.9,130.9,145.9,125.7z"/>
	<g id="bee4-2">
		<g id="l-wing_7_">
			<path id="l-wing-in_7_" class="st3" d="M152.8,97.1c0,2.3,1.9,4.1,4.1,4.1s4.1-1.9,4.1-4.1c0-2,0-4.9,0-6.5
				C158.1,91,152.8,93,152.8,97.1z"/>
			<path id="l-wing-out_7_" class="st2" d="M162.1,88.4c-2.9,0-11.3,2.1-11.3,8.6c0,3.4,2.8,6.2,6.2,6.2c3.4,0,6.2-2.8,6.2-6.2
				c0-2.8,0-7.6,0-7.6C163.1,88.9,162.7,88.4,162.1,88.4z M157,101.2c-2.3,0-4.1-1.9-4.1-4.1c0-4.1,5.2-6.1,8.2-6.5
				c0,1.6,0,4.5,0,6.5C161.1,99.4,159.3,101.2,157,101.2z"/>
		</g>
		<g id="r-wing_7_">
			<path id="r-wing-in_7_" class="st3" d="M178.6,90.6c0,1.6,0,4.5,0,6.5c0,2.3,1.9,4.1,4.1,4.1s4.1-1.9,4.1-4.1
				C186.8,93,181.6,91,178.6,90.6z"/>
			<path id="r-wing-out_7_" class="st2" d="M177.5,88.4c-0.6,0-1,0.5-1,1c0,0,0,4.8,0,7.6c0,3.4,2.8,6.2,6.2,6.2s6.2-2.8,6.2-6.2
				C188.9,90.6,180.4,88.4,177.5,88.4z M182.7,101.2c-2.3,0-4.1-1.9-4.1-4.1c0-2,0-4.9,0-6.5c3,0.4,8.2,2.4,8.2,6.5
				C186.8,99.4,184.9,101.2,182.7,101.2z"/>
		</g>
		<g id="body_7_">
			<path id="yellow-stripe_7_" class="st1" d="M163.1,98.4c0,0.9,0.2,1.7,0.5,2.5H176c0.3-0.8,0.5-1.6,0.5-2.5v-0.3h-13.3V98.4z"/>
			<path id="right-eye_7_" class="st3" d="M173.5,85.2c0,0.8,0.7,1.5,1.5,1.5c0.8,0,1.5-0.7,1.5-1.5c0-2.3-1.2-4.3-3-5.5V85.2z"/>
			<path id="head_7_" class="st1" d="M171.4,85.2v-6.4c-0.5-0.1-1-0.2-1.6-0.2c-0.6,0-1.1,0.1-1.6,0.2v6.4c0,2-1.6,3.6-3.6,3.6
				c-0.5,0-1.1-0.1-1.5-0.3v2.8h13.3v-2.8c-0.5,0.2-1,0.3-1.5,0.3C173,88.8,171.4,87.2,171.4,85.2z"/>
			<path id="left-eye_7_" class="st3" d="M164.7,86.7c0.8,0,1.5-0.7,1.5-1.5v-5.5c-1.8,1.2-3,3.2-3,5.5
				C163.2,86.1,163.8,86.7,164.7,86.7z"/>
			<path id="outline_7_" class="st2" d="M178.5,85.1c-0.1-3.4-2.1-6.3-5.1-7.7v-3.6c0-0.8,0.7-1.5,1.5-1.5c0.8,0,1.5,0.7,1.5,1.5
				c0,0.6,0.5,1,1,1c0.6,0,1-0.5,1-1c0-2-1.6-3.6-3.6-3.6c-2,0-3.6,1.6-3.6,3.6v2.9c-0.5-0.1-1.1-0.1-1.6-0.1
				c-0.5,0-1.1,0.1-1.6,0.1v-2.9c0-2-1.6-3.6-3.6-3.6c-2,0-3.6,1.6-3.6,3.6c0,0.6,0.5,1,1,1c0.6,0,1-0.5,1-1c0-0.8,0.7-1.5,1.5-1.5
				s1.5,0.7,1.5,1.5v3.6c-2.9,1.4-5,4.3-5.1,7.7c0,0,0,0.1,0,0.1c0,0,0,0,0,0c0,0,0,0.1,0,0.1v6.8c0,0.1,0,0.1,0,0.2s0,0.1,0,0.2
				v4.5c0,0.1,0,0.1,0,0.2s0,0.1,0,0.2v1.1c0,1.4,0.3,2.7,0.9,3.9c0,0.1,0.1,0.2,0.1,0.2c1.3,2.5,3.8,4.2,6.7,4.6v1.5
				c0,0.6,0.5,1,1,1c0.6,0,1-0.5,1-1V107c4.3-0.5,7.7-4.2,7.7-8.7v-13c0,0,0-0.1,0-0.1c0,0,0,0,0,0
				C178.5,85.2,178.5,85.2,178.5,85.1z M173.5,79.8c1.8,1.2,3,3.2,3,5.5c0,0.8-0.7,1.5-1.5,1.5c-0.8,0-1.5-0.7-1.5-1.5V79.8z
				 M166.2,79.8v5.5c0,0.8-0.7,1.5-1.5,1.5c-0.8,0-1.5-0.7-1.5-1.5C163.2,83,164.4,81,166.2,79.8z M176.5,98.4
				c0,0.9-0.2,1.7-0.5,2.5h-12.4c-0.3-0.8-0.5-1.6-0.5-2.5v-0.3h13.3V98.4z M176.5,91.2h-13.3v-2.8c0.5,0.2,1,0.3,1.5,0.3
				c2,0,3.6-1.6,3.6-3.6v-6.4c0.5-0.1,1-0.2,1.6-0.2c0.6,0,1.1,0.1,1.6,0.2v6.4c0,2,1.6,3.6,3.6,3.6c0.5,0,1.1-0.1,1.5-0.3V91.2z"/>
		</g>
	</g>
	<path id="heart" class="st4" d="M200.3,74.3c0-2.2-1.8-4-4-4s-4,1.8-4,4l0,0l0,0l0,0c0-2.2-1.8-4-4-4c-2.2,0-4,1.8-4,4
		c0,5.1,8.1,9.7,8.1,9.7S200.3,79.5,200.3,74.3z"/>
	<g id="bee4-1">
		<g id="l-wing_6_">
			<path id="l-wing-in_6_" class="st3" d="M84.8,66.2c0,2.3,1.9,4.1,4.1,4.1c2.3,0,4.1-1.9,4.1-4.1c0-2,0-4.9,0-6.5
				C90.1,60.1,84.8,62.1,84.8,66.2z"/>
			<path id="l-wing-out_6_" class="st2" d="M94.1,57.6c-2.9,0-11.3,2.1-11.3,8.6c0,3.4,2.8,6.2,6.2,6.2s6.2-2.8,6.2-6.2
				c0-2.8,0-7.6,0-7.6C95.1,58,94.7,57.6,94.1,57.6z M89,70.4c-2.3,0-4.1-1.9-4.1-4.1c0-4.1,5.2-6.1,8.2-6.5c0,1.6,0,4.5,0,6.5
				C93.1,68.5,91.3,70.4,89,70.4z"/>
		</g>
		<g id="r-wing_6_">
			<path id="r-wing-in_6_" class="st3" d="M110.5,59.7c0,1.6,0,4.5,0,6.5c0,2.3,1.9,4.1,4.1,4.1c2.3,0,4.1-1.9,4.1-4.1
				C118.8,62.1,113.6,60.1,110.5,59.7z"/>
			<path id="r-wing-out_6_" class="st2" d="M109.5,57.6c-0.6,0-1,0.5-1,1c0,0,0,4.8,0,7.6c0,3.4,2.8,6.2,6.2,6.2
				c3.4,0,6.2-2.8,6.2-6.2C120.8,59.7,112.4,57.6,109.5,57.6z M114.7,70.4c-2.3,0-4.1-1.9-4.1-4.1c0-2,0-4.9,0-6.5
				c3,0.4,8.2,2.4,8.2,6.5C118.8,68.5,116.9,70.4,114.7,70.4z"/>
		</g>
		<g id="body_6_">
			<path id="yellow-stripe_6_" class="st1" d="M95.1,67.5c0,0.9,0.2,1.7,0.5,2.5H108c0.3-0.8,0.5-1.6,0.5-2.5v-0.3H95.1V67.5z"/>
			<path id="right-eye_6_" class="st3" d="M105.5,54.4c0,0.8,0.7,1.5,1.5,1.5c0.8,0,1.5-0.7,1.5-1.5c0-2.3-1.2-4.3-3-5.5V54.4z"/>
			<path id="head_6_" class="st1" d="M103.4,54.4V48c-0.5-0.1-1-0.2-1.6-0.2c-0.6,0-1.1,0.1-1.6,0.2v6.4c0,2-1.6,3.6-3.6,3.6
				c-0.5,0-1.1-0.1-1.5-0.3v2.8h13.3v-2.8c-0.5,0.2-1,0.3-1.5,0.3C105,57.9,103.4,56.3,103.4,54.4z"/>
			<path id="left-eye_6_" class="st3" d="M96.6,55.9c0.8,0,1.5-0.7,1.5-1.5v-5.5c-1.8,1.2-3,3.2-3,5.5
				C95.2,55.2,95.8,55.9,96.6,55.9z"/>
			<path id="outline_6_" class="st2" d="M110.5,54.3c-0.1-3.4-2.1-6.3-5.1-7.7V43c0-0.8,0.7-1.5,1.5-1.5c0.8,0,1.5,0.7,1.5,1.5
				c0,0.6,0.5,1,1,1s1-0.5,1-1c0-2-1.6-3.6-3.6-3.6c-2,0-3.6,1.6-3.6,3.6v2.9c-0.5-0.1-1.1-0.1-1.6-0.1c-0.5,0-1.1,0.1-1.6,0.1V43
				c0-2-1.6-3.6-3.6-3.6c-2,0-3.6,1.6-3.6,3.6c0,0.6,0.5,1,1,1s1-0.5,1-1c0-0.8,0.7-1.5,1.5-1.5c0.8,0,1.5,0.7,1.5,1.5v3.6
				c-2.9,1.4-5,4.3-5.1,7.7c0,0,0,0.1,0,0.1c0,0,0,0,0,0c0,0,0,0.1,0,0.1v6.8c0,0.1,0,0.1,0,0.2c0,0.1,0,0.1,0,0.2v4.5
				c0,0.1,0,0.1,0,0.2s0,0.1,0,0.2v1.1c0,1.4,0.3,2.7,0.9,3.9c0,0.1,0.1,0.2,0.1,0.2c1.3,2.5,3.8,4.2,6.7,4.6v1.5c0,0.6,0.5,1,1,1
				c0.6,0,1-0.5,1-1v-1.5c4.3-0.5,7.7-4.2,7.7-8.7v-13c0,0,0-0.1,0-0.1c0,0,0,0,0,0C110.5,54.3,110.5,54.3,110.5,54.3z M105.5,48.9
				c1.8,1.2,3,3.2,3,5.5c0,0.8-0.7,1.5-1.5,1.5c-0.8,0-1.5-0.7-1.5-1.5V48.9z M98.2,48.9v5.5c0,0.8-0.7,1.5-1.5,1.5
				c-0.8,0-1.5-0.7-1.5-1.5C95.2,52.1,96.4,50.1,98.2,48.9z M108.5,67.5c0,0.9-0.2,1.7-0.5,2.5H95.6c-0.3-0.8-0.5-1.6-0.5-2.5v-0.3
				h13.3V67.5z M108.5,60.4H95.1v-2.8c0.5,0.2,1,0.3,1.5,0.3c2,0,3.6-1.6,3.6-3.6V48c0.5-0.1,1-0.2,1.6-0.2c0.6,0,1.1,0.1,1.6,0.2
				v6.4c0,2,1.6,3.6,3.6,3.6c0.5,0,1.1-0.1,1.5-0.3V60.4z"/>
		</g>
	</g>
	<path id="heart_1_" class="st4" d="M132.3,43.5c0-2.2-1.8-4-4-4s-4,1.8-4,4l0,0l0,0l0,0c0-2.2-1.8-4-4-4s-4,1.8-4,4
		c0,5.1,8.1,9.7,8.1,9.7S132.3,48.6,132.3,43.5z"/>
</g>
<g id="info3">
	<rect id="bg_2_" x="0" y="0" class="st0" width="319.4" height="197.4"/>
	<g id="bee3-1">
		<g id="l-wing_3_">
			<path id="l-wing-in_3_" class="st3" d="M164.5,168.2c2.3,0,4.1-1.9,4.1-4.1c0-2.3-1.9-4.1-4.1-4.1c-2,0-4.9,0-6.5,0
				C158.4,162.9,160.4,168.2,164.5,168.2z"/>
			<path id="l-wing-out_3_" class="st2" d="M155.9,158.9c0,2.9,2.1,11.3,8.6,11.3c3.4,0,6.2-2.8,6.2-6.2c0-3.4-2.8-6.2-6.2-6.2
				c-2.8,0-7.6,0-7.6,0C156.4,157.9,155.9,158.3,155.9,158.9z M168.7,164c0,2.3-1.9,4.1-4.1,4.1c-4.1,0-6.1-5.2-6.5-8.2
				c1.6,0,4.5,0,6.5,0C166.8,159.9,168.7,161.8,168.7,164z"/>
		</g>
		<g id="r-wing_3_">
			<path id="r-wing-in_3_" class="st3" d="M158,142.5c1.6,0,4.5,0,6.5,0c2.3,0,4.1-1.9,4.1-4.1c0-2.3-1.9-4.1-4.1-4.1
				C160.4,134.2,158.4,139.5,158,142.5z"/>
			<path id="r-wing-out_3_" class="st2" d="M155.9,143.5c0,0.6,0.5,1,1,1c0,0,4.8,0,7.6,0c3.4,0,6.2-2.8,6.2-6.2
				c0-3.4-2.8-6.2-6.2-6.2C158,132.2,155.9,140.6,155.9,143.5z M168.7,138.4c0,2.3-1.9,4.1-4.1,4.1c-2,0-4.9,0-6.5,0
				c0.4-3,2.4-8.2,6.5-8.2C166.8,134.2,168.7,136.1,168.7,138.4z"/>
		</g>
		<g id="body_3_">
			<path id="yellow-stripe_3_" class="st5" d="M165.8,157.9c0.9,0,1.7-0.2,2.5-0.5V145c-0.8-0.3-1.6-0.5-2.5-0.5h-0.3v13.3H165.8z"
				/>
			<path id="right-eye_3_" class="st5" d="M152.7,147.6c0.8,0,1.5-0.7,1.5-1.5c0-0.8-0.7-1.5-1.5-1.5c-2.3,0-4.3,1.2-5.5,3H152.7z"
				/>
			<path id="head_3_" class="st5" d="M152.7,149.6h-6.4c-0.1,0.5-0.2,1-0.2,1.6c0,0.6,0.1,1.1,0.2,1.6h6.4c2,0,3.6,1.6,3.6,3.6
				c0,0.5-0.1,1.1-0.3,1.5h2.8v-13.3h-2.8c0.2,0.5,0.3,1,0.3,1.5C156.3,148,154.7,149.6,152.7,149.6z"/>
			<path id="left-eye_3_" class="st5" d="M154.2,156.4c0-0.8-0.7-1.5-1.5-1.5h-5.5c1.2,1.8,3.2,3,5.5,3
				C153.5,157.9,154.2,157.2,154.2,156.4z"/>
			<path id="outline_3_" class="st2" d="M152.6,142.5c-3.4,0.1-6.3,2.1-7.7,5.1h-3.6c-0.8,0-1.5-0.7-1.5-1.5c0-0.8,0.7-1.5,1.5-1.5
				c0.6,0,1-0.5,1-1c0-0.6-0.5-1-1-1c-2,0-3.6,1.6-3.6,3.6c0,2,1.6,3.6,3.6,3.6h2.9c-0.1,0.5-0.1,1.1-0.1,1.6c0,0.5,0.1,1.1,0.1,1.6
				h-2.9c-2,0-3.6,1.6-3.6,3.6s1.6,3.6,3.6,3.6c0.6,0,1-0.5,1-1c0-0.6-0.5-1-1-1c-0.8,0-1.5-0.7-1.5-1.5s0.7-1.5,1.5-1.5h3.6
				c1.4,2.9,4.3,5,7.7,5.1c0,0,0.1,0,0.1,0c0,0,0,0,0,0c0,0,0.1,0,0.1,0h6.8c0.1,0,0.1,0,0.2,0c0.1,0,0.1,0,0.2,0h4.5
				c0.1,0,0.1,0,0.2,0c0.1,0,0.1,0,0.2,0h1.1c1.4,0,2.7-0.3,3.9-0.9c0.1,0,0.2-0.1,0.2-0.1c2.5-1.3,4.2-3.8,4.6-6.7h1.5
				c0.6,0,1-0.5,1-1s-0.5-1-1-1h-1.5c-0.5-4.3-4.2-7.7-8.7-7.7h-13c0,0-0.1,0-0.1,0c0,0,0,0,0,0
				C152.7,142.5,152.6,142.5,152.6,142.5z M147.2,147.6c1.2-1.8,3.2-3,5.5-3c0.8,0,1.5,0.7,1.5,1.5c0,0.8-0.7,1.5-1.5,1.5H147.2z
				 M147.2,154.9h5.5c0.8,0,1.5,0.7,1.5,1.5c0,0.8-0.7,1.5-1.5,1.5C150.4,157.9,148.4,156.7,147.2,154.9z M165.8,144.5
				c0.9,0,1.7,0.2,2.5,0.5v12.4c-0.8,0.3-1.6,0.5-2.5,0.5h-0.3v-13.3H165.8z M158.7,144.5v13.3h-2.8c0.2-0.5,0.3-1,0.3-1.5
				c0-2-1.6-3.6-3.6-3.6h-6.4c-0.1-0.5-0.2-1-0.2-1.6c0-0.6,0.1-1.1,0.2-1.6h6.4c2,0,3.6-1.6,3.6-3.6c0-0.5-0.1-1.1-0.3-1.5H158.7z"
				/>
		</g>
	</g>
	<g id="bee3-2">
		<g id="l-wing_4_">
			<path id="l-wing-in_4_" class="st3" d="M244,116.4c2.3,0,4.1-1.9,4.1-4.1c0-2.3-1.9-4.1-4.1-4.1c-2,0-4.9,0-6.5,0
				C237.9,111.2,239.9,116.4,244,116.4z"/>
			<path id="l-wing-out_4_" class="st2" d="M235.3,107.2c0,2.9,2.1,11.3,8.6,11.3c3.4,0,6.2-2.8,6.2-6.2c0-3.4-2.8-6.2-6.2-6.2
				c-2.8,0-7.6,0-7.6,0C235.8,106.1,235.3,106.6,235.3,107.2z M248.1,112.3c0,2.3-1.9,4.1-4.1,4.1c-4.1,0-6.1-5.2-6.5-8.2
				c1.6,0,4.5,0,6.5,0C246.3,108.2,248.1,110,248.1,112.3z"/>
		</g>
		<g id="r-wing_4_">
			<path id="r-wing-in_4_" class="st3" d="M237.5,90.7c1.6,0,4.5,0,6.5,0c2.3,0,4.1-1.9,4.1-4.1c0-2.3-1.9-4.1-4.1-4.1
				C239.9,82.5,237.9,87.7,237.5,90.7z"/>
			<path id="r-wing-out_4_" class="st2" d="M235.3,91.7c0,0.6,0.5,1,1,1c0,0,4.8,0,7.6,0c3.4,0,6.2-2.8,6.2-6.2
				c0-3.4-2.8-6.2-6.2-6.2C237.5,80.4,235.3,88.8,235.3,91.7z M248.1,86.6c0,2.3-1.9,4.1-4.1,4.1c-2,0-4.9,0-6.5,0
				c0.4-3,2.4-8.2,6.5-8.2C246.3,82.5,248.1,84.3,248.1,86.6z"/>
		</g>
		<g id="body_4_">
			<path id="yellow-stripe_4_" class="st5" d="M245.3,106.1c0.9,0,1.7-0.2,2.5-0.5V93.3c-0.8-0.3-1.6-0.5-2.5-0.5H245v13.3H245.3z"
				/>
			<path id="right-eye_4_" class="st3" d="M232.1,95.8c0.8,0,1.5-0.7,1.5-1.5c0-0.8-0.7-1.5-1.5-1.5c-2.3,0-4.3,1.2-5.5,3H232.1z"/>
			<path id="head_4_" class="st5" d="M232.1,97.9h-6.4c-0.1,0.5-0.2,1-0.2,1.6c0,0.6,0.1,1.1,0.2,1.6h6.4c2,0,3.6,1.6,3.6,3.6
				c0,0.5-0.1,1.1-0.3,1.5h2.8V92.8h-2.8c0.2,0.5,0.3,1,0.3,1.5C235.7,96.3,234.1,97.9,232.1,97.9z"/>
			<path id="left-eye_4_" class="st3" d="M233.6,104.6c0-0.8-0.7-1.5-1.5-1.5h-5.5c1.2,1.8,3.2,3,5.5,3
				C233,106.1,233.6,105.4,233.6,104.6z"/>
			<path id="outline_4_" class="st2" d="M232,90.7c-3.4,0.1-6.3,2.1-7.7,5.1h-3.6c-0.8,0-1.5-0.7-1.5-1.5c0-0.8,0.7-1.5,1.5-1.5
				c0.6,0,1-0.5,1-1s-0.5-1-1-1c-2,0-3.6,1.6-3.6,3.6c0,2,1.6,3.6,3.6,3.6h2.9c-0.1,0.5-0.1,1.1-0.1,1.6c0,0.5,0.1,1.1,0.1,1.6h-2.9
				c-2,0-3.6,1.6-3.6,3.6c0,2,1.6,3.6,3.6,3.6c0.6,0,1-0.5,1-1s-0.5-1-1-1c-0.8,0-1.5-0.7-1.5-1.5c0-0.8,0.7-1.5,1.5-1.5h3.6
				c1.4,2.9,4.3,5,7.7,5.1c0,0,0.1,0,0.1,0c0,0,0,0,0,0c0,0,0.1,0,0.1,0h6.8c0.1,0,0.1,0,0.2,0c0.1,0,0.1,0,0.2,0h4.5
				c0.1,0,0.1,0,0.2,0c0.1,0,0.1,0,0.2,0h1.1c1.4,0,2.7-0.3,3.9-0.9c0.1,0,0.2-0.1,0.2-0.1c2.5-1.3,4.2-3.8,4.6-6.7h1.5
				c0.6,0,1-0.5,1-1c0-0.6-0.5-1-1-1h-1.5c-0.5-4.3-4.2-7.7-8.7-7.7h-13c0,0-0.1,0-0.1,0c0,0,0,0,0,0
				C232.1,90.7,232.1,90.7,232,90.7z M226.7,95.8c1.2-1.8,3.2-3,5.5-3c0.8,0,1.5,0.7,1.5,1.5c0,0.8-0.7,1.5-1.5,1.5H226.7z
				 M226.7,103.1h5.5c0.8,0,1.5,0.7,1.5,1.5c0,0.8-0.7,1.5-1.5,1.5C229.9,106.1,227.9,104.9,226.7,103.1z M245.3,92.8
				c0.9,0,1.7,0.2,2.5,0.5v12.4c-0.8,0.3-1.6,0.5-2.5,0.5H245V92.8H245.3z M238.1,92.8v13.3h-2.8c0.2-0.5,0.3-1,0.3-1.5
				c0-2-1.6-3.6-3.6-3.6h-6.4c-0.1-0.5-0.2-1-0.2-1.6c0-0.6,0.1-1.1,0.2-1.6h6.4c2,0,3.6-1.6,3.6-3.6c0-0.5-0.1-1.1-0.3-1.5H238.1z"
				/>
		</g>
	</g>
	<g id="bee3-3">
		<g id="l-wing_5_">
			<path id="l-wing-in_5_" class="st3" d="M302.6,74.5c2.3,0,4.1-1.9,4.1-4.1s-1.9-4.1-4.1-4.1c-2,0-4.9,0-6.5,0
				C296.5,69.3,298.5,74.5,302.6,74.5z"/>
			<path id="l-wing-out_5_" class="st2" d="M293.9,65.2c0,2.9,2.1,11.3,8.6,11.3c3.4,0,6.2-2.8,6.2-6.2s-2.8-6.2-6.2-6.2
				c-2.8,0-7.6,0-7.6,0C294.4,64.2,293.9,64.7,293.9,65.2z M306.7,70.4c0,2.3-1.9,4.1-4.1,4.1c-4.1,0-6.1-5.2-6.5-8.2
				c1.6,0,4.5,0,6.5,0C304.9,66.2,306.7,68.1,306.7,70.4z"/>
		</g>
		<g id="r-wing_5_">
			<path id="r-wing-in_5_" class="st3" d="M296.1,48.8c1.6,0,4.5,0,6.5,0c2.3,0,4.1-1.9,4.1-4.1s-1.9-4.1-4.1-4.1
				C298.5,40.5,296.5,45.8,296.1,48.8z"/>
			<path id="r-wing-out_5_" class="st2" d="M293.9,49.8c0,0.6,0.5,1,1,1c0,0,4.8,0,7.6,0c3.4,0,6.2-2.8,6.2-6.2
				c0-3.4-2.8-6.2-6.2-6.2C296.1,38.5,293.9,46.9,293.9,49.8z M306.7,44.7c0,2.3-1.9,4.1-4.1,4.1c-2,0-4.9,0-6.5,0
				c0.4-3,2.4-8.2,6.5-8.2C304.9,40.5,306.7,42.4,306.7,44.7z"/>
		</g>
		<g id="body_5_">
			<path id="yellow-stripe_5_" class="st1" d="M303.9,64.2c0.9,0,1.7-0.2,2.5-0.5V51.3c-0.8-0.3-1.6-0.5-2.5-0.5h-0.3v13.3H303.9z"
				/>
			<path id="right-eye_5_" class="st3" d="M290.7,53.9c0.8,0,1.5-0.7,1.5-1.5c0-0.8-0.7-1.5-1.5-1.5c-2.3,0-4.3,1.2-5.5,3H290.7z"/>
			<path id="head_5_" class="st1" d="M290.7,55.9h-6.4c-0.1,0.5-0.2,1-0.2,1.6c0,0.6,0.1,1.1,0.2,1.6h6.4c2,0,3.6,1.6,3.6,3.6
				c0,0.5-0.1,1.1-0.3,1.5h2.8V50.9H294c0.2,0.5,0.3,1,0.3,1.5C294.3,54.3,292.7,55.9,290.7,55.9z"/>
			<path id="left-eye_5_" class="st3" d="M292.2,62.7c0-0.8-0.7-1.5-1.5-1.5h-5.5c1.2,1.8,3.2,3,5.5,3
				C291.6,64.2,292.2,63.5,292.2,62.7z"/>
			<path id="outline_5_" class="st2" d="M290.6,48.8c-3.4,0.1-6.3,2.1-7.7,5.1h-3.6c-0.8,0-1.5-0.7-1.5-1.5c0-0.8,0.7-1.5,1.5-1.5
				c0.6,0,1-0.5,1-1c0-0.6-0.5-1-1-1c-2,0-3.6,1.6-3.6,3.6c0,2,1.6,3.6,3.6,3.6h2.9c-0.1,0.5-0.1,1.1-0.1,1.6c0,0.5,0.1,1.1,0.1,1.6
				h-2.9c-2,0-3.6,1.6-3.6,3.6c0,2,1.6,3.6,3.6,3.6c0.6,0,1-0.5,1-1s-0.5-1-1-1c-0.8,0-1.5-0.7-1.5-1.5c0-0.8,0.7-1.5,1.5-1.5h3.6
				c1.4,2.9,4.3,5,7.7,5.1c0,0,0.1,0,0.1,0c0,0,0,0,0,0c0,0,0.1,0,0.1,0h6.8c0.1,0,0.1,0,0.2,0s0.1,0,0.2,0h4.5c0.1,0,0.1,0,0.2,0
				s0.1,0,0.2,0h1.1c1.4,0,2.7-0.3,3.9-0.9c0.1,0,0.2-0.1,0.2-0.1c2.5-1.3,4.2-3.8,4.6-6.7h1.5c0.6,0,1-0.5,1-1c0-0.6-0.5-1-1-1
				h-1.5c-0.5-4.3-4.2-7.7-8.7-7.7h-13c0,0-0.1,0-0.1,0c0,0,0,0,0,0C290.7,48.8,290.7,48.8,290.6,48.8z M285.3,53.9
				c1.2-1.8,3.2-3,5.5-3c0.8,0,1.5,0.7,1.5,1.5c0,0.8-0.7,1.5-1.5,1.5H285.3z M285.3,61.2h5.5c0.8,0,1.5,0.7,1.5,1.5
				c0,0.8-0.7,1.5-1.5,1.5C288.5,64.2,286.4,63,285.3,61.2z M303.9,50.9c0.9,0,1.7,0.2,2.5,0.5v12.4c-0.8,0.3-1.6,0.5-2.5,0.5h-0.3
				V50.9H303.9z M296.7,50.9v13.3H294c0.2-0.5,0.3-1,0.3-1.5c0-2-1.6-3.6-3.6-3.6h-6.4c-0.1-0.5-0.2-1-0.2-1.6
				c0-0.6,0.1-1.1,0.2-1.6h6.4c2,0,3.6-1.6,3.6-3.6c0-0.5-0.1-1.1-0.3-1.5H296.7z"/>
		</g>
	</g>
	
	
	<g id="spraycan">
		<g id="nozzle">
			<path class="st7" d="M77.3,27.5c-0.6-1-1.5-1.7-2.6-2l-11-3c-0.4-0.1-0.7-0.1-1.1-0.1h0c-1.9,0-3.7,1.3-4.2,3.2l-3.7,13.8
				c-0.3,1.1-0.1,2.3,0.4,3.3c0.6,1,1.5,1.7,2.6,2l0,0l-4.5,17l11.1,3l4.6-17c0.4,0.1,0.7,0.1,1.1,0.1c1.9,0,3.7-1.3,4.2-3.2
				l0.6-2.1c0.5-1.8-0.4-3.8-2.1-4.7c-0.3-0.2-0.6-0.6-0.5-1.1c0.1-0.5,0.6-0.7,0.9-0.7l0,0l0.1,0c1.9,0,3.5-1.2,4-3l0.6-2.1
				C78,29.6,77.9,28.5,77.3,27.5z M74.8,30l-0.6,2.1c-0.1,0.5-0.6,0.8-1.1,0.8c0,0,0,0,0,0c0,0-0.1,0-0.1,0c-1.8,0-3.4,1.2-3.8,2.9
				c-0.5,1.8,0.4,3.7,2,4.5c0.5,0.3,0.7,0.8,0.6,1.3l-0.6,2.1c-0.2,0.6-0.7,1-1.3,1c-0.1,0-0.2,0-0.3,0l-11-3
				c-0.7-0.2-1.1-0.9-0.9-1.6l3.7-13.8c0.2-0.6,0.7-1,1.3-1c0.1,0,0.2,0,0.3,0l11,3C74.6,28.6,75,29.3,74.8,30z"/>
			<path class="st1" d="M69.1,35.8c0.5-1.8,2.2-3,4-2.9c0.5,0,1-0.3,1.2-0.8l0.6-2.1c0.2-0.7-0.2-1.4-0.9-1.6l-11-3
				c-0.7-0.2-1.4,0.2-1.6,0.9l-3.7,13.8c-0.2,0.7,0.2,1.4,0.9,1.6l11,3c0.7,0.2,1.4-0.2,1.6-0.9l0.6-2.1c0.1-0.5-0.1-1-0.6-1.3
				C69.5,39.5,68.6,37.6,69.1,35.8z"/>
		</g>
		<g id="spray">
			<g id="bottom">
				<path class="st5" d="M101.9,35.8c-0.1,0-0.2,0-0.3,0l-17.4-1.6c-0.8-0.1-1.4-0.8-1.4-1.6c0.1-0.8,0.8-1.4,1.6-1.4l17.4,1.6
					c0.8,0.1,1.4,0.8,1.4,1.6C103.2,35.2,102.6,35.7,101.9,35.8z"/>
				<path class="st5" d="M183.2,43.3c-0.1,0-0.2,0-0.3,0l-29.1-2.7c-0.8-0.1-1.4-0.8-1.4-1.6c0.1-0.8,0.8-1.4,1.6-1.4l29.1,2.7
					c0.8,0.1,1.4,0.8,1.4,1.6C184.5,42.7,184,43.3,183.2,43.3z M142.6,39.5c-0.1,0-0.2,0-0.3,0l-29.1-2.7c-0.8-0.1-1.4-0.8-1.4-1.6
					c0.1-0.8,0.8-1.4,1.6-1.4l29.1,2.7c0.8,0.1,1.4,0.8,1.4,1.6C143.9,38.9,143.3,39.5,142.6,39.5z"/>
				<path class="st5" d="M212.3,46c-0.1,0-0.2,0-0.3,0l-17.4-1.6c-0.8-0.1-1.4-0.8-1.4-1.6c0.1-0.8,0.8-1.4,1.6-1.4l17.4,1.6
					c0.8,0.1,1.4,0.8,1.4,1.6C213.6,45.4,213,45.9,212.3,46z"/>
			</g>
			<g id="mid">
				<path class="st5" d="M199,102.9c-0.2,0-0.3-0.1-0.5-0.1l-15.9-7.3c-0.8-0.3-1.1-1.2-0.7-2c0.3-0.8,1.2-1.1,2-0.7l15.9,7.3
					c0.8,0.3,1.1,1.2,0.7,2C200.2,102.6,199.6,102.9,199,102.9z"/>
				<path class="st5" d="M172.5,90.7c-0.2,0-0.3-0.1-0.5-0.1l-26.5-12.2c-0.8-0.3-1.1-1.2-0.7-2c0.3-0.8,1.2-1.1,2-0.7l26.5,12.2
					c0.8,0.3,1.1,1.2,0.7,2C173.7,90.4,173.1,90.8,172.5,90.7z M135.3,73.7c-0.2,0-0.3-0.1-0.5-0.1l-26.5-12.2
					c-0.8-0.3-1.1-1.2-0.7-2c0.3-0.8,1.2-1.1,2-0.7l26.5,12.2c0.8,0.3,1.1,1.2,0.7,2C136.6,73.4,136,73.7,135.3,73.7z"/>
				<path class="st5" d="M98.2,56.6c-0.2,0-0.3-0.1-0.5-0.1l-15.9-7.3c-0.8-0.3-1.1-1.2-0.7-2c0.3-0.8,1.2-1.1,2-0.7l15.9,7.3
					c0.8,0.3,1.1,1.2,0.7,2C99.4,56.4,98.8,56.7,98.2,56.6z"/>
			</g>
			<g id="top_1_">
				<path class="st5" d="M100.2,46.1c-0.1,0-0.3,0-0.4-0.1l-16.9-4.5c-0.8-0.2-1.3-1-1.1-1.8c0.2-0.8,1-1.3,1.8-1.1l16.9,4.5
					c0.8,0.2,1.3,1,1.1,1.8C101.5,45.7,100.9,46.1,100.2,46.1z"/>
				<path class="st5" d="M184.6,68.7c-0.1,0-0.3,0-0.4-0.1l-30.1-8.1c-0.8-0.2-1.3-1-1.1-1.8s1-1.3,1.8-1.1l30.1,8.1
					c0.8,0.2,1.3,1,1.1,1.8C185.9,68.3,185.3,68.7,184.6,68.7z M142.4,57.4c-0.1,0-0.3,0-0.4-0.1l-30.1-8.1c-0.8-0.2-1.3-1-1.1-1.8
					c0.2-0.8,1-1.3,1.8-1.1l30.1,8.1c0.8,0.2,1.3,1,1.1,1.8C143.7,57,143.1,57.4,142.4,57.4z"/>
				<path class="st5" d="M213.6,76.5c-0.1,0-0.3,0-0.4-0.1l-16.9-4.5c-0.8-0.2-1.3-1-1.1-1.8c0.2-0.8,1-1.3,1.8-1.1l16.9,4.5
					c0.8,0.2,1.3,1,1.1,1.8C214.8,76.1,214.2,76.5,213.6,76.5z"/>
			</g>
		</g>
		<g id="can_1_">
			<path id="top" class="st1" d="M74.2,61.5c-1.1-1.5-2.3-2.9-3.7-4.1c-0.6-0.5-1.2-0.9-1.8-1.4c-2.1-1.5-4.6-2.7-7.2-3.4l0,0
				c-0.4-0.1-0.9-0.2-1.3-0.3c-0.1,0-0.3-0.1-0.4-0.1c-0.3-0.1-0.6-0.1-1-0.2c-0.1,0-0.3,0-0.4-0.1c-0.4,0-0.7-0.1-1.1-0.1
				c-0.1,0-0.2,0-0.3,0c-0.4,0-0.9,0-1.3,0c-0.1,0-0.2,0-0.2,0c-0.5,0-1.1,0-1.6,0.1c-0.1,0-0.1,0-0.2,0c-0.5,0-1.1,0.1-1.6,0.2
				c-0.1,0-0.2,0-0.3,0.1c-0.5,0.1-1.1,0.2-1.6,0.3c-0.1,0-0.2,0-0.2,0.1c-0.5,0.1-1,0.3-1.5,0.4c-0.1,0-0.1,0-0.2,0.1
				c-0.5,0.2-1,0.4-1.5,0.6c-0.1,0-0.2,0.1-0.3,0.1c-0.5,0.2-1,0.4-1.5,0.7c-0.1,0-0.2,0.1-0.2,0.1c-0.5,0.2-0.9,0.5-1.4,0.8
				c0,0-0.1,0-0.1,0.1c-0.5,0.3-0.9,0.6-1.3,0.9c-0.1,0.1-0.2,0.1-0.3,0.2c-0.4,0.3-0.8,0.7-1.2,1c-0.1,0.1-0.1,0.1-0.2,0.2
				c-0.4,0.4-0.8,0.7-1.2,1.1c0,0,0,0-0.1,0.1c-0.4,0.4-0.7,0.8-1.1,1.2c-0.1,0.1-0.1,0.2-0.2,0.2c-0.3,0.4-0.7,0.9-1,1.3
				c-0.1,0.1-0.1,0.2-0.2,0.2c-0.3,0.5-0.6,0.9-0.9,1.4c0,0,0,0,0,0c-0.3,0.5-0.5,1-0.8,1.5c0,0.1-0.1,0.2-0.1,0.3
				c-0.2,0.5-0.4,1-0.6,1.6c0,0.1-0.1,0.2-0.1,0.3c-0.2,0.6-0.4,1.1-0.5,1.7c0,0.1,0,0.2,0,0.3c0,0,0,0,0,0c0,0.1,0.1,0.2,0.2,0.3
				c0,0,0,0,0,0.1c0.1,0.1,0.2,0.2,0.3,0.3c0,0,0,0,0.1,0c0.1,0.1,0.3,0.2,0.5,0.4c0,0,0,0,0,0c0.2,0.1,0.4,0.3,0.6,0.4
				c0,0,0.1,0,0.1,0.1c0.2,0.1,0.5,0.3,0.7,0.4c0,0,0.1,0,0.1,0.1c0.3,0.1,0.6,0.3,0.9,0.4c0,0,0,0,0.1,0c0.3,0.1,0.6,0.3,1,0.4
				c0,0,0.1,0,0.1,0.1c0.3,0.1,0.7,0.3,1.1,0.4c0.1,0,0.1,0.1,0.2,0.1c0.4,0.1,0.8,0.3,1.1,0.5c0.1,0,0.1,0,0.2,0.1
				c0.4,0.2,0.8,0.3,1.3,0.5c0,0,0,0,0,0c0.4,0.2,0.9,0.3,1.4,0.5c0.1,0,0.2,0.1,0.2,0.1c0.4,0.2,0.9,0.3,1.4,0.5
				c0.1,0,0.2,0.1,0.3,0.1c0.5,0.2,1,0.3,1.4,0.5c0.1,0,0.1,0,0.2,0.1c0.5,0.2,1,0.3,1.5,0.5c0,0,0.1,0,0.1,0c0.5,0.2,1,0.3,1.5,0.5
				c0.1,0,0.2,0.1,0.3,0.1c0.5,0.1,1,0.3,1.5,0.4c0.1,0,0.2,0.1,0.3,0.1c0.5,0.2,1.1,0.3,1.6,0.4c0,0,0.1,0,0.1,0
				c0.5,0.1,1.1,0.3,1.6,0.4c0.1,0,0.1,0,0.2,0.1c0.5,0.1,1.1,0.3,1.6,0.4c0.1,0,0.2,0,0.3,0.1c0.5,0.1,1.1,0.3,1.6,0.4
				c0.1,0,0.1,0,0.2,0c0.5,0.1,1.1,0.3,1.6,0.4c0,0,0,0,0.1,0c0.5,0.1,1,0.2,1.6,0.4c0.1,0,0.2,0,0.2,0.1c0.5,0.1,1,0.2,1.5,0.3
				c0.1,0,0.2,0,0.3,0.1c0.5,0.1,1,0.2,1.5,0.3c0,0,0.1,0,0.1,0c0.5,0.1,0.9,0.2,1.4,0.3c0.1,0,0.1,0,0.2,0c0.5,0.1,0.9,0.2,1.3,0.2
				c0.1,0,0.2,0,0.2,0c0.4,0.1,0.8,0.1,1.2,0.2c0.1,0,0.1,0,0.2,0c0.4,0.1,0.8,0.1,1.2,0.2c0,0,0,0,0,0c0.4,0,0.7,0.1,1.1,0.1
				c0.1,0,0.1,0,0.2,0c0.3,0,0.7,0.1,1,0.1c0.1,0,0.1,0,0.2,0c0.3,0,0.6,0,0.9,0c0.1,0,0.1,0,0.2,0c0.1,0,0.2,0,0.3,0
				c0.1,0,0.1,0,0.2,0c0.1,0,0.2,0,0.3,0c0.1,0,0.1,0,0.2,0c0.1,0,0.2,0,0.2,0c0.1,0,0.1,0,0.2,0c0.1,0,0.1,0,0.2,0c0,0,0.1,0,0.1,0
				c0.1,0,0.1,0,0.2-0.1c0,0,0.1,0,0.1,0c0.1,0,0.1-0.1,0.1-0.1c0,0,0.1,0,0.1-0.1c0,0,0.1-0.1,0.1-0.1c0,0,0,0,0-0.1
				c0-0.1,0.1-0.1,0.1-0.2c0.9-3.4,1-6.9,0.4-10.2C77.4,67.3,76.1,64.2,74.2,61.5z"/>
			<path id="can" class="st7" d="M78,61.9c-3.5-6-9.1-10.3-15.7-12.1c-2.2-0.6-4.4-0.9-6.7-0.9c-11.8,0-22.1,7.9-25.1,19.2
				c0,0,0,0,0,0l-15.3,57.1c-0.5,1.8-0.6,4.7,1.9,7.9c5.8,7.6,22.5,12.9,33.9,12.9c10.8,0,13.6-4.6,14.3-7.3l15.3-57.1
				C82.4,74.9,81.4,67.9,78,61.9z M33.9,67.2c0-0.1,0.1-0.2,0.1-0.3c0.2-0.5,0.4-1,0.6-1.6c0-0.1,0.1-0.2,0.1-0.3
				c0.2-0.5,0.5-1,0.8-1.5c0,0,0,0,0,0c0.3-0.5,0.6-1,0.9-1.4c0.1-0.1,0.1-0.2,0.2-0.2c0.3-0.4,0.6-0.9,1-1.3
				c0.1-0.1,0.1-0.2,0.2-0.2c0.4-0.4,0.7-0.8,1.1-1.2c0,0,0,0,0.1-0.1c0.4-0.4,0.8-0.8,1.2-1.1c0.1-0.1,0.1-0.1,0.2-0.2
				c0.4-0.4,0.8-0.7,1.2-1c0.1-0.1,0.2-0.1,0.3-0.2c0.4-0.3,0.9-0.6,1.3-0.9c0,0,0.1,0,0.1-0.1c0.4-0.3,0.9-0.5,1.4-0.8
				c0.1,0,0.2-0.1,0.2-0.1c0.5-0.2,1-0.5,1.5-0.7c0.1,0,0.2-0.1,0.3-0.1c0.5-0.2,1-0.4,1.5-0.6c0.1,0,0.1,0,0.2-0.1
				c0.5-0.2,1-0.3,1.5-0.4c0.1,0,0.2,0,0.2-0.1c0.5-0.1,1.1-0.2,1.6-0.3c0.1,0,0.2,0,0.3-0.1c0.5-0.1,1.1-0.2,1.6-0.2
				c0.1,0,0.1,0,0.2,0c0.5,0,1.1-0.1,1.6-0.1c0.1,0,0.1,0,0.2,0c0,0,0.1,0,0.1,0c0.4,0,0.9,0,1.3,0c0.1,0,0.2,0,0.3,0
				c0.4,0,0.7,0.1,1.1,0.1c0.1,0,0.3,0,0.4,0.1c0.3,0,0.6,0.1,1,0.2c0.1,0,0.3,0,0.4,0.1c0.4,0.1,0.9,0.2,1.3,0.3l0,0
				c2.7,0.7,5.1,1.9,7.2,3.4c0.6,0.4,1.2,0.9,1.8,1.4c1.4,1.2,2.7,2.6,3.7,4.1c1.9,2.7,3.3,5.8,3.9,9.1c0.6,3.3,0.5,6.8-0.4,10.2
				c0,0.1,0,0.1-0.1,0.2c0,0,0,0,0,0.1c0,0-0.1,0.1-0.1,0.1c0,0-0.1,0-0.1,0.1c0,0-0.1,0.1-0.1,0.1c0,0-0.1,0-0.1,0
				c-0.1,0-0.1,0-0.2,0.1c0,0-0.1,0-0.1,0c-0.1,0-0.1,0-0.2,0c-0.1,0-0.1,0-0.2,0c-0.1,0-0.2,0-0.2,0c-0.1,0-0.1,0-0.2,0
				c-0.1,0-0.2,0-0.3,0c-0.1,0-0.1,0-0.2,0c-0.1,0-0.2,0-0.3,0c-0.1,0-0.1,0-0.2,0c0,0,0,0,0,0c-0.3,0-0.6,0-0.9,0
				c-0.1,0-0.1,0-0.2,0c-0.3,0-0.6,0-1-0.1c-0.1,0-0.1,0-0.2,0c-0.3,0-0.7-0.1-1.1-0.1c0,0,0,0,0,0c-0.4,0-0.8-0.1-1.2-0.2
				c-0.1,0-0.1,0-0.2,0c-0.4-0.1-0.8-0.1-1.2-0.2c-0.1,0-0.2,0-0.2,0c-0.4-0.1-0.9-0.1-1.3-0.2c-0.1,0-0.1,0-0.2,0
				c-0.4-0.1-0.9-0.2-1.4-0.3c0,0-0.1,0-0.1,0c-0.5-0.1-1-0.2-1.5-0.3c-0.1,0-0.2,0-0.3-0.1c-0.5-0.1-1-0.2-1.5-0.3
				c-0.1,0-0.2,0-0.2-0.1c-0.5-0.1-1-0.2-1.6-0.4c0,0,0,0-0.1,0c-0.5-0.1-1.1-0.2-1.6-0.4c-0.1,0-0.1,0-0.2,0
				c-0.5-0.1-1.1-0.3-1.6-0.4c-0.1,0-0.2,0-0.3-0.1c-0.5-0.1-1.1-0.3-1.6-0.4c-0.1,0-0.1,0-0.2-0.1c-0.5-0.1-1.1-0.3-1.6-0.4
				c0,0-0.1,0-0.1,0c-0.5-0.1-1.1-0.3-1.6-0.4c-0.1,0-0.2,0-0.3-0.1c-0.5-0.1-1-0.3-1.5-0.4c-0.1,0-0.2-0.1-0.3-0.1
				c-0.5-0.2-1-0.3-1.5-0.5c0,0-0.1,0-0.1,0c-0.5-0.2-1-0.3-1.5-0.5c-0.1,0-0.1,0-0.2-0.1c-0.5-0.2-1-0.3-1.4-0.5
				c-0.1,0-0.2-0.1-0.3-0.1c-0.5-0.2-0.9-0.3-1.4-0.5c-0.1,0-0.2-0.1-0.2-0.1c-0.5-0.2-0.9-0.3-1.4-0.5c0,0,0,0,0,0
				c-0.4-0.2-0.9-0.3-1.3-0.5c-0.1,0-0.1,0-0.2-0.1c-0.4-0.2-0.8-0.3-1.1-0.5c-0.1,0-0.1-0.1-0.2-0.1c-0.4-0.1-0.7-0.3-1.1-0.4
				c0,0-0.1,0-0.1-0.1c-0.3-0.1-0.7-0.3-1-0.4c0,0,0,0-0.1,0c-0.3-0.1-0.6-0.3-0.9-0.4c0,0-0.1,0-0.1-0.1c-0.3-0.1-0.5-0.3-0.7-0.4
				c0,0-0.1,0-0.1-0.1c-0.2-0.1-0.4-0.3-0.6-0.4c0,0,0,0,0,0c-0.2-0.1-0.3-0.2-0.5-0.4c0,0,0,0-0.1,0c-0.1-0.1-0.2-0.2-0.3-0.3
				c0,0,0,0,0-0.1c-0.1-0.1-0.1-0.2-0.2-0.3c0,0,0,0,0,0c0-0.1,0-0.2,0-0.3C33.5,68.3,33.7,67.8,33.9,67.2z M50.9,143
				C50.9,143,50.9,143,50.9,143C51,143,51,143,50.9,143C51,143,51,143,50.9,143z"/>
		</g>
		<g id="skull">
			<path class="st1" d="M52.8,115.5c0.2-0.4,0.3-0.8,0.5-1.1c0.3-0.4,0.6-0.9,0.9-1.3c0-0.1,0.2-0.1,0.2-0.1
				c2.1-0.4,4.1-0.8,6.2-1.2c0.7-0.1,1.1-0.5,1.6-1c0.2-0.2,0.4-0.4,0.6-0.7c0.3-0.4,0.8-0.6,1.3-0.8c0.4-0.1,0.5,0,0.6,0.4
				c0,0.7,0,1.3-0.2,2c-0.1,0.3,0,0.5,0.1,0.7c0.3,0.6,0.7,1.2,1,1.8c0.2,0.3,0,0.5-0.3,0.6c-0.3,0-0.6,0-0.9,0
				c-0.5,0-1-0.3-1.5-0.5c-0.6-0.3-1.2-0.4-1.9-0.3c-2.6,0.5-5.3,0.9-7.9,1.4C53,115.5,52.9,115.5,52.8,115.5z"/>
			<path class="st1" d="M37.6,111.5c-0.7-0.6-1.3-1.1-1.9-1.7c-1.4-1.2-2.9-2.4-4.3-3.7c-0.5-0.4-1.1-0.6-1.7-0.7
				c-0.4-0.1-0.7-0.1-1.1-0.1c-0.5-0.1-0.9-0.3-1.3-0.6c-0.3-0.2-0.3-0.4,0-0.6c0.3-0.3,0.6-0.5,1-0.7c0.3-0.2,0.6-0.3,0.9-0.5
				c0.2-0.1,0.3-0.3,0.4-0.5c0.2-0.5,0.4-1,0.6-1.5c0.1-0.2,0.2-0.3,0.4-0.5c0.1-0.1,0.3-0.1,0.4,0c0.4,0.3,0.7,0.7,0.8,1.1
				c0.1,0.3,0.1,0.6,0.2,1c0.1,0.6,0.4,1.2,0.9,1.7c1.5,1.3,3,2.6,4.5,3.9c0.1,0.1,0.3,0.2,0.4,0.3c0,0,0.1,0.1,0.1,0.1
				c0.1,0.9,0.1,1.7,0,2.6C37.6,111.3,37.6,111.4,37.6,111.5z"/>
			<path class="st1" d="M51.2,118.9c0.5-0.5,0.9-1.1,1.2-1.8c0.3,0.3,0.6,0.5,0.9,0.7c1.2,1,2.3,1.9,3.5,2.9c0.6,0.5,1.3,0.7,2,0.7
				c0.7,0,1.2,0.2,1.8,0.5c0.5,0.3,0.5,0.6,0,0.9c-0.5,0.3-1,0.5-1.5,0.8c-0.3,0.2-0.5,0.4-0.7,0.8c-0.2,0.5-0.3,0.9-0.5,1.4
				c-0.1,0.2-0.2,0.4-0.4,0.5c-0.1,0.1-0.3,0.1-0.4,0c-0.4-0.4-0.7-0.9-0.8-1.5c-0.1-0.7-0.3-1.3-0.7-1.9c-0.3-0.3-0.6-0.6-0.9-0.9
				C53.5,121,52.4,120,51.2,118.9C51.2,119,51.2,119,51.2,118.9z"/>
			<path class="st1" d="M37.1,113c-0.1,0.8,0,1.5,0.2,2.2c-0.1,0-0.1,0-0.2,0.1c-1.7,0.4-3.5,0.8-5.2,1.2c-0.2,0.1-0.5,0.2-0.7,0.3
				c-0.4,0.3-0.7,0.7-1.1,1c-0.4,0.3-0.7,0.6-1.1,0.8c-0.1,0.1-0.3,0.1-0.5,0.1c-0.2,0-0.4-0.2-0.4-0.6c0-0.3,0.1-0.7,0.2-1
				c0-0.3,0.1-0.7,0.1-1c0-0.2,0-0.3-0.1-0.5c-0.3-0.5-0.6-1-0.9-1.6c-0.1-0.1-0.1-0.3-0.2-0.4c0-0.3,0.2-0.5,0.5-0.5
				c0.6,0,1.1,0.1,1.6,0.4c0.7,0.4,1.4,0.6,2.3,0.5c1.8-0.2,3.5-0.6,5.3-1C36.9,113,37,113,37.1,113z"/>
			<path class="st1" d="M57.5,104.9c0.5-0.7,5.4-6.2,3.8-11.1c0,0-1.2-2.1-2.2-2.8c-1.9-1.4-4-2.6-6.3-3.2c-2.2-0.6-4.5-1-6.8-0.9
				c-1.2,0-2.3,0.2-3.4,0.7c-0.5,0.2-0.9,0.5-1.4,0.7c-6.1,4-2.1,10.9-2.5,12c-0.4,0.9-0.6,1.4-1.1,2.3c-0.5,0.9-0.7,1.9-0.7,2.9
				c0,0.6,0.1,1.1,0.6,1.5c0.3,0.3,0.7,0.6,1,0.8c0.1,0.1,0.1,0.1,0.2,0.1c-0.1,1-0.3,2.9-0.3,3.5c0,0.5-0.1,0.9-0.3,1.4
				c-0.3,0.6-0.5,1.2-0.6,1.8c0.3,0.2,0.5,0.4,0.8,0.5l0.5-1.9l1.1,0.3l-0.6,2.2c0.5,0.2,1,0.5,1.4,0.7l0.6-2.1l1.1,0.3l-0.6,2.3
				c0.5,0.2,1,0.3,1.5,0.5l0.6-2.2l1.1,0.3l-0.6,2.2c0.5,0.1,1,0.2,1.6,0.3l0.6-2.2l1.1,0.3l-0.6,2.1c0.5,0.1,1.1,0.1,1.6,0.1
				l0.6-2.2l1.1,0.3l-0.5,1.9c0.3,0,0.7,0,1,0c0.2-0.6,0.3-1.1,0.4-1.7c0-0.2,0-0.4,0.1-0.6c0.3-0.6,0.5-1.1,0.8-1.6
				c0.2-0.3,0.7-1.6,1-2.4c0.5,0,1-0.1,1.5-0.2c0.4-0.1,0.8-0.3,1.1-0.6c0.6-0.8,1-1.7,1.1-2.7C57.3,107.2,56.9,105.9,57.5,104.9z
				 M43.1,105.6c-1,0.6-1.9,0.4-2.8-0.4c-0.5-0.5-0.8-1-0.8-1.7c0-0.5-0.1-1-0.2-1.5c-0.2-1.1,0.6-2.1,1.8-2.2c0.5,0,1,0,1.5,0.1
				c0.8,0.1,1.6,0.2,2.4,0.3c0.5,0.1,0.9,0.4,1.1,0.8c0.2,0.4,0.2,1,0.1,1.6c-0.1,0.4-0.3,0.7-0.6,1C44.8,104.4,44,105,43.1,105.6z
				 M46.8,106.3c-0.4,1.4-0.8,2.8-1.1,4.2c0,0,0,0.1-0.1,0.1c-0.4,0.2-0.7,0.4-1.1,0.6c-0.1,0-0.1,0-0.2,0.1c-0.3,0.1-0.5,0-0.6-0.4
				c-0.1-0.4-0.1-0.8,0-1.2c0.4-1.7,1.4-3,3.1-3.7c0,0,0.1,0,0.2,0C46.8,106.2,46.8,106.2,46.8,106.3z M48.1,111.7
				c-0.1,0.2-0.3,0.4-0.4,0.5c-0.2,0.2-0.4,0.2-0.6,0c-0.2-0.2-0.3-0.4-0.5-0.6c-0.3-0.4-0.4-0.9-0.2-1.4c0.4-1.2,0.7-2.4,1-3.6
				c0-0.1,0-0.2,0.1-0.3c0.9,1.1,1.3,2.3,1.2,3.7C48.5,110.5,48.4,111.1,48.1,111.7z M56.1,106.3c-0.4,0.5-0.8,1.1-1.2,1.6
				c-0.5,0.5-1.1,0.9-1.9,0.9c-0.3,0-0.6,0-0.9,0c-0.6-0.2-1-0.5-1.2-1.1c-0.5-1.1-1-2.2-1.2-3.4c-0.1-0.8,0.3-1.8,1-2.2
				c0.4-0.2,0.8-0.3,1.3-0.1c0.8,0.3,1.7,0.7,2.5,1c0.3,0.1,0.7,0.3,1,0.5c0.8,0.5,1.1,1.4,0.9,2.3C56.3,106,56.2,106.2,56.1,106.3z
				"/>
		</g>
	</g>
</g>
<g id="info2">
	<rect id="bg_1_" x="0" class="st0" width="319.4" height="197.4"/>
	<polygon id="branch" class="st2" points="319.4,34.6 281,41.2 260.5,80.4 264.6,59.6 224.6,65.2 265.8,53.9 268,42.3 193.2,53.6 
		128,83.5 162.6,59.6 82.1,39.3 165.7,43.7 319.4,7.4 	"/>
	<g id="apple">
		<path class="st2" d="M283.4,86.8c-3.7-2.7-10.4-4.8-21.1,0.1c-0.1-0.8-0.1-1.5-0.2-2.2c-0.5-5.2-0.7-7.5,3.3-13.9
			c0.4-0.7,0.2-1.6-0.5-2.1c-0.7-0.4-1.6-0.2-2.1,0.5c-4.5,7.2-4.2,10.3-3.7,15.8c0,0.5,0.1,1.1,0.1,1.7c-10.4-5.1-17-3.3-20.8-0.7
			c-5.7,3.9-8.5,12-7.3,21.3c1.4,10.9,9.1,24.7,18.3,27.9c3.8,1.3,7.5,0.7,10.6-1.8c2.1,1.8,4.6,2.8,7.1,2.8c1.1,0,2.3-0.2,3.5-0.5
			c9.3-2.9,17.5-16.4,19.3-27.3C291.4,99.1,288.9,90.8,283.4,86.8z"/>
		<path class="st6" d="M281.6,89.2c-4.7-3.4-11.6-3-19.9,1.3c-0.2,0.1-0.4,0.2-0.7,0.2l-0.3,0c-0.2,0-0.5-0.1-0.7-0.2
			c-8.2-4.6-15-5.3-19.8-2c-4.8,3.2-7,10.3-6,18.5c1.4,11,9,23,16.3,25.5c3.1,1.1,6,0.4,8.6-2.1c0.3-0.3,0.7-0.4,1-0.4
			c0.4,0,0.8,0.2,1.1,0.5c2.5,2.6,5.4,3.4,8.6,2.4c7.3-2.3,15.4-13.9,17.2-24.9C288.3,99.7,286.2,92.6,281.6,89.2z"/>
	</g>
	<g id="flowers">
		<g id="flower_2_">
			<path class="st6" d="M146.8,89.9c0.9-1.9,1-4,0.4-5.9c-1.4-4.1-5.8-6.2-9.9-4.8c0,0,0,0,0,0c-0.2,0.1-0.4,0.1-0.6,0.2
				c-0.6,0.3-1.4,0.1-1.8-0.5c-0.4-0.6-0.4-1.3,0-1.9c1.7-2.1,2.2-4.9,1.4-7.5c-0.7-2-2.1-3.5-3.9-4.5c-1.9-0.9-4-1-5.9-0.4
				c-3.4,1.2-5.6,4.5-5.2,8.1c0.1,0.7-0.4,1.3-1,1.6c-0.7,0.2-1.4,0-1.8-0.6c-1.9-3-5.7-4.4-9.1-3.2c-2,0.7-3.5,2.1-4.5,3.9
				c-0.9,1.9-1,4-0.4,5.9c0.9,2.6,3,4.5,5.6,5.1c0.7,0.2,1.2,0.7,1.2,1.4s-0.5,1.3-1.1,1.5c-0.2,0-0.4,0.1-0.6,0.2
				c-4.1,1.4-6.2,5.8-4.8,9.9c1.4,4.1,5.8,6.2,9.9,4.8c1.8-0.6,3.3-1.8,4.2-3.4c0.3-0.5,0.8-0.7,1.3-0.7c0.1,0,0.3,0,0.4,0.1
				c0.7,0.2,1.1,0.8,1.1,1.5c-0.1,1,0.1,2.1,0.4,3.1c1.4,4.1,5.8,6.2,9.9,4.8c4.1-1.4,6.2-5.8,4.8-9.9c-0.3-1-0.9-1.9-1.6-2.7
				c-0.5-0.5-0.5-1.3-0.1-1.9c0.4-0.6,1.1-0.8,1.8-0.5c1.7,0.7,3.7,0.8,5.4,0.1C144.3,93.1,145.9,91.7,146.8,89.9z M127.9,95.9
				c-1.1,0.4-2.2,0.5-3.2,0.5c-4.2,0-8-2.6-9.5-6.8c-0.9-2.5-0.7-5.2,0.5-7.6c1.2-2.4,3.2-4.2,5.7-5.1c5.2-1.8,10.9,1,12.7,6.2
				C135.9,88.5,133.1,94.2,127.9,95.9z"/>
			<path class="st2" d="M139.2,75.7c0.8-2.3,0.9-4.8,0.1-7.1c-0.9-2.7-2.9-4.9-5.4-6.2c-2.6-1.3-5.5-1.5-8.2-0.5
				c-3.5,1.2-6.1,4.1-7,7.5c-2.8-2.2-6.6-2.9-10.1-1.7c-2.7,0.9-4.9,2.9-6.2,5.4c-1.3,2.6-1.5,5.5-0.5,8.2c0.8,2.4,2.4,4.3,4.4,5.6
				c-3.9,2.7-5.7,7.7-4.1,12.4c1.9,5.6,8.1,8.6,13.7,6.7c1.3-0.4,2.4-1.1,3.4-1.9c0.1,0.2,0.1,0.4,0.2,0.5c1.5,4.5,5.7,7.3,10.2,7.3
				c1.2,0,2.3-0.2,3.5-0.6c5.6-1.9,8.6-8.1,6.7-13.7c-0.1-0.2-0.1-0.4-0.2-0.5c1.3,0,2.6-0.1,3.9-0.6c2.7-0.9,4.9-2.9,6.2-5.4
				c1.3-2.6,1.5-5.5,0.5-8.2C148.5,78.3,143.9,75.4,139.2,75.7z M137,93.6c-0.6-0.3-1.4,0-1.8,0.5c-0.4,0.6-0.4,1.3,0.1,1.9
				c0.7,0.8,1.2,1.7,1.6,2.7c1.4,4.1-0.8,8.5-4.8,9.9c-4.1,1.4-8.5-0.8-9.9-4.8c-0.3-1-0.5-2-0.4-3.1c0.1-0.7-0.4-1.3-1.1-1.5
				c-0.1,0-0.3-0.1-0.4-0.1c-0.5,0-1,0.3-1.3,0.7c-0.9,1.6-2.4,2.8-4.2,3.4c-4.1,1.4-8.5-0.8-9.9-4.8c-1.4-4.1,0.8-8.5,4.8-9.9
				c0.2-0.1,0.4-0.1,0.6-0.2c0.7-0.2,1.1-0.8,1.1-1.5s-0.5-1.3-1.2-1.4c-2.6-0.6-4.8-2.5-5.6-5.1c-0.7-2-0.5-4.1,0.4-5.9
				c0.9-1.9,2.5-3.3,4.5-3.9c3.4-1.2,7.1,0.1,9.1,3.2c0.4,0.6,1.1,0.8,1.8,0.6c0.7-0.2,1.1-0.9,1-1.6c-0.3-3.6,1.8-6.9,5.2-8.1
				c2-0.7,4.1-0.5,5.9,0.4c1.9,0.9,3.3,2.5,3.9,4.5c0.9,2.6,0.4,5.4-1.4,7.5c-0.4,0.5-0.5,1.3,0,1.9c0.4,0.6,1.2,0.7,1.8,0.5
				c0.2-0.1,0.4-0.2,0.6-0.2c0,0,0,0,0,0c4.1-1.4,8.5,0.8,9.9,4.8c0.7,2,0.5,4.1-0.4,5.9c-0.9,1.9-2.5,3.3-4.5,3.9
				C140.6,94.4,138.7,94.3,137,93.6z"/>
			<path class="st1" d="M131,89.6c0.8-1.7,0.9-3.6,0.3-5.3c-1-2.9-3.7-4.7-6.6-4.7c-0.7,0-1.5,0.1-2.3,0.4c-1.8,0.6-3.2,1.9-4,3.5
				c-0.8,1.7-0.9,3.6-0.3,5.3c0.6,1.8,1.9,3.2,3.5,4c1.7,0.8,3.6,0.9,5.3,0.3C128.7,92.5,130.2,91.2,131,89.6z"/>
			<path class="st2" d="M121.5,77c-2.5,0.9-4.6,2.7-5.7,5.1c-1.2,2.4-1.3,5.1-0.5,7.6c1.4,4.1,5.3,6.8,9.5,6.8
				c1.1,0,2.2-0.2,3.2-0.5c5.2-1.8,8-7.5,6.2-12.7C132.4,78,126.7,75.2,121.5,77z M121.6,92.8c-1.7-0.8-2.9-2.2-3.5-4
				c-0.6-1.8-0.5-3.7,0.3-5.3c0.8-1.7,2.2-2.9,4-3.5c0.7-0.3,1.5-0.4,2.3-0.4c2.9,0,5.6,1.8,6.6,4.7c0.6,1.8,0.5,3.7-0.3,5.3
				c-0.8,1.7-2.2,2.9-4,3.5C125.2,93.7,123.3,93.6,121.6,92.8z"/>
		</g>
		<g id="flower_1_">
			<path class="st6" d="M101.3,59c0.1-0.9-0.1-1.7-0.4-2.5c-0.2-0.7,0-1.4,0.6-1.8c0.6-0.4,1.4-0.3,1.9,0.2c1.1,1.1,2.6,1.7,4.1,1.8
				c1.7,0.1,3.4-0.5,4.7-1.6c1.3-1.1,2.1-2.7,2.2-4.4c0.2-3.5-2.5-6.6-6-6.8c-0.2,0-0.3,0-0.5,0c-0.7,0-1.3-0.5-1.5-1.1
				s0.1-1.4,0.7-1.7c2-1.1,3.3-3,3.4-5.3c0.1-1.7-0.5-3.4-1.6-4.7c-1.1-1.3-2.7-2.1-4.4-2.2c-3-0.2-5.7,1.7-6.6,4.6
				c-0.2,0.7-0.8,1.1-1.5,1.1c-0.7,0-1.3-0.6-1.4-1.2c-0.5-2.9-3-5.1-6-5.3c-1.7-0.1-3.4,0.5-4.7,1.6c-1.3,1.1-2.1,2.7-2.2,4.4
				c-0.1,2.2,0.9,4.4,2.7,5.7c0.6,0.4,0.8,1.1,0.5,1.8c-0.3,0.6-0.9,1-1.6,0.9c-0.2,0-0.3,0-0.5-0.1c-1.7-0.1-3.4,0.5-4.7,1.6
				c-1.3,1.1-2.1,2.7-2.2,4.4c-0.2,3.5,2.5,6.6,6,6.8c1.5,0.1,3.1-0.4,4.3-1.3c0.3-0.2,0.6-0.3,0.9-0.3c0.3,0,0.7,0.1,1,0.3
				c0.5,0.4,0.7,1.2,0.4,1.8c-0.4,0.8-0.6,1.6-0.7,2.5c-0.2,3.5,2.5,6.6,6,6.8C98.1,65.2,101.1,62.5,101.3,59z M95.4,54.1
				c-2.3-0.1-4.5-1.2-6-2.9c-1.6-1.8-2.3-4-2.2-6.4c0.1-2.3,1.2-4.5,2.9-6s4-2.3,6.4-2.2c2.3,0.1,4.5,1.2,6,2.9
				c1.6,1.8,2.3,4,2.2,6.4c-0.1,2.3-1.2,4.5-2.9,6c-1.6,1.4-3.7,2.2-5.8,2.2C95.7,54.1,95.5,54.1,95.4,54.1z"/>
			<path class="st2" d="M104.3,59.2c0-0.1,0-0.1,0-0.2c1,0.4,2,0.6,3,0.7c2.5,0.2,4.9-0.7,6.8-2.4c1.9-1.7,3-4,3.2-6.5
				c0.3-4.2-2.3-8-6.1-9.4c1.3-1.5,2.1-3.5,2.2-5.5c0.2-2.5-0.7-4.9-2.4-6.8c-1.7-1.9-4-3-6.5-3.2c-3.2-0.2-6.1,1.2-8,3.5
				c-1.6-2.6-4.3-4.3-7.5-4.5c-2.5-0.2-4.9,0.7-6.8,2.4c-1.9,1.7-3,4-3.2,6.5c-0.1,2.1,0.4,4.1,1.5,5.8c-1.5,0.4-2.8,1.1-4,2.1
				c-1.9,1.7-3,4-3.2,6.5c-0.3,5.2,3.7,9.7,8.9,10c1.1,0.1,2.1,0,3.1-0.3c0,0.1,0,0.1,0,0.2c-0.2,2.5,0.7,4.9,2.4,6.8
				c1.7,1.9,4,3,6.5,3.2c0.2,0,0.4,0,0.6,0c2.3,0,4.5-0.8,6.3-2.4C103.1,64,104.2,61.7,104.3,59.2z M94.5,65c-3.5-0.2-6.3-3.3-6-6.8
				c0.1-0.9,0.3-1.7,0.7-2.5c0.3-0.6,0.2-1.4-0.4-1.8c-0.3-0.2-0.6-0.3-1-0.3c-0.3,0-0.6,0.1-0.9,0.3c-1.2,0.9-2.8,1.4-4.3,1.3
				c-3.5-0.2-6.3-3.3-6-6.8c0.1-1.7,0.9-3.3,2.2-4.4c1.3-1.1,2.9-1.7,4.7-1.6c0.2,0,0.3,0,0.5,0.1c0.7,0.1,1.3-0.3,1.6-0.9
				c0.3-0.6,0-1.4-0.5-1.8c-1.8-1.3-2.9-3.4-2.7-5.7c0.1-1.7,0.9-3.3,2.2-4.4c1.3-1.1,2.9-1.7,4.7-1.6c3,0.2,5.4,2.4,6,5.3
				c0.1,0.7,0.7,1.2,1.4,1.2c0.7,0,1.3-0.4,1.5-1.1c0.9-2.9,3.6-4.7,6.6-4.6c1.7,0.1,3.3,0.9,4.4,2.2c1.1,1.3,1.7,2.9,1.6,4.7
				c-0.1,2.2-1.4,4.2-3.4,5.3c-0.6,0.3-0.9,1-0.7,1.7s0.8,1.1,1.5,1.1c0.2,0,0.3,0,0.5,0c3.5,0.2,6.3,3.3,6,6.8
				c-0.1,1.7-0.9,3.3-2.2,4.4c-1.3,1.1-3,1.7-4.7,1.6c-1.5-0.1-3-0.7-4.1-1.8c-0.5-0.5-1.3-0.6-1.9-0.2c-0.6,0.4-0.8,1.1-0.6,1.8
				c0.3,0.8,0.4,1.7,0.4,2.5C101.1,62.5,98.1,65.2,94.5,65z"/>
			<path class="st1" d="M90.1,45c-0.1,1.5,0.4,3,1.4,4.2s2.4,1.8,4,1.9c1.5,0.1,3-0.4,4.2-1.4c1.2-1,1.8-2.4,1.9-4
				c0.2-3.2-2.2-5.9-5.4-6.1c-0.1,0-0.2,0-0.4,0c-1.4,0-2.8,0.5-3.8,1.5C90.9,42,90.2,43.5,90.1,45z"/>
			<path class="st2" d="M104.7,45.9c0.1-2.3-0.6-4.6-2.2-6.4c-1.6-1.8-3.7-2.8-6-2.9c-2.3-0.1-4.6,0.6-6.4,2.2s-2.8,3.7-2.9,6
				c-0.1,2.3,0.6,4.6,2.2,6.4c1.6,1.8,3.7,2.8,6,2.9c0.2,0,0.4,0,0.5,0c2.1,0,4.2-0.8,5.8-2.2C103.5,50.4,104.5,48.2,104.7,45.9z
				 M96.2,39.6c3.2,0.2,5.6,2.9,5.4,6.1c-0.1,1.5-0.8,3-1.9,4c-1.2,1-2.6,1.5-4.2,1.4c-1.5-0.1-3-0.8-4-1.9S90,46.5,90.1,45
				c0.1-1.5,0.8-3,1.9-4c1.1-0.9,2.4-1.5,3.8-1.5C96,39.6,96.1,39.6,96.2,39.6z"/>
		</g>
		<g id="flower">
			<path class="st6" d="M236.7,63.5C236.7,63.5,236.7,63.5,236.7,63.5c-0.1,0-0.3-0.1-0.4-0.1c-0.7-0.1-1.2-0.7-1.2-1.4
				c0-0.7,0.4-1.3,1.1-1.5c1.9-0.6,3.4-2.1,3.9-4c0.4-1.5,0.2-3-0.6-4.4s-2-2.3-3.5-2.7c-2.6-0.7-5.3,0.5-6.5,2.8
				c-0.3,0.6-1,0.9-1.7,0.7c-0.7-0.2-1.1-0.8-1.1-1.5c0.1-2.7-1.7-5-4.3-5.7c-3.1-0.8-6.2,1-7,4.1c-0.5,1.9,0,4,1.4,5.4
				c0.5,0.5,0.5,1.3,0.2,1.8c-0.4,0.6-1.1,0.8-1.8,0.6c-0.1,0-0.3-0.1-0.4-0.1c-3.1-0.8-6.2,1-7,4.1c-0.4,1.5-0.2,3,0.6,4.4
				c0.8,1.3,2,2.3,3.5,2.7c1.3,0.4,2.7,0.2,4-0.4c0.2-0.1,0.4-0.2,0.7-0.2c0.4,0,0.9,0.2,1.2,0.6c0.4,0.5,0.4,1.3,0,1.9
				c-0.5,0.6-0.8,1.3-1,2.1c-0.4,1.5-0.2,3,0.6,4.4s2,2.3,3.5,2.7c3.1,0.8,6.2-1,7-4.1c0.2-0.8,0.2-1.5,0.1-2.3
				c-0.1-0.7,0.3-1.4,0.9-1.6c0.6-0.3,1.4,0,1.8,0.6c0.8,1.1,1.9,2,3.3,2.3c3.1,0.8,6.2-1,7-4.1c0.4-1.5,0.2-3-0.6-4.4
				C239.4,64.9,238.2,63.9,236.7,63.5z M233.2,64.6c-1,3.6-4.3,6-7.9,6c-0.7,0-1.4-0.1-2.1-0.3c-4.3-1.2-6.9-5.6-5.8-10
				c1.2-4.3,5.6-6.9,10-5.8C231.8,55.8,234.3,60.3,233.2,64.6z"/>
			<path class="st2" d="M240,61.7c1.4-1.1,2.4-2.7,2.9-4.5c0.6-2.3,0.3-4.6-0.9-6.6c-1.2-2-3.1-3.5-5.3-4.1
				c-2.8-0.7-5.6-0.1-7.7,1.6c-1-2.5-3.1-4.5-5.9-5.2c-4.7-1.2-9.5,1.5-10.7,6.2c-0.5,1.8-0.4,3.7,0.3,5.3c-1.3,0.1-2.6,0.5-3.8,1.2
				c-2,1.2-3.5,3.1-4.1,5.3c-0.6,2.3-0.3,4.6,0.9,6.6s3.1,3.5,5.3,4.1c0.9,0.2,1.8,0.3,2.7,0.3c-0.6,2.3-0.3,4.6,0.9,6.6
				c1.2,2,3.1,3.5,5.3,4.1c0.7,0.2,1.5,0.3,2.2,0.3c3.9,0,7.4-2.6,8.4-6.5c0.8,0.5,1.6,0.9,2.5,1.1c2.3,0.6,4.6,0.3,6.6-0.9
				c2-1.2,3.5-3.1,4.1-5.3C244.6,67.6,243.1,63.8,240,61.7z M240.7,70.5c-0.8,3.1-4,4.9-7,4.1c-1.3-0.4-2.5-1.2-3.3-2.3
				c-0.4-0.6-1.1-0.8-1.8-0.6c-0.7,0.3-1,0.9-0.9,1.6c0.1,0.8,0.1,1.5-0.1,2.3c-0.8,3.1-4,4.9-7,4.1c-1.5-0.4-2.7-1.3-3.5-2.7
				s-1-2.9-0.6-4.4c0.2-0.8,0.5-1.4,1-2.1c0.4-0.6,0.4-1.3,0-1.9c-0.3-0.4-0.7-0.6-1.2-0.6c-0.2,0-0.4,0-0.7,0.2
				c-1.2,0.6-2.7,0.7-4,0.4c-1.5-0.4-2.7-1.3-3.5-2.7c-0.8-1.3-1-2.9-0.6-4.4c0.8-3.1,4-4.9,7-4.1c0.1,0,0.3,0.1,0.4,0.1
				c0.7,0.2,1.4,0,1.8-0.6c0.4-0.6,0.3-1.3-0.2-1.8c-1.4-1.5-1.9-3.5-1.4-5.4c0.8-3.1,4-4.9,7-4.1c2.6,0.7,4.3,3,4.3,5.7
				c0,0.7,0.4,1.3,1.1,1.5c0.7,0.2,1.4-0.1,1.7-0.7c1.3-2.3,3.9-3.5,6.5-2.8c1.5,0.4,2.7,1.3,3.5,2.7s1,2.9,0.6,4.4
				c-0.5,1.9-2,3.4-3.9,4c-0.7,0.2-1.1,0.8-1.1,1.5c0,0.7,0.5,1.3,1.2,1.4c0.1,0,0.3,0.1,0.4,0.1c0,0,0,0,0,0
				c1.5,0.4,2.7,1.3,3.5,2.7C240.9,67.5,241.1,69.1,240.7,70.5z"/>
			<path class="st1" d="M226.6,57.5c-0.4-0.1-0.9-0.2-1.3-0.2c-2.3,0-4.4,1.5-5,3.8c-0.7,2.7,0.9,5.6,3.6,6.3
				c2.7,0.7,5.6-0.9,6.3-3.6C231,61.1,229.4,58.3,226.6,57.5z"/>
			<path class="st2" d="M227.4,54.6c-4.3-1.2-8.8,1.4-10,5.8c-1.2,4.3,1.4,8.8,5.8,10c0.7,0.2,1.4,0.3,2.1,0.3c3.6,0,6.9-2.4,7.9-6
				C234.3,60.3,231.8,55.8,227.4,54.6z M230.3,63.8c-0.7,2.7-3.5,4.4-6.3,3.6c-2.7-0.7-4.4-3.5-3.6-6.3c0.6-2.3,2.7-3.8,5-3.8
				c0.4,0,0.9,0.1,1.3,0.2C229.4,58.3,231,61.1,230.3,63.8z"/>
		</g>
	</g>
	<g id="leaves">
		<g id="leaf">
			<path class="st5" d="M165.4,65.7c0,2.8,0.3,8.7,3.8,12.9c3.5,4.2,9.3,5.7,12,6.2c0-2.8-0.3-8.7-3.8-12.9
				C173.9,67.7,168.2,66.2,165.4,65.7z"/>
			<path class="st2" d="M179.7,70c-5.5-6.6-15.2-7.4-15.6-7.5c-0.8-0.1-1.5,0.5-1.6,1.3c0,0.4-1.1,10.1,4.4,16.7
				c5.5,6.6,15.2,7.4,15.6,7.5c0,0,0.1,0,0.1,0c0.8,0,1.4-0.6,1.5-1.3C184.2,86.3,185.2,76.6,179.7,70z M181.2,84.8
				c-2.7-0.5-8.5-1.9-12-6.2c-3.5-4.2-3.8-10.2-3.8-12.9c2.7,0.5,8.5,2,12,6.2C180.9,76.1,181.3,82.1,181.2,84.8z"/>
		</g>
		<g id="leaf_5_">
			<path class="st5" d="M135.4,56.2c-6.5-1.5-13.1,1.4-15.9,2.9c1.8,2.5,6.5,8.1,13,9.6c6.5,1.5,13.1-1.4,15.9-2.9
				C146.6,63.3,141.9,57.7,135.4,56.2z"/>
			<path class="st2" d="M151.8,65.6c-0.2-0.4-6.1-10-15.7-12.3c-9.7-2.2-19.1,3.8-19.5,4.1c-0.7,0.4-0.9,1.3-0.5,2
				c0.2,0.4,6.1,10,15.7,12.3c1.5,0.3,3,0.5,4.5,0.5c7.9,0,14.7-4.4,15.1-4.6C152,67.2,152.2,66.3,151.8,65.6z M132.5,68.8
				c-6.5-1.5-11.1-7.1-13-9.6c2.8-1.5,9.4-4.4,15.9-2.9c6.5,1.5,11.1,7.1,13,9.6C145.6,67.3,139,70.3,132.5,68.8z"/>
		</g>
		<g id="leaf_4_">
			<path class="st5" d="M157,42.7c0-2.8-0.3-8.7-3.8-12.9c-3.5-4.2-9.2-5.7-12-6.2c0,2.8,0.3,8.7,3.8,12.9
				C148.5,40.7,154.3,42.2,157,42.7z"/>
			<path class="st2" d="M158.3,45.9c0,0,0.1,0,0.1,0c0.8,0,1.4-0.6,1.5-1.3c0-0.4,1.1-10.1-4.4-16.7s-15.2-7.4-15.6-7.5
				c-0.8-0.1-1.5,0.5-1.6,1.3c0,0.4-1.1,10.1,4.4,16.7C148.2,45,157.9,45.8,158.3,45.9z M141.3,23.6c2.7,0.5,8.5,2,12,6.2
				c3.5,4.2,3.8,10.2,3.8,12.9c-2.7-0.5-8.5-1.9-12-6.2C141.6,32.3,141.2,26.3,141.3,23.6z"/>
		</g>
		<g id="leaf_1_">
			<path class="st5" d="M154.9,81.3c-0.6,6.6,3.3,12.8,5.1,15.3c2.2-2.2,7.1-7.6,7.7-14.2c0.6-6.6-3.3-12.8-5.1-15.3
				C160.3,69.3,155.5,74.7,154.9,81.3z"/>
			<path class="st2" d="M163.9,63.9c-0.5-0.6-1.4-0.7-2.1-0.2c-0.4,0.3-9.1,7.4-9.9,17.3c-0.8,9.9,6.5,18.4,6.8,18.7
				c0.3,0.3,0.7,0.5,1.1,0.5c0.3,0,0.7-0.1,0.9-0.3c0.4-0.3,9.1-7.4,9.9-17.3C171.5,72.8,164.2,64.3,163.9,63.9z M167.7,82.4
				c-0.6,6.6-5.4,12-7.7,14.2c-1.8-2.5-5.7-8.7-5.1-15.3c0.6-6.6,5.4-12,7.7-14.2C164.4,69.6,168.3,75.8,167.7,82.4z"/>
		</g>
		<g id="leaf_3_">
			<path class="st5" d="M242.4,35.7c0,2.8,0.3,8.7,3.8,12.9c3.5,4.2,9.2,5.7,12,6.2c0-2.8-0.3-8.7-3.8-12.9
				C250.9,37.6,245.1,36.1,242.4,35.7z"/>
			<path class="st2" d="M256.7,39.9c-5.5-6.6-15.2-7.4-15.6-7.5c-0.8-0.1-1.5,0.5-1.6,1.3c0,0.4-1.1,10.1,4.4,16.7
				c5.5,6.6,15.2,7.4,15.6,7.5c0,0,0.1,0,0.1,0c0.8,0,1.4-0.6,1.5-1.3C261.1,56.2,262.2,46.6,256.7,39.9z M258.2,54.8
				c-2.7-0.5-8.5-2-12-6.2c-3.5-4.2-3.8-10.2-3.8-12.9c2.7,0.5,8.5,2,12,6.2C257.8,46,258.2,52,258.2,54.8z"/>
		</g>
		<g id="leaf_2_">
			<path class="st5" d="M285.9,64.1c-2.7-0.6-8.6-1.3-13.4,1.3c-4.8,2.6-7.3,8-8.3,10.6c2.7,0.6,8.6,1.3,13.4-1.3
				C282.4,72,284.9,66.7,285.9,64.1z"/>
			<path class="st2" d="M288.3,61.6c-0.4-0.1-9.7-3-17.2,1.1c-7.5,4.1-10.2,13.5-10.3,13.9c-0.2,0.8,0.2,1.6,1,1.8
				c0.2,0.1,3.5,1.1,7.7,1.1c3,0,6.4-0.5,9.5-2.2c7.5-4.1,10.2-13.5,10.3-13.9C289.5,62.6,289,61.8,288.3,61.6z M264.2,75.9
				c1-2.6,3.5-8,8.3-10.6c4.8-2.6,10.7-1.8,13.4-1.3c-1,2.6-3.5,8-8.3,10.6C272.8,77.3,266.9,76.5,264.2,75.9z"/>
		</g>
	</g>
	<g id="bee2-3">
		<g id="l-wing_21_">
			<path id="l-wing-in_21_" class="st3" d="M188.6,122.6c-2.3,0-4.1,1.9-4.1,4.1c0,2.3,1.9,4.1,4.1,4.1c2,0,4.9,0,6.5,0
				C194.7,127.8,192.7,122.6,188.6,122.6z"/>
			<path id="l-wing-out_21_" class="st2" d="M197.3,131.8c0-2.9-2.1-11.3-8.6-11.3c-3.4,0-6.2,2.8-6.2,6.2s2.8,6.2,6.2,6.2
				c2.8,0,7.6,0,7.6,0C196.8,132.9,197.3,132.4,197.3,131.8z M184.5,126.7c0-2.3,1.9-4.1,4.1-4.1c4.1,0,6.1,5.2,6.5,8.2
				c-1.6,0-4.5,0-6.5,0C186.3,130.8,184.5,129,184.5,126.7z"/>
		</g>
		<g id="r-wing_21_">
			<path id="r-wing-in_21_" class="st3" d="M195.1,148.3c-1.6,0-4.5,0-6.5,0c-2.3,0-4.1,1.9-4.1,4.1c0,2.3,1.9,4.1,4.1,4.1
				C192.7,156.5,194.7,151.3,195.1,148.3z"/>
			<path id="r-wing-out_21_" class="st2" d="M197.3,147.3c0-0.6-0.5-1-1-1c0,0-4.8,0-7.6,0c-3.4,0-6.2,2.8-6.2,6.2
				c0,3.4,2.8,6.2,6.2,6.2C195.1,158.6,197.3,150.2,197.3,147.3z M184.5,152.4c0-2.3,1.9-4.1,4.1-4.1c2,0,4.9,0,6.5,0
				c-0.4,3-2.4,8.2-6.5,8.2C186.3,156.5,184.5,154.7,184.5,152.4z"/>
		</g>
		<g id="body_21_">
			<path id="yellow-stripe_21_" class="st1" d="M187.3,132.9c-0.9,0-1.7,0.2-2.5,0.5v12.4c0.8,0.3,1.6,0.5,2.5,0.5h0.3v-13.3H187.3z
				"/>
			<path id="right-eye_21_" class="st3" d="M200.5,143.2c-0.8,0-1.5,0.7-1.5,1.5c0,0.8,0.7,1.5,1.5,1.5c2.3,0,4.3-1.2,5.5-3H200.5z"
				/>
			<path id="head_21_" class="st1" d="M200.5,141.1h6.4c0.1-0.5,0.2-1,0.2-1.6c0-0.6-0.1-1.1-0.2-1.6h-6.4c-2,0-3.6-1.6-3.6-3.6
				c0-0.5,0.1-1.1,0.3-1.5h-2.8v13.3h2.8c-0.2-0.5-0.3-1-0.3-1.5C196.9,142.7,198.5,141.1,200.5,141.1z"/>
			<path id="left-eye_21_" class="st3" d="M199,134.4c0,0.8,0.7,1.5,1.5,1.5h5.5c-1.2-1.8-3.2-3-5.5-3
				C199.6,132.9,199,133.6,199,134.4z"/>
			<path id="outline_21_" class="st2" d="M200.6,148.3c3.4-0.1,6.3-2.1,7.7-5.1h3.6c0.8,0,1.5,0.7,1.5,1.5c0,0.8-0.7,1.5-1.5,1.5
				c-0.6,0-1,0.5-1,1c0,0.6,0.5,1,1,1c2,0,3.6-1.6,3.6-3.6c0-2-1.6-3.6-3.6-3.6h-2.9c0.1-0.5,0.1-1.1,0.1-1.6c0-0.5-0.1-1.1-0.1-1.6
				h2.9c2,0,3.6-1.6,3.6-3.6s-1.6-3.6-3.6-3.6c-0.6,0-1,0.5-1,1c0,0.6,0.5,1,1,1c0.8,0,1.5,0.7,1.5,1.5s-0.7,1.5-1.5,1.5h-3.6
				c-1.4-2.9-4.3-5-7.7-5.1c0,0-0.1,0-0.1,0c0,0,0,0,0,0c0,0-0.1,0-0.1,0h-6.8c-0.1,0-0.1,0-0.2,0c-0.1,0-0.1,0-0.2,0h-4.5
				c-0.1,0-0.1,0-0.2,0c-0.1,0-0.1,0-0.2,0h-1.1c-1.4,0-2.7,0.3-3.9,0.9c-0.1,0-0.2,0.1-0.2,0.1c-2.5,1.3-4.2,3.8-4.6,6.7h-1.5
				c-0.6,0-1,0.5-1,1s0.5,1,1,1h1.5c0.5,4.3,4.2,7.7,8.7,7.7h13c0,0,0.1,0,0.1,0c0,0,0,0,0,0C200.5,148.3,200.5,148.3,200.6,148.3z
				 M205.9,143.2c-1.2,1.8-3.2,3-5.5,3c-0.8,0-1.5-0.7-1.5-1.5c0-0.8,0.7-1.5,1.5-1.5H205.9z M205.9,135.9h-5.5
				c-0.8,0-1.5-0.7-1.5-1.5c0-0.8,0.7-1.5,1.5-1.5C202.7,132.9,204.8,134.1,205.9,135.9z M187.3,146.2c-0.9,0-1.7-0.2-2.5-0.5v-12.4
				c0.8-0.3,1.6-0.5,2.5-0.5h0.3v13.3H187.3z M194.5,146.2v-13.3h2.8c-0.2,0.5-0.3,1-0.3,1.5c0,2,1.6,3.6,3.6,3.6h6.4
				c0.1,0.5,0.2,1,0.2,1.6c0,0.6-0.1,1.1-0.2,1.6h-6.4c-2,0-3.6,1.6-3.6,3.6c0,0.5,0.1,1.1,0.3,1.5H194.5z"/>
		</g>
	</g>
	<g id="bee2-2">
		<g id="l-wing_22_">
			<path id="l-wing-in_22_" class="st3" d="M83,166.8c0,2.3,1.9,4.1,4.1,4.1c2.3,0,4.1-1.9,4.1-4.1c0-2,0-4.9,0-6.5
				C88.2,160.7,83,162.7,83,166.8z"/>
			<path id="l-wing-out_22_" class="st2" d="M92.2,158.1c-2.9,0-11.3,2.1-11.3,8.6c0,3.4,2.8,6.2,6.2,6.2c3.4,0,6.2-2.8,6.2-6.2
				c0-2.8,0-7.6,0-7.6C93.3,158.6,92.8,158.1,92.2,158.1z M87.1,170.9c-2.3,0-4.1-1.9-4.1-4.1c0-4.1,5.2-6.1,8.2-6.5
				c0,1.6,0,4.5,0,6.5C91.2,169.1,89.4,170.9,87.1,170.9z"/>
		</g>
		<g id="r-wing_22_">
			<path id="r-wing-in_22_" class="st3" d="M108.7,160.3c0,1.6,0,4.5,0,6.5c0,2.3,1.9,4.1,4.1,4.1c2.3,0,4.1-1.9,4.1-4.1
				C116.9,162.7,111.7,160.7,108.7,160.3z"/>
			<path id="r-wing-out_22_" class="st2" d="M107.7,158.1c-0.6,0-1,0.5-1,1c0,0,0,4.8,0,7.6c0,3.4,2.8,6.2,6.2,6.2
				c3.4,0,6.2-2.8,6.2-6.2C119,160.3,110.6,158.1,107.7,158.1z M112.8,170.9c-2.3,0-4.1-1.9-4.1-4.1c0-2,0-4.9,0-6.5
				c3,0.4,8.2,2.4,8.2,6.5C116.9,169.1,115.1,170.9,112.8,170.9z"/>
		</g>
		<g id="body_22_">
			<path id="yellow-stripe_22_" class="st1" d="M93.3,168.1c0,0.9,0.2,1.7,0.5,2.5h12.4c0.3-0.8,0.5-1.6,0.5-2.5v-0.3H93.3V168.1z"
				/>
			<path id="right-eye_22_" class="st3" d="M103.6,154.9c0,0.8,0.7,1.5,1.5,1.5c0.8,0,1.5-0.7,1.5-1.5c0-2.3-1.2-4.3-3-5.5V154.9z"
				/>
			<path id="head_22_" class="st1" d="M101.5,154.9v-6.4c-0.5-0.1-1-0.2-1.6-0.2c-0.6,0-1.1,0.1-1.6,0.2v6.4c0,2-1.6,3.6-3.6,3.6
				c-0.5,0-1.1-0.1-1.5-0.3v2.8h13.3v-2.8c-0.5,0.2-1,0.3-1.5,0.3C103.1,158.5,101.5,156.9,101.5,154.9z"/>
			<path id="left-eye_22_" class="st3" d="M94.8,156.4c0.8,0,1.5-0.7,1.5-1.5v-5.5c-1.8,1.2-3,3.2-3,5.5
				C93.3,155.8,94,156.4,94.8,156.4z"/>
			<path id="outline_22_" class="st2" d="M108.7,154.8c-0.1-3.4-2.1-6.3-5.1-7.7v-3.6c0-0.8,0.7-1.5,1.5-1.5c0.8,0,1.5,0.7,1.5,1.5
				c0,0.6,0.5,1,1,1s1-0.5,1-1c0-2-1.6-3.6-3.6-3.6c-2,0-3.6,1.6-3.6,3.6v2.9c-0.5-0.1-1.1-0.1-1.6-0.1c-0.5,0-1.1,0.1-1.6,0.1v-2.9
				c0-2-1.6-3.6-3.6-3.6c-2,0-3.6,1.6-3.6,3.6c0,0.6,0.5,1,1,1s1-0.5,1-1c0-0.8,0.7-1.5,1.5-1.5c0.8,0,1.5,0.7,1.5,1.5v3.6
				c-2.9,1.4-5,4.3-5.1,7.7c0,0,0,0.1,0,0.1c0,0,0,0,0,0c0,0,0,0.1,0,0.1v6.8c0,0.1,0,0.1,0,0.2c0,0.1,0,0.1,0,0.2v4.5
				c0,0.1,0,0.1,0,0.2c0,0.1,0,0.1,0,0.2v1.1c0,1.4,0.3,2.7,0.9,3.9c0,0.1,0.1,0.2,0.1,0.2c1.3,2.5,3.8,4.2,6.7,4.6v1.5
				c0,0.6,0.5,1,1,1c0.6,0,1-0.5,1-1v-1.5c4.3-0.5,7.7-4.2,7.7-8.7v-13c0,0,0-0.1,0-0.1c0,0,0,0,0,0
				C108.7,154.9,108.7,154.9,108.7,154.8z M103.6,149.5c1.8,1.2,3,3.2,3,5.5c0,0.8-0.7,1.5-1.5,1.5c-0.8,0-1.5-0.7-1.5-1.5V149.5z
				 M96.3,149.5v5.5c0,0.8-0.7,1.5-1.5,1.5c-0.8,0-1.5-0.7-1.5-1.5C93.3,152.7,94.5,150.6,96.3,149.5z M106.6,168.1
				c0,0.9-0.2,1.7-0.5,2.5H93.8c-0.3-0.8-0.5-1.6-0.5-2.5v-0.3h13.3V168.1z M106.6,160.9H93.3v-2.8c0.5,0.2,1,0.3,1.5,0.3
				c2,0,3.6-1.6,3.6-3.6v-6.4c0.5-0.1,1-0.2,1.6-0.2c0.6,0,1.1,0.1,1.6,0.2v6.4c0,2,1.6,3.6,3.6,3.6c0.5,0,1.1-0.1,1.5-0.3V160.9z"
				/>
		</g>
	</g>
	<g id="bee2-1">
		<g id="l-wing_1_">
			<path id="l-wing-in_1_" class="st3" d="M36.8,62.5c-2.3,0-4.1,1.9-4.1,4.1c0,2.3,1.9,4.1,4.1,4.1c2,0,4.9,0,6.5,0
				C42.9,67.8,40.9,62.5,36.8,62.5z"/>
			<path id="l-wing-out_1_" class="st2" d="M45.5,71.8c0-2.9-2.1-11.3-8.6-11.3c-3.4,0-6.2,2.8-6.2,6.2s2.8,6.2,6.2,6.2
				c2.8,0,7.6,0,7.6,0C45,72.8,45.5,72.4,45.5,71.8z M32.7,66.7c0-2.3,1.9-4.1,4.1-4.1c4.1,0,6.1,5.2,6.5,8.2c-1.6,0-4.5,0-6.5,0
				C34.5,70.8,32.7,69,32.7,66.7z"/>
		</g>
		<g id="r-wing_1_">
			<path id="r-wing-in_1_" class="st3" d="M43.3,88.2c-1.6,0-4.5,0-6.5,0c-2.3,0-4.1,1.9-4.1,4.1c0,2.3,1.9,4.1,4.1,4.1
				C40.9,96.5,42.9,91.3,43.3,88.2z"/>
			<path id="r-wing-out_1_" class="st2" d="M45.5,87.2c0-0.6-0.5-1-1-1c0,0-4.8,0-7.6,0c-3.4,0-6.2,2.8-6.2,6.2s2.8,6.2,6.2,6.2
				C43.3,98.5,45.5,90.1,45.5,87.2z M32.7,92.4c0-2.3,1.9-4.1,4.1-4.1c2,0,4.9,0,6.5,0c-0.4,3-2.4,8.2-6.5,8.2
				C34.5,96.5,32.7,94.6,32.7,92.4z"/>
		</g>
		<g id="body_1_">
			<path id="yellow-stripe_1_" class="st1" d="M35.5,72.8c-0.9,0-1.7,0.2-2.5,0.5v12.4c0.8,0.3,1.6,0.5,2.5,0.5h0.3V72.8H35.5z"/>
			<path id="right-eye_1_" class="st3" d="M48.7,83.2c-0.8,0-1.5,0.7-1.5,1.5c0,0.8,0.7,1.5,1.5,1.5c2.3,0,4.3-1.2,5.5-3H48.7z"/>
			<path id="head_1_" class="st1" d="M48.7,81.1H55c0.1-0.5,0.2-1,0.2-1.6c0-0.6-0.1-1.1-0.2-1.6h-6.4c-2,0-3.6-1.6-3.6-3.6
				c0-0.5,0.1-1.1,0.3-1.5h-2.8v13.3h2.8c-0.2-0.5-0.3-1-0.3-1.5C45.1,82.7,46.7,81.1,48.7,81.1z"/>
			<path id="left-eye_1_" class="st3" d="M47.2,74.3c0,0.8,0.7,1.5,1.5,1.5h5.5c-1.2-1.8-3.2-3-5.5-3C47.8,72.9,47.2,73.5,47.2,74.3
				z"/>
			<path id="outline_1_" class="st2" d="M48.8,88.2c3.4-0.1,6.3-2.1,7.7-5.1h3.6c0.8,0,1.5,0.7,1.5,1.5c0,0.8-0.7,1.5-1.5,1.5
				c-0.6,0-1,0.5-1,1c0,0.6,0.5,1,1,1c2,0,3.6-1.6,3.6-3.6c0-2-1.6-3.6-3.6-3.6h-2.9c0.1-0.5,0.1-1.1,0.1-1.6c0-0.5-0.1-1.1-0.1-1.6
				h2.9c2,0,3.6-1.6,3.6-3.6s-1.6-3.6-3.6-3.6c-0.6,0-1,0.5-1,1s0.5,1,1,1c0.8,0,1.5,0.7,1.5,1.5s-0.7,1.5-1.5,1.5h-3.6
				c-1.4-2.9-4.3-5-7.7-5.1c0,0-0.1,0-0.1,0c0,0,0,0,0,0c0,0-0.1,0-0.1,0h-6.8c-0.1,0-0.1,0-0.2,0s-0.1,0-0.2,0H37
				c-0.1,0-0.1,0-0.2,0s-0.1,0-0.2,0h-1.1c-1.4,0-2.7,0.3-3.9,0.9c-0.1,0-0.2,0.1-0.2,0.1c-2.5,1.3-4.2,3.8-4.6,6.7h-1.5
				c-0.6,0-1,0.5-1,1s0.5,1,1,1h1.5c0.5,4.3,4.2,7.7,8.7,7.7h13c0,0,0.1,0,0.1,0c0,0,0,0,0,0C48.7,88.2,48.7,88.2,48.8,88.2z
				 M54.1,83.2c-1.2,1.8-3.2,3-5.5,3c-0.8,0-1.5-0.7-1.5-1.5c0-0.8,0.7-1.5,1.5-1.5H54.1z M54.1,75.9h-5.5c-0.8,0-1.5-0.7-1.5-1.5
				c0-0.8,0.7-1.5,1.5-1.5C50.9,72.9,53,74.1,54.1,75.9z M35.5,86.2c-0.9,0-1.7-0.2-2.5-0.5V73.3c0.8-0.3,1.6-0.5,2.5-0.5h0.3v13.3
				H35.5z M42.7,86.2V72.8h2.8c-0.2,0.5-0.3,1-0.3,1.5c0,2,1.6,3.6,3.6,3.6H55c0.1,0.5,0.2,1,0.2,1.6c0,0.6-0.1,1.1-0.2,1.6h-6.4
				c-2,0-3.6,1.6-3.6,3.6c0,0.5,0.1,1.1,0.3,1.5H42.7z"/>
		</g>
	</g>
</g>
<g id="info1">
	<rect id="bg" y="0" class="st0" width="319.4" height="197.4"/>
	<g id="honeycomb">
		<path id="honey-comb" class="st1" d="M293.8,115.5h-21.5v-0.1l-8.8-16.1l8.8-16.1h21.3l10.5-19.1L293.6,45h-21.3l-9.7-17.7h-23.8
			l-10.4,19.1l9.7,17.7l-8.8,16.1h-19.6L200,62.6h-22.6L167.8,45h-21.3l-9.7-17.7H113l-10.4,19.1l9.7,17.7l-8.8,16.1H83.8l-9.7-17.7
			H50.5l-9.7,17.7H18.9L8.4,99.3l10.5,19.1h22l8.8,16.1l-9.7,17.7l10.5,19.1h23.8l10.5-19.1l-9.7-17.7l8.8-16.1h19.5l9.7,17.7h21.3
			l9.7,17.7h22.6l9.6,17.6h23.8l10.5-19.1l-9.7-17.7l8.8-16.1h19.5l9.7,17.7h21.3l9.7,17.7h23.8l10.5-19.1L293.8,115.5z M291.8,48
			l8.8,16.1l-8.8,16.1h-19.5l-8.8-16.1l8.8-16.1H291.8z M231.9,46.6l8.7-16.2h20.3l8.5,15.5l-9.1,16.8h-19.5L231.9,46.6z
			 M240.6,65.6h19.5l9.1,16.8l-8.5,15.5h-20.3l-4.4-8.1l-4.4-8.1L240.6,65.6z M178.1,65.6h20.3l8.5,15.5l-9.2,16.8h-19.5l-4.4-8.1
			l-4.4-8.1L178.1,65.6z M138.3,100.6l-0.7-1.2l8.8-16.1h20.3l4.4,8.1l4.4,8.1l-4.4,8.1l-4.3,8h-20.3v-0.1L138.3,100.6z M166,48
			l8.8,16.1L166,80.2h-19.5l-8.8-16.1l8.8-16.1H166z M106.1,46.6l8.7-16.2H135l8.5,15.5l-9.1,16.8h-19.5L106.1,46.6z M114.8,65.6
			h19.5l9.1,16.8l-8.5,15.5h-20.3l-4.4-8.1l-4.4-8.1L114.8,65.6z M52.2,65.6h20.3L81,81l-9.2,16.8H52.2l-4.4-8.1l-4.4-8.1L52.2,65.6
			z M20.5,115.6l-8.7-16.3l8.8-16.1h20.3l4.4,8.1l4.4,8.1l-4.4,8.1l-4.4,8.1H20.5z M81.3,152.2l-8.8,16.1H52.2l-8.8-16.1l8.8-16.1
			h20.3L81.3,152.2z M72.4,133.1H52.2L43.4,117l4.4-8.1l4.4-8.1h19.6l9.1,16.8L72.4,133.1z M103.4,115.4H83.8L75,99.3l8.8-16.1h19.5
			l4.4,8.1l4.4,8.1l-4.4,8.1L103.4,115.4z M134.3,133.1h-19.5L106,117l4.4-8.1l4.4-8.1h20.3l8.5,15.5L134.3,133.1z M166,150.8h-20.3
			l-8.5-15.5l9.1-16.8h19.5l8.8,16.1L166,150.8z M207.2,152.2l-8.8,16.1h-20.3l-8.8-16.1l8.8-16.1h20.3L207.2,152.2z M198.2,133.1
			h-20.2l-8.8-16.1l4.4-8.1l4.4-8.1h19.6l9.1,16.8L198.2,133.1z M229.2,115.4h-19.5l-8.8-16.1l8.8-16.1h19.5l4.4,8.1l4.4,8.1
			l-4.4,8.1L229.2,115.4z M260.2,133.1h-19.5l-8.8-16.1l4.4-8.1l4.4-8.1h20.3l8.5,15.5L260.2,133.1z M291.8,150.8h-20.3l-8.5-15.5
			l9.1-16.8h19.5l8.8,16.1L291.8,150.8z"/>
		<polygon id="hex" class="st1" points="116.6,94.8 133.2,94.8 140.1,82.1 132.7,68.4 116.7,68.4 109.4,81.6 113,88.2 		"/>
		<polygon id="hex_1_" class="st1" points="179.7,103.7 172.5,116.9 176,123.5 179.6,130.2 196.2,130.2 203.2,117.5 195.7,103.7 		
			"/>
		<polygon id="hex_2_" class="st1" points="258.9,59.7 265.9,47 258.4,33.2 242.4,33.2 235.2,46.4 238.8,53 242.4,59.7 		"/>
		<polygon id="hex_3_" class="st1" points="54.2,103.7 47,116.9 50.5,123.5 54.1,130.2 70.7,130.2 77.7,117.5 70.2,103.7 		"/>
		<polygon id="hex_4_" class="st1" points="179.9,139 172.5,152.1 176.1,158.8 179.8,165.4 196.8,165.4 203.9,152.7 196.2,139 		"/>
		<polygon id="hex_5_" class="st1" points="163.9,122.1 147.9,122.1 140.7,135.3 144.2,141.9 147.8,148.5 164.4,148.5 171.4,135.9 
					"/>
	</g>
	<g id="bee1-3">
		<g id="l-wing_20_">
			<path id="l-wing-in_20_" class="st3" d="M55.2,63.9c-2.3,0-4.1,1.9-4.1,4.1c0,2.3,1.9,4.1,4.1,4.1c2,0,4.9,0,6.5,0
				C61.3,69.1,59.3,63.9,55.2,63.9z"/>
			<path id="l-wing-out_20_" class="st2" d="M63.8,73.2c0-2.9-2.1-11.3-8.6-11.3c-3.4,0-6.2,2.8-6.2,6.2s2.8,6.2,6.2,6.2
				c2.8,0,7.6,0,7.6,0C63.4,74.2,63.8,73.7,63.8,73.2z M51.1,68c0-2.3,1.9-4.1,4.1-4.1c4.1,0,6.1,5.2,6.5,8.2c-1.6,0-4.5,0-6.5,0
				C52.9,72.2,51.1,70.3,51.1,68z"/>
		</g>
		<g id="r-wing_20_">
			<path id="r-wing-in_20_" class="st3" d="M61.7,89.6c-1.6,0-4.5,0-6.5,0c-2.3,0-4.1,1.9-4.1,4.1c0,2.3,1.9,4.1,4.1,4.1
				C59.3,97.9,61.3,92.6,61.7,89.6z"/>
			<path id="r-wing-out_20_" class="st2" d="M63.8,88.6c0-0.6-0.5-1-1-1c0,0-4.8,0-7.6,0c-3.4,0-6.2,2.8-6.2,6.2
				c0,3.4,2.8,6.2,6.2,6.2C61.7,99.9,63.8,91.5,63.8,88.6z M51.1,93.7c0-2.3,1.9-4.1,4.1-4.1c2,0,4.9,0,6.5,0
				c-0.4,3-2.4,8.2-6.5,8.2C52.9,97.9,51.1,96,51.1,93.7z"/>
		</g>
		<g id="body_20_">
			<path id="yellow-stripe_20_" class="st1" d="M53.9,74.2c-0.9,0-1.7,0.2-2.5,0.5v12.4c0.8,0.3,1.6,0.5,2.5,0.5h0.3V74.2H53.9z"/>
			<path id="right-eye_20_" class="st3" d="M67.1,84.5c-0.8,0-1.5,0.7-1.5,1.5c0,0.8,0.7,1.5,1.5,1.5c2.3,0,4.3-1.2,5.5-3H67.1z"/>
			<path id="head_20_" class="st1" d="M67.1,82.5h6.4c0.1-0.5,0.2-1,0.2-1.6c0-0.6-0.1-1.1-0.2-1.6h-6.4c-2,0-3.6-1.6-3.6-3.6
				c0-0.5,0.1-1.1,0.3-1.5H61v13.3h2.8c-0.2-0.5-0.3-1-0.3-1.5C63.5,84.1,65.1,82.5,67.1,82.5z"/>
			<path id="left-eye_20_" class="st3" d="M65.5,75.7c0,0.8,0.7,1.5,1.5,1.5h5.5c-1.2-1.8-3.2-3-5.5-3
				C66.2,74.2,65.5,74.9,65.5,75.7z"/>
			<path id="outline_20_" class="st2" d="M67.2,89.6c3.4-0.1,6.3-2.1,7.7-5.1h3.6c0.8,0,1.5,0.7,1.5,1.5c0,0.8-0.7,1.5-1.5,1.5
				c-0.6,0-1,0.5-1,1c0,0.6,0.5,1,1,1c2,0,3.6-1.6,3.6-3.6c0-2-1.6-3.6-3.6-3.6h-2.9c0.1-0.5,0.1-1.1,0.1-1.6c0-0.5-0.1-1.1-0.1-1.6
				h2.9c2,0,3.6-1.6,3.6-3.6s-1.6-3.6-3.6-3.6c-0.6,0-1,0.5-1,1s0.5,1,1,1c0.8,0,1.5,0.7,1.5,1.5s-0.7,1.5-1.5,1.5h-3.6
				c-1.4-2.9-4.3-5-7.7-5.1c0,0-0.1,0-0.1,0c0,0,0,0,0,0c0,0-0.1,0-0.1,0h-6.8c-0.1,0-0.1,0-0.2,0s-0.1,0-0.2,0h-4.5
				c-0.1,0-0.1,0-0.2,0s-0.1,0-0.2,0h-1.1c-1.4,0-2.7,0.3-3.9,0.9c-0.1,0-0.2,0.1-0.2,0.1c-2.5,1.3-4.2,3.8-4.6,6.7h-1.5
				c-0.6,0-1,0.5-1,1s0.5,1,1,1h1.5c0.5,4.3,4.2,7.7,8.7,7.7h13c0,0,0.1,0,0.1,0c0,0,0,0,0,0C67.1,89.6,67.1,89.6,67.2,89.6z
				 M72.5,84.5c-1.2,1.8-3.2,3-5.5,3c-0.8,0-1.5-0.7-1.5-1.5c0-0.8,0.7-1.5,1.5-1.5H72.5z M72.5,77.2h-5.5c-0.8,0-1.5-0.7-1.5-1.5
				c0-0.8,0.7-1.5,1.5-1.5C69.3,74.2,71.3,75.4,72.5,77.2z M53.9,87.5c-0.9,0-1.7-0.2-2.5-0.5V74.7c0.8-0.3,1.6-0.5,2.5-0.5h0.3
				v13.3H53.9z M61,87.5V74.2h2.8c-0.2,0.5-0.3,1-0.3,1.5c0,2,1.6,3.6,3.6,3.6h6.4c0.1,0.5,0.2,1,0.2,1.6c0,0.6-0.1,1.1-0.2,1.6
				h-6.4c-2,0-3.6,1.6-3.6,3.6c0,0.5,0.1,1.1,0.3,1.5H61z"/>
		</g>
	</g>
	<g id="bee1-2">
		<g id="l-wing_19_">
			<path id="l-wing-in_19_" class="st3" d="M142,141.8c0,2.3,1.9,4.1,4.1,4.1c2.3,0,4.1-1.9,4.1-4.1c0-2,0-4.9,0-6.5
				C147.2,135.6,142,137.6,142,141.8z"/>
			<path id="l-wing-out_19_" class="st2" d="M151.2,133.1c-2.9,0-11.3,2.1-11.3,8.6c0,3.4,2.8,6.2,6.2,6.2c3.4,0,6.2-2.8,6.2-6.2
				c0-2.8,0-7.6,0-7.6C152.3,133.6,151.8,133.1,151.2,133.1z M146.1,145.9c-2.3,0-4.1-1.9-4.1-4.1c0-4.1,5.2-6.1,8.2-6.5
				c0,1.6,0,4.5,0,6.5C150.3,144,148.4,145.9,146.1,145.9z"/>
		</g>
		<g id="r-wing_19_">
			<path id="r-wing-in_19_" class="st3" d="M167.7,135.2c0,1.6,0,4.5,0,6.5c0,2.3,1.9,4.1,4.1,4.1s4.1-1.9,4.1-4.1
				C175.9,137.6,170.7,135.6,167.7,135.2z"/>
			<path id="r-wing-out_19_" class="st2" d="M166.7,133.1c-0.6,0-1,0.5-1,1c0,0,0,4.8,0,7.6c0,3.4,2.8,6.2,6.2,6.2
				c3.4,0,6.2-2.8,6.2-6.2C178,135.2,169.6,133.1,166.7,133.1z M171.8,145.9c-2.3,0-4.1-1.9-4.1-4.1c0-2,0-4.9,0-6.5
				c3,0.4,8.2,2.4,8.2,6.5C175.9,144,174.1,145.9,171.8,145.9z"/>
		</g>
		<g id="body_19_">
			<path id="yellow-stripe_19_" class="st1" d="M152.3,143.1c0,0.9,0.2,1.7,0.5,2.5h12.4c0.3-0.8,0.5-1.6,0.5-2.5v-0.3h-13.3V143.1z
				"/>
			<path id="right-eye_19_" class="st3" d="M162.6,129.9c0,0.8,0.7,1.5,1.5,1.5c0.8,0,1.5-0.7,1.5-1.5c0-2.3-1.2-4.3-3-5.5V129.9z"
				/>
			<path id="head_19_" class="st1" d="M160.5,129.9v-6.4c-0.5-0.1-1-0.2-1.6-0.2c-0.6,0-1.1,0.1-1.6,0.2v6.4c0,2-1.6,3.6-3.6,3.6
				c-0.5,0-1.1-0.1-1.5-0.3v2.8h13.3v-2.8c-0.5,0.2-1,0.3-1.5,0.3C162.1,133.5,160.5,131.9,160.5,129.9z"/>
			<path id="left-eye_19_" class="st3" d="M153.8,131.4c0.8,0,1.5-0.7,1.5-1.5v-5.5c-1.8,1.2-3,3.2-3,5.5
				C152.3,130.8,153,131.4,153.8,131.4z"/>
			<path id="outline_19_" class="st2" d="M167.7,129.8c-0.1-3.4-2.1-6.3-5.1-7.7v-3.6c0-0.8,0.7-1.5,1.5-1.5c0.8,0,1.5,0.7,1.5,1.5
				c0,0.6,0.5,1,1,1c0.6,0,1-0.5,1-1c0-2-1.6-3.6-3.6-3.6c-2,0-3.6,1.6-3.6,3.6v2.9c-0.5-0.1-1.1-0.1-1.6-0.1
				c-0.5,0-1.1,0.1-1.6,0.1v-2.9c0-2-1.6-3.6-3.6-3.6c-2,0-3.6,1.6-3.6,3.6c0,0.6,0.5,1,1,1c0.6,0,1-0.5,1-1c0-0.8,0.7-1.5,1.5-1.5
				s1.5,0.7,1.5,1.5v3.6c-2.9,1.4-5,4.3-5.1,7.7c0,0,0,0.1,0,0.1c0,0,0,0,0,0c0,0,0,0.1,0,0.1v6.8c0,0.1,0,0.1,0,0.2
				c0,0.1,0,0.1,0,0.2v4.5c0,0.1,0,0.1,0,0.2c0,0.1,0,0.1,0,0.2v1.1c0,1.4,0.3,2.7,0.9,3.9c0,0.1,0.1,0.2,0.1,0.2
				c1.3,2.5,3.8,4.2,6.7,4.6v1.5c0,0.6,0.5,1,1,1c0.6,0,1-0.5,1-1v-1.5c4.3-0.5,7.7-4.2,7.7-8.7v-13c0,0,0-0.1,0-0.1c0,0,0,0,0,0
				C167.7,129.9,167.7,129.8,167.7,129.8z M162.6,124.4c1.8,1.2,3,3.2,3,5.5c0,0.8-0.7,1.5-1.5,1.5c-0.8,0-1.5-0.7-1.5-1.5V124.4z
				 M155.3,124.4v5.5c0,0.8-0.7,1.5-1.5,1.5c-0.8,0-1.5-0.7-1.5-1.5C152.3,127.6,153.5,125.6,155.3,124.4z M165.6,143.1
				c0,0.9-0.2,1.7-0.5,2.5h-12.4c-0.3-0.8-0.5-1.6-0.5-2.5v-0.3h13.3V143.1z M165.6,135.9h-13.3v-2.8c0.5,0.2,1,0.3,1.5,0.3
				c2,0,3.6-1.6,3.6-3.6v-6.4c0.5-0.1,1-0.2,1.6-0.2c0.6,0,1.1,0.1,1.6,0.2v6.4c0,2,1.6,3.6,3.6,3.6c0.5,0,1.1-0.1,1.5-0.3V135.9z"
				/>
		</g>
	</g>
	<g id="bee1-1">
		<g id="l-wing_18_">
			<path id="l-wing-in_18_" class="st3" d="M259.8,98.6c2.3,0,4.1-1.9,4.1-4.1c0-2.3-1.9-4.1-4.1-4.1c-2,0-4.9,0-6.5,0
				C253.6,93.3,255.6,98.6,259.8,98.6z"/>
			<path id="l-wing-out_18_" class="st2" d="M251.1,89.3c0,2.9,2.1,11.3,8.6,11.3c3.4,0,6.2-2.8,6.2-6.2s-2.8-6.2-6.2-6.2
				c-2.8,0-7.6,0-7.6,0C251.6,88.3,251.1,88.7,251.1,89.3z M263.9,94.4c0,2.3-1.9,4.1-4.1,4.1c-4.1,0-6.1-5.2-6.5-8.2
				c1.6,0,4.5,0,6.5,0C262,90.3,263.9,92.1,263.9,94.4z"/>
		</g>
		<g id="r-wing_18_">
			<path id="r-wing-in_18_" class="st3" d="M253.2,72.9c1.6,0,4.5,0,6.5,0c2.3,0,4.1-1.9,4.1-4.1c0-2.3-1.9-4.1-4.1-4.1
				C255.6,64.6,253.6,69.8,253.2,72.9z"/>
			<path id="r-wing-out_18_" class="st2" d="M251.1,73.9c0,0.6,0.5,1,1,1c0,0,4.8,0,7.6,0c3.4,0,6.2-2.8,6.2-6.2
				c0-3.4-2.8-6.2-6.2-6.2C253.2,62.6,251.1,71,251.1,73.9z M263.9,68.7c0,2.3-1.9,4.1-4.1,4.1c-2,0-4.9,0-6.5,0
				c0.4-3,2.4-8.2,6.5-8.2C262,64.6,263.9,66.5,263.9,68.7z"/>
		</g>
		<g id="body_18_">
			<path id="yellow-stripe_18_" class="st1" d="M261,88.3c0.9,0,1.7-0.2,2.5-0.5V75.4c-0.8-0.3-1.6-0.5-2.5-0.5h-0.3v13.3H261z"/>
			<path id="right-eye_18_" class="st3" d="M247.9,77.9c0.8,0,1.5-0.7,1.5-1.5c0-0.8-0.7-1.5-1.5-1.5c-2.3,0-4.3,1.2-5.5,3H247.9z"
				/>
			<path id="head_18_" class="st1" d="M247.9,80h-6.4c-0.1,0.5-0.2,1-0.2,1.6c0,0.6,0.1,1.1,0.2,1.6h6.4c2,0,3.6,1.6,3.6,3.6
				c0,0.5-0.1,1.1-0.3,1.5h2.8V74.9h-2.8c0.2,0.5,0.3,1,0.3,1.5C251.5,78.4,249.9,80,247.9,80z"/>
			<path id="left-eye_18_" class="st3" d="M249.4,86.8c0-0.8-0.7-1.5-1.5-1.5h-5.5c1.2,1.8,3.2,3,5.5,3
				C248.8,88.2,249.4,87.6,249.4,86.8z"/>
			<path id="outline_18_" class="st2" d="M247.8,72.9c-3.4,0.1-6.3,2.1-7.7,5.1h-3.6c-0.8,0-1.5-0.7-1.5-1.5c0-0.8,0.7-1.5,1.5-1.5
				c0.6,0,1-0.5,1-1s-0.5-1-1-1c-2,0-3.6,1.6-3.6,3.6c0,2,1.6,3.6,3.6,3.6h2.9c-0.1,0.5-0.1,1.1-0.1,1.6c0,0.5,0.1,1.1,0.1,1.6h-2.9
				c-2,0-3.6,1.6-3.6,3.6c0,2,1.6,3.6,3.6,3.6c0.6,0,1-0.5,1-1s-0.5-1-1-1c-0.8,0-1.5-0.7-1.5-1.5c0-0.8,0.7-1.5,1.5-1.5h3.6
				c1.4,2.9,4.3,5,7.7,5.1c0,0,0.1,0,0.1,0c0,0,0,0,0,0c0,0,0.1,0,0.1,0h6.8c0.1,0,0.1,0,0.2,0c0.1,0,0.1,0,0.2,0h4.5
				c0.1,0,0.1,0,0.2,0c0.1,0,0.1,0,0.2,0h1.1c1.4,0,2.7-0.3,3.9-0.9c0.1,0,0.2-0.1,0.2-0.1c2.5-1.3,4.2-3.8,4.6-6.7h1.5
				c0.6,0,1-0.5,1-1c0-0.6-0.5-1-1-1h-1.5c-0.5-4.3-4.2-7.7-8.7-7.7h-13c0,0-0.1,0-0.1,0c0,0,0,0,0,0
				C247.9,72.9,247.8,72.9,247.8,72.9z M242.4,77.9c1.2-1.8,3.2-3,5.5-3c0.8,0,1.5,0.7,1.5,1.5c0,0.8-0.7,1.5-1.5,1.5H242.4z
				 M242.4,85.2h5.5c0.8,0,1.5,0.7,1.5,1.5c0,0.8-0.7,1.5-1.5,1.5C245.6,88.2,243.6,87,242.4,85.2z M261,74.9c0.9,0,1.7,0.2,2.5,0.5
				v12.4c-0.8,0.3-1.6,0.5-2.5,0.5h-0.3V74.9H261z M253.9,74.9v13.3h-2.8c0.2-0.5,0.3-1,0.3-1.5c0-2-1.6-3.6-3.6-3.6h-6.4
				c-0.1-0.5-0.2-1-0.2-1.6c0-0.6,0.1-1.1,0.2-1.6h6.4c2,0,3.6-1.6,3.6-3.6c0-0.5-0.1-1.1-0.3-1.5H253.9z"/>
		</g>
	</g>
</g>
</svg>
