<?xml version="1.0" encoding="utf-8"?>
<!-- Generator: Adobe Illustrator 21.0.0, SVG Export Plug-In . SVG Version: 6.00 Build 0)  -->
<svg version="1.1" id="Layer_1" xmlns="http://www.w3.org/2000/svg" xmlns:xlink="http://www.w3.org/1999/xlink" x="0px" y="0px"
	 viewBox="0 0 377.5 160.7" style="enable-background:new 0 0 377.5 160.7;" xml:space="preserve">
<style type="text/css">
	.st0{fill:#E2F4FD;}
	.st1{fill:#DFBB24;}
	.st2{fill:#212121;}
	.st3{fill:#FFFFFF;}
</style>
<g>
	<rect y="0.4" class="st0" width="377.5" height="160.3"/>
</g>
<g id="hive">
	<path class="st1" d="M307.8,38.6c0,4,3.2,7.2,7.2,7.2h62.5V31.5H315C311,31.5,307.8,34.7,307.8,38.6z"/>
	<path class="st1" d="M315,48.8h-5.6c-4,0-7.2,3.2-7.2,7.2s3.2,7.2,7.2,7.2h68.1v1.5h0V47.3h0v1.5H315z"/>
	<path class="st1" d="M309.4,66.2h-5.9c-4,0-7.2,3.2-7.2,7.2s3.2,7.2,7.2,7.2H339v-0.2c0-5.6,4.6-10.2,10.2-10.2s10.2,4.6,10.2,10.2
		v0.2h18.2V66.2H309.4z"/>
	<rect x="359.3" y="83.6" class="st1" width="18.2" height="14.4"/>
	<path class="st1" d="M297.2,83.6c-4,0-7.2,3.2-7.2,7.2s3.2,7.2,7.2,7.2h6.3H339V83.6h-35.5H297.2z"/>
	<path class="st1" d="M339,100.9h-35.5c-4,0-7.2,3.2-7.2,7.2s3.2,7.2,7.2,7.2h5.9h68.1v-14.4h-18.2H339z"/>
	<path class="st1" d="M309.4,118.3c-4,0-7.2,3.2-7.2,7.2s3.2,7.2,7.2,7.2h68.1v1.5h0v-17.4h0v1.5H309.4z"/>
	<path class="st2" d="M359.3,80.3c0-5.6-4.6-10.2-10.2-10.2S339,74.7,339,80.3v0.2h-35.5c-4,0-7.2-3.2-7.2-7.2s3.2-7.2,7.2-7.2h5.9
		h68.1h0v-1.5v-1.5h-68.1c-4,0-7.2-3.2-7.2-7.2s3.2-7.2,7.2-7.2h5.6h62.5v-1.5v-1.5h0H315c-4,0-7.2-3.2-7.2-7.2s3.2-7.2,7.2-7.2
		h62.5h0v-3H315c-5.6,0-10.2,4.6-10.2,10.2c0,2.9,1.2,5.4,3.1,7.3c-4.9,0.7-8.7,5-8.7,10.1c0,2.8,1.2,5.4,3,7.3c-5,0.6-9,4.9-9,10.1
		c0,2.8,1.2,5.4,3,7.2c-5.2,0.4-9.3,4.8-9.3,10.1s4.1,9.7,9.3,10.1c-1.9,1.8-3,4.4-3,7.2c0,5.2,3.9,9.5,9,10.1c-1.9,1.8-3,4.4-3,7.3
		c0,5.6,4.6,10.2,10.2,10.2h68.1v-1.5v-1.5h-68.1c-4,0-7.2-3.2-7.2-7.2s3.2-7.2,7.2-7.2h68.1v-1.5v-1.5h0h-68.1h-5.9
		c-4,0-7.2-3.2-7.2-7.2s3.2-7.2,7.2-7.2H339h20.4h18.2h0v-3h0h-18.2V83.6h18.2h0v-3h0h-18.2V80.3z M339,97.9h-35.5h-6.3
		c-4,0-7.2-3.2-7.2-7.2s3.2-7.2,7.2-7.2h6.3H339V97.9z"/>
</g>
<g id="allbee3">
	<g id="l-wing_4_">
		<path id="l-wing-in_4_" class="st3" d="M71.9,19.5c-2.5,0-4.6,2.1-4.6,4.6s2.1,4.6,4.6,4.6c2.2,0,5.5,0,7.2,0
			C78.7,25.3,76.5,19.5,71.9,19.5z"/>
		<path id="l-wing-out_4_" class="st2" d="M81.5,29.8c0-3.2-2.4-12.6-9.6-12.6c-3.8,0-6.9,3.1-6.9,6.9s3.1,6.9,6.9,6.9
			c3.1,0,8.4,0,8.5,0C81,31,81.5,30.4,81.5,29.8z M67.3,24.1c0-2.5,2.1-4.6,4.6-4.6c4.6,0,6.8,5.8,7.2,9.2c-1.8,0-5,0-7.2,0
			C69.3,28.7,67.3,26.6,67.3,24.1z"/>
	</g>
	<g id="r-wing_4_">
		<path id="r-wing-in_4_" class="st3" d="M79.1,48.1c-1.8,0-5,0-7.2,0c-2.5,0-4.6,2.1-4.6,4.6c0,2.5,2.1,4.6,4.6,4.6
			C76.5,57.3,78.7,51.5,79.1,48.1z"/>
		<path id="r-wing-out_4_" class="st2" d="M81.5,47c0-0.6-0.5-1.1-1.1-1.1c-0.1,0-5.3,0-8.5,0c-3.8,0-6.9,3.1-6.9,6.9
			c0,3.8,3.1,6.9,6.9,6.9C79.1,59.6,81.5,50.2,81.5,47z M67.3,52.7c0-2.5,2.1-4.6,4.6-4.6c2.2,0,5.5,0,7.2,0
			c-0.4,3.4-2.7,9.2-7.2,9.2C69.3,57.3,67.3,55.2,67.3,52.7z"/>
	</g>
	<g id="body_4_">
		<path id="yellow-stripe_4_" class="st1" d="M70.4,31c-1,0-1.9,0.2-2.8,0.5v13.8c0.9,0.3,1.8,0.5,2.8,0.5h0.3V31H70.4z"/>
		<path id="right-eye_4_" class="st3" d="M85.1,42.5c-0.9,0-1.7,0.8-1.7,1.7c0,0.9,0.7,1.7,1.6,1.7c2.6,0,4.8-1.4,6.1-3.4H85.1z"/>
		<path id="head_4_" class="st1" d="M85.1,40.2h7.1c0.1-0.6,0.2-1.2,0.2-1.8c0-0.6-0.1-1.2-0.2-1.8h-7.1c-2.2,0-4-1.8-4-4
			c0-0.6,0.1-1.2,0.4-1.7h-3.1v14.9h3.1c-0.2-0.5-0.4-1.1-0.4-1.7C81.1,41.9,82.9,40.2,85.1,40.2z"/>
		<path id="left-eye_4_" class="st3" d="M83.4,32.6c0,0.9,0.8,1.7,1.7,1.7h6.1c-1.3-2-3.6-3.3-6.1-3.4C84.1,31,83.4,31.7,83.4,32.6z
			"/>
		<path id="outline_4_" class="st2" d="M85.2,48.1c3.8-0.1,7.1-2.4,8.6-5.6h4c0.9,0,1.7,0.8,1.7,1.7c0,0.9-0.8,1.7-1.7,1.7
			c-0.6,0-1.1,0.5-1.1,1.1c0,0.6,0.5,1.1,1.1,1.1c2.2,0,4-1.8,4-4c0-2.2-1.8-4-4-4h-3.2c0.1-0.6,0.2-1.2,0.2-1.8
			c0-0.6-0.1-1.2-0.2-1.8h3.2c2.2,0,4-1.8,4-4s-1.8-4-4-4c-0.6,0-1.1,0.5-1.1,1.1c0,0.6,0.5,1.1,1.1,1.1c0.9,0,1.7,0.8,1.7,1.7
			c0,0.9-0.8,1.7-1.7,1.7h-4c-1.5-3.3-4.8-5.5-8.6-5.6c0,0-0.1,0-0.1,0c0,0,0,0,0,0c0,0-0.1,0-0.1,0h-7.5c-0.1,0-0.1,0-0.2,0
			c-0.1,0-0.1,0-0.2,0h-5c-0.1,0-0.1,0-0.2,0c-0.1,0-0.1,0-0.2,0h-1.3c-1.5,0-3,0.4-4.3,1c-0.1,0-0.2,0.1-0.3,0.1
			c-2.7,1.5-4.7,4.2-5.1,7.4h-1.7c-0.6,0-1.1,0.5-1.1,1.1c0,0.6,0.5,1.1,1.1,1.1h1.7c0.6,4.8,4.7,8.6,9.6,8.6h14.5c0,0,0.1,0,0.1,0
			c0,0,0,0,0,0C85.1,48.1,85.1,48.1,85.2,48.1z M91.2,42.5c-1.3,2-3.6,3.3-6.1,3.4c-0.9,0-1.6-0.8-1.6-1.7c0-0.9,0.8-1.7,1.7-1.7
			H91.2z M91.2,34.3h-6.1c-0.9,0-1.7-0.8-1.7-1.7c0-0.9,0.7-1.7,1.6-1.7C87.6,31,89.8,32.3,91.2,34.3z M70.4,45.8
			c-1,0-1.9-0.2-2.8-0.5V31.5c0.9-0.3,1.8-0.5,2.8-0.5h0.3v14.9H70.4z M78.4,45.8V31h3.1c-0.2,0.5-0.4,1.1-0.4,1.7c0,2.2,1.8,4,4,4
			h7.1c0.1,0.6,0.2,1.2,0.2,1.8c0,0.6-0.1,1.2-0.2,1.8h-7.1c-2.2,0-4,1.8-4,4c0,0.6,0.1,1.2,0.4,1.7H78.4z"/>
	</g>
</g>
<g id="allbee2">
	<g id="l-wing_5_">
		<path id="l-wing-in_5_" class="st3" d="M146,106.6c-2.5,0-4.6,2.1-4.6,4.6c0,2.5,2.1,4.6,4.6,4.6c2.2,0,5.5,0,7.2,0
			C152.8,112.4,150.6,106.6,146,106.6z"/>
		<path id="l-wing-out_5_" class="st2" d="M155.6,116.9c0-3.2-2.4-12.6-9.6-12.6c-3.8,0-6.9,3.1-6.9,6.9c0,3.8,3.1,6.9,6.9,6.9
			c3.1,0,8.4,0,8.5,0C155.1,118,155.6,117.5,155.6,116.9z M141.4,111.2c0-2.5,2.1-4.6,4.6-4.6c4.6,0,6.8,5.8,7.2,9.2
			c-1.8,0-5,0-7.2,0C143.5,115.8,141.4,113.7,141.4,111.2z"/>
	</g>
	<g id="r-wing_5_">
		<path id="r-wing-in_5_" class="st3" d="M153.3,135.2c-1.8,0-5,0-7.2,0c-2.5,0-4.6,2.1-4.6,4.6c0,2.5,2.1,4.6,4.6,4.6
			C150.6,144.4,152.8,138.5,153.3,135.2z"/>
		<path id="r-wing-out_5_" class="st2" d="M155.6,134.1c0-0.6-0.5-1.1-1.1-1.1c-0.1,0-5.3,0-8.5,0c-3.8,0-6.9,3.1-6.9,6.9
			c0,3.8,3.1,6.9,6.9,6.9C153.3,146.7,155.6,137.3,155.6,134.1z M141.4,139.8c0-2.5,2.1-4.6,4.6-4.6c2.2,0,5.5,0,7.2,0
			c-0.4,3.4-2.7,9.2-7.2,9.2C143.5,144.4,141.4,142.3,141.4,139.8z"/>
	</g>
	<g id="body_5_">
		<path id="yellow-stripe_5_" class="st1" d="M144.6,118c-1,0-1.9,0.2-2.8,0.5v13.8c0.9,0.3,1.8,0.5,2.8,0.5h0.3V118H144.6z"/>
		<path id="right-eye_5_" class="st3" d="M159.2,129.5c-0.9,0-1.7,0.8-1.7,1.7c0,0.9,0.7,1.7,1.6,1.7c2.6,0,4.8-1.4,6.1-3.4H159.2z"
			/>
		<path id="head_5_" class="st1" d="M159.2,127.2h7.1c0.1-0.6,0.2-1.2,0.2-1.8c0-0.6-0.1-1.2-0.2-1.8h-7.1c-2.2,0-4-1.8-4-4
			c0-0.6,0.1-1.2,0.4-1.7h-3.1v14.9h3.1c-0.2-0.5-0.4-1.1-0.4-1.7C155.2,129,157,127.2,159.2,127.2z"/>
		<path id="left-eye_5_" class="st3" d="M157.5,119.7c0,0.9,0.8,1.7,1.7,1.7h6.1c-1.3-2-3.6-3.3-6.1-3.4
			C158.3,118.1,157.5,118.8,157.5,119.7z"/>
		<path id="outline_5_" class="st2" d="M159.3,135.2c3.8-0.1,7.1-2.4,8.6-5.6h4c0.9,0,1.7,0.8,1.7,1.7c0,0.9-0.8,1.7-1.7,1.7
			c-0.6,0-1.1,0.5-1.1,1.1s0.5,1.1,1.1,1.1c2.2,0,4-1.8,4-4c0-2.2-1.8-4-4-4h-3.2c0.1-0.6,0.2-1.2,0.2-1.8c0-0.6-0.1-1.2-0.2-1.8
			h3.2c2.2,0,4-1.8,4-4s-1.8-4-4-4c-0.6,0-1.1,0.5-1.1,1.1s0.5,1.1,1.1,1.1c0.9,0,1.7,0.8,1.7,1.7s-0.8,1.7-1.7,1.7h-4
			c-1.5-3.3-4.8-5.5-8.6-5.6c0,0-0.1,0-0.1,0c0,0,0,0,0,0c0,0-0.1,0-0.1,0h-7.5c-0.1,0-0.1,0-0.2,0c-0.1,0-0.1,0-0.2,0h-5
			c-0.1,0-0.1,0-0.2,0c-0.1,0-0.1,0-0.2,0h-1.3c-1.5,0-3,0.4-4.3,1c-0.1,0-0.2,0.1-0.3,0.1c-2.7,1.5-4.7,4.2-5.1,7.4h-1.7
			c-0.6,0-1.1,0.5-1.1,1.1c0,0.6,0.5,1.1,1.1,1.1h1.7c0.6,4.8,4.7,8.6,9.6,8.6h14.5c0,0,0.1,0,0.1,0c0,0,0,0,0,0
			C159.2,135.2,159.3,135.2,159.3,135.2z M165.3,129.5c-1.3,2-3.6,3.3-6.1,3.4c-0.9,0-1.6-0.8-1.6-1.7c0-0.9,0.8-1.7,1.7-1.7H165.3z
			 M165.3,121.4h-6.1c-0.9,0-1.7-0.8-1.7-1.7c0-0.9,0.7-1.7,1.6-1.7C161.7,118.1,164,119.4,165.3,121.4z M144.6,132.9
			c-1,0-1.9-0.2-2.8-0.5v-13.8c0.9-0.3,1.8-0.5,2.8-0.5h0.3v14.9H144.6z M152.5,132.9V118h3.1c-0.2,0.5-0.4,1.1-0.4,1.7
			c0,2.2,1.8,4,4,4h7.1c0.1,0.6,0.2,1.2,0.2,1.8c0,0.6-0.1,1.2-0.2,1.8h-7.1c-2.2,0-4,1.8-4,4c0,0.6,0.1,1.2,0.4,1.7H152.5z"/>
	</g>
</g>
<g id="allbee1">
	<g id="l-wing_6_">
		<path id="l-wing-in_6_" class="st3" d="M225.5,42c-2.5,0-4.6,2.1-4.6,4.6c0,2.5,2.1,4.6,4.6,4.6c2.2,0,5.5,0,7.2,0
			C232.3,47.8,230.1,42,225.5,42z"/>
		<path id="l-wing-out_6_" class="st2" d="M235.1,52.3c0-3.2-2.4-12.6-9.6-12.6c-3.8,0-6.9,3.1-6.9,6.9c0,3.8,3.1,6.9,6.9,6.9
			c3.1,0,8.4,0,8.5,0C234.6,53.4,235.1,52.9,235.1,52.3z M220.9,46.6c0-2.5,2.1-4.6,4.6-4.6c4.6,0,6.8,5.8,7.2,9.2c-1.8,0-5,0-7.2,0
			C223,51.2,220.9,49.1,220.9,46.6z"/>
	</g>
	<g id="r-wing_6_">
		<path id="r-wing-in_6_" class="st3" d="M232.7,70.6c-1.8,0-5,0-7.2,0c-2.5,0-4.6,2.1-4.6,4.6s2.1,4.6,4.6,4.6
			C230.1,79.8,232.3,74,232.7,70.6z"/>
		<path id="r-wing-out_6_" class="st2" d="M235.1,69.5c0-0.6-0.5-1.1-1.1-1.1c-0.1,0-5.3,0-8.5,0c-3.8,0-6.9,3.1-6.9,6.9
			c0,3.8,3.1,6.9,6.9,6.9C232.7,82.1,235.1,72.7,235.1,69.5z M220.9,75.2c0-2.5,2.1-4.6,4.6-4.6c2.2,0,5.5,0,7.2,0
			c-0.4,3.4-2.7,9.2-7.2,9.2C223,79.8,220.9,77.7,220.9,75.2z"/>
	</g>
	<g id="body_6_">
		<path id="yellow-stripe_6_" class="st1" d="M224.1,53.4c-1,0-1.9,0.2-2.8,0.5v13.8c0.9,0.3,1.8,0.5,2.8,0.5h0.3V53.4H224.1z"/>
		<path id="right-eye_6_" class="st3" d="M238.7,64.9c-0.9,0-1.7,0.8-1.7,1.7c0,0.9,0.7,1.7,1.6,1.7c2.6,0,4.8-1.4,6.1-3.4H238.7z"
			/>
		<path id="head_6_" class="st1" d="M238.7,62.7h7.1c0.1-0.6,0.2-1.2,0.2-1.8c0-0.6-0.1-1.2-0.2-1.8h-7.1c-2.2,0-4-1.8-4-4
			c0-0.6,0.1-1.2,0.4-1.7H232v14.9h3.1c-0.2-0.5-0.4-1.1-0.4-1.7C234.7,64.4,236.5,62.7,238.7,62.7z"/>
		<path id="left-eye_6_" class="st3" d="M237,55.1c0,0.9,0.8,1.7,1.7,1.7h6.1c-1.3-2-3.6-3.3-6.1-3.4C237.7,53.5,237,54.2,237,55.1z
			"/>
		<path id="outline_6_" class="st2" d="M238.8,70.6c3.8-0.1,7.1-2.4,8.6-5.6h4c0.9,0,1.7,0.8,1.7,1.7c0,0.9-0.8,1.7-1.7,1.7
			c-0.6,0-1.1,0.5-1.1,1.1s0.5,1.1,1.1,1.1c2.2,0,4-1.8,4-4c0-2.2-1.8-4-4-4h-3.2c0.1-0.6,0.2-1.2,0.2-1.8c0-0.6-0.1-1.2-0.2-1.8
			h3.2c2.2,0,4-1.8,4-4s-1.8-4-4-4c-0.6,0-1.1,0.5-1.1,1.1c0,0.6,0.5,1.1,1.1,1.1c0.9,0,1.7,0.8,1.7,1.7c0,0.9-0.8,1.7-1.7,1.7h-4
			c-1.5-3.3-4.8-5.5-8.6-5.6c0,0-0.1,0-0.1,0c0,0,0,0,0,0c0,0-0.1,0-0.1,0H231c-0.1,0-0.1,0-0.2,0c-0.1,0-0.1,0-0.2,0h-5
			c-0.1,0-0.1,0-0.2,0c-0.1,0-0.1,0-0.2,0h-1.3c-1.5,0-3,0.4-4.3,1c-0.1,0-0.2,0.1-0.3,0.1c-2.7,1.5-4.7,4.2-5.1,7.4h-1.7
			c-0.6,0-1.1,0.5-1.1,1.1c0,0.6,0.5,1.1,1.1,1.1h1.7c0.6,4.8,4.7,8.6,9.6,8.6h14.5c0,0,0.1,0,0.1,0c0,0,0,0,0,0
			C238.7,70.6,238.8,70.6,238.8,70.6z M244.8,64.9c-1.3,2-3.6,3.3-6.1,3.4c-0.9,0-1.6-0.8-1.6-1.7c0-0.9,0.8-1.7,1.7-1.7H244.8z
			 M244.8,56.8h-6.1c-0.9,0-1.7-0.8-1.7-1.7c0-0.9,0.7-1.7,1.6-1.7C241.2,53.5,243.4,54.8,244.8,56.8z M224.1,68.3
			c-1,0-1.9-0.2-2.8-0.5V54c0.9-0.3,1.8-0.5,2.8-0.5h0.3v14.9H224.1z M232,68.3V53.4h3.1c-0.2,0.5-0.4,1.1-0.4,1.7c0,2.2,1.8,4,4,4
			h7.1c0.1,0.6,0.2,1.2,0.2,1.8c0,0.6-0.1,1.2-0.2,1.8h-7.1c-2.2,0-4,1.8-4,4c0,0.6,0.1,1.2,0.4,1.7H232z"/>
	</g>
</g>
</svg>
