<?xml version="1.0" encoding="utf-8"?>
<!-- Generator: Adobe Illustrator 19.0.0, SVG Export Plug-In . SVG Version: 6.00 Build 0)  -->
<svg version="1.1" id="Layer_1" xmlns="http://www.w3.org/2000/svg" xmlns:xlink="http://www.w3.org/1999/xlink" x="0px" y="0px"
	 viewBox="-667 440 104.4 122" style="enable-background:new -667 440 104.4 122;" xml:space="preserve">
<style type="text/css">
	.st0{fill:#F3B91E;}
	.st1{fill:#FFFFFF;}
</style>
<path class="st0" d="M-660.5,529.7v-57.3l45.7-25l45.7,25v57.3l-45.7,25L-660.5,529.7z M-614.8,440l-52.2,28.5v65l52.2,28.5
	l52.2-28.5v-65L-614.8,440L-614.8,440z"/>
<g id="l-wing_2_">
	<path id="l-wing-in_2_" class="st1" d="M-645.8,514c0,4.2,3.4,7.6,7.6,7.6s7.6-3.4,7.6-7.6c0-3.6,0-9,0-11.9
		C-636.3,502.9-645.8,506.5-645.8,514z"/>
	<path id="l-wing-out_2_" class="st0" d="M-628.9,498.2c-5.3,0-20.7,3.9-20.7,15.8c0,6.2,5.1,11.3,11.3,11.3s11.3-5,11.3-11.3
		c0-5.2-0.1-13.8-0.1-13.9C-627,499.1-627.9,498.2-628.9,498.2z M-638.3,521.6c-4.2,0-7.6-3.4-7.6-7.6c0-7.5,9.6-11.2,15.1-11.9
		c0,2.9,0,8.3,0,11.9C-630.7,518.2-634.1,521.6-638.3,521.6z"/>
</g>
<path id="r-wing-in_2_" class="st1" d="M-598.8,502.1c0,2.9,0,8.3,0,11.9c0,4.2,3.4,7.6,7.6,7.6s7.6-3.4,7.6-7.6
	C-583.8,506.5-593.3,502.9-598.8,502.1z"/>
<path id="r-wing-out_2_" class="st0" d="M-600.7,498.2c-1,0-1.9,0.8-1.9,1.9c0,0.1-0.1,8.8-0.1,13.9c0,6.2,5.1,11.3,11.3,11.3
	c6.3,0.1,11.4-5,11.4-11.3C-580,502.1-595.4,498.2-600.7,498.2z M-591.3,521.6c-4.2,0-7.6-3.4-7.6-7.6c0-3.6,0-9,0-11.9
	c5.5,0.7,15.1,4.4,15.1,11.9C-583.8,518.2-587.2,521.6-591.3,521.6z"/>
<g id="body_2_">
	<path id="yellow-stripe_2_" class="st1" d="M-627,516.4c0,1.6,0.3,3.1,0.9,4.6h22.6c0.6-1.4,0.9-2.9,0.9-4.6v-0.5H-627V516.4z"/>
	<path id="right-eye_2_" class="st1" d="M-608.1,492.4c0,1.5,1.2,2.8,2.8,2.8c1.5,0,2.7-1.2,2.8-2.7c0-4.2-2.2-7.9-5.5-10.1
		L-608.1,492.4L-608.1,492.4z"/>
	<path id="head_2_" class="st1" d="M-611.9,492.4v-11.7c-0.9-0.2-1.9-0.4-2.9-0.4s-2,0.1-2.9,0.4v11.6c0,3.6-2.9,6.5-6.5,6.5
		c-1,0-1.9-0.2-2.8-0.6v5.1h24.4v-5.1c-0.8,0.4-1.8,0.6-2.8,0.6C-609,498.9-611.9,496-611.9,492.4z"/>
	<path id="left-eye_2_" class="st1" d="M-624.3,495.1c1.5,0,2.8-1.2,2.8-2.8v-10c-3.3,2.2-5.5,5.9-5.5,10.1
		C-627,493.9-625.8,495.1-624.3,495.1z"/>
	<path id="outline_2_" class="st0" d="M-598.9,492.2c-0.2-6.2-3.9-11.6-9.3-14.1v-6.5c0-1.5,1.2-2.8,2.8-2.8c1.5,0,2.8,1.2,2.8,2.8
		c0,1,0.8,1.9,1.9,1.9c1.1,0,1.9-0.8,1.9-1.9c0-3.6-2.9-6.5-6.5-6.5c-3.6,0-6.5,2.9-6.5,6.5v5.3c-0.9-0.2-1.9-0.3-2.9-0.3
		s-2,0.1-2.9,0.3v-5.3c0-3.6-2.9-6.5-6.5-6.5c-3.6,0-6.5,2.9-6.5,6.5c0,1,0.8,1.9,1.9,1.9c1,0,1.9-0.8,1.9-1.9
		c0-1.5,1.2-2.8,2.8-2.8s2.8,1.2,2.8,2.8v6.5c-5.4,2.5-9.1,7.8-9.3,14.1c0,0.1,0,0.1,0,0.2c0,0,0,0,0,0.1v0.1v12.3
		c0,0.1,0,0.2,0,0.3s0,0.2,0,0.3v8.2c0,0.1,0,0.2,0,0.3s0,0.2,0,0.3v2.1c0,2.5,0.6,4.9,1.7,7.1c0.1,0.2,0.1,0.3,0.2,0.4
		c2.4,4.5,6.9,7.7,12.2,8.3v2.8c0,1,0.8,1.9,1.9,1.9c1.1,0,1.9-0.8,1.9-1.9v-2.8c7.9-0.9,14.1-7.7,14.1-15.8v-23.8v-0.1
		c0,0,0,0,0-0.1C-598.9,492.3-598.9,492.2-598.9,492.2z M-608.1,482.4c3.3,2.2,5.5,5.9,5.5,10.1c0,1.5-1.3,2.7-2.8,2.7
		s-2.8-1.2-2.8-2.8v-10H-608.1z M-621.5,482.4v10c0,1.5-1.2,2.8-2.8,2.8c-1.5,0-2.7-1.2-2.8-2.7C-627,488.2-624.8,484.5-621.5,482.4
		z M-602.6,516.4c0,1.6-0.3,3.1-0.9,4.6h-22.6c-0.6-1.4-0.9-3-0.9-4.6v-0.5h24.4V516.4z M-602.6,503.4H-627v-5.1
		c0.8,0.4,1.8,0.6,2.8,0.6c3.6,0,6.5-2.9,6.5-6.5v-11.7c0.9-0.2,1.9-0.4,2.9-0.4s2,0.1,2.9,0.4v11.6c0,3.6,2.9,6.5,6.5,6.5
		c1,0,1.9-0.2,2.8-0.6V503.4z"/>
</g>
</svg>
