<?xml version="1.0" encoding="utf-8"?>
<!-- Generator: Adobe Illustrator 21.0.0, SVG Export Plug-In . SVG Version: 6.00 Build 0)  -->
<svg version="1.1" id="Layer_1" xmlns="http://www.w3.org/2000/svg" xmlns:xlink="http://www.w3.org/1999/xlink" x="0px" y="0px"
	 viewBox="0 0 104.4 122" style="enable-background:new 0 0 104.4 122;" xml:space="preserve">
<style type="text/css">
	.st0{fill:#F3B91E;}
	.st1{fill:#FFFFFF;}
</style>
<path class="st0" d="M6.5,89.7V32.4l45.7-25l45.7,25v57.3l-45.7,25L6.5,89.7z M52.2,0L0,28.5v65L52.2,122l52.2-28.5v-65L52.2,0
	L52.2,0z"/>
<g id="l-wing_2_">
	<path id="l-wing-in_2_" class="st1" d="M21.2,74c0,4.2,3.4,7.6,7.6,7.6s7.6-3.4,7.6-7.6c0-3.6,0-9,0-11.9
		C30.7,62.9,21.2,66.5,21.2,74z"/>
	<path id="l-wing-out_2_" class="st0" d="M38.1,58.2c-5.3,0-20.7,3.9-20.7,15.8c0,6.2,5.1,11.3,11.3,11.3S40,80.3,40,74
		c0-5.2-0.1-13.8-0.1-13.9C40,59.1,39.1,58.2,38.1,58.2z M28.7,81.6c-4.2,0-7.6-3.4-7.6-7.6c0-7.5,9.6-11.2,15.1-11.9
		c0,2.9,0,8.3,0,11.9C36.3,78.2,32.9,81.6,28.7,81.6z"/>
</g>
<path id="r-wing-in_2_" class="st1" d="M68.2,62.1c0,2.9,0,8.3,0,11.9c0,4.2,3.4,7.6,7.6,7.6c4.2,0,7.6-3.4,7.6-7.6
	C83.2,66.5,73.7,62.9,68.2,62.1z"/>
<path id="r-wing-out_2_" class="st0" d="M66.3,58.2c-1,0-1.9,0.8-1.9,1.9c0,0.1-0.1,8.8-0.1,13.9c0,6.2,5.1,11.3,11.3,11.3
	C81.9,85.4,87,80.3,87,74C87,62.1,71.6,58.2,66.3,58.2z M75.7,81.6c-4.2,0-7.6-3.4-7.6-7.6c0-3.6,0-9,0-11.9
	c5.5,0.7,15.1,4.4,15.1,11.9C83.2,78.2,79.8,81.6,75.7,81.6z"/>
<g id="body_2_">
	<path id="yellow-stripe_2_" class="st1" d="M40,76.4c0,1.6,0.3,3.1,0.9,4.6h22.6c0.6-1.4,0.9-2.9,0.9-4.6v-0.5H40V76.4z"/>
	<path id="right-eye_2_" class="st1" d="M58.9,52.4c0,1.5,1.2,2.8,2.8,2.8c1.5,0,2.7-1.2,2.8-2.7c0-4.2-2.2-7.9-5.5-10.1V52.4z"/>
	<path id="head_2_" class="st1" d="M55.1,52.4V40.7c-0.9-0.2-1.9-0.4-2.9-0.4c-1,0-2,0.1-2.9,0.4v11.6c0,3.6-2.9,6.5-6.5,6.5
		c-1,0-1.9-0.2-2.8-0.6v5.1h24.4v-5.1c-0.8,0.4-1.8,0.6-2.8,0.6C58,58.9,55.1,56,55.1,52.4z"/>
	<path id="left-eye_2_" class="st1" d="M42.7,55.1c1.5,0,2.8-1.2,2.8-2.8v-10c-3.3,2.2-5.5,5.9-5.5,10.1
		C40,53.9,41.2,55.1,42.7,55.1z"/>
	<path id="outline_2_" class="st0" d="M68.1,52.2c-0.2-6.2-3.9-11.6-9.3-14.1v-6.5c0-1.5,1.2-2.8,2.8-2.8c1.5,0,2.8,1.2,2.8,2.8
		c0,1,0.8,1.9,1.9,1.9s1.9-0.8,1.9-1.9c0-3.6-2.9-6.5-6.5-6.5c-3.6,0-6.5,2.9-6.5,6.5v5.3c-0.9-0.2-1.9-0.3-2.9-0.3
		c-1,0-2,0.1-2.9,0.3v-5.3c0-3.6-2.9-6.5-6.5-6.5s-6.5,2.9-6.5,6.5c0,1,0.8,1.9,1.9,1.9c1,0,1.9-0.8,1.9-1.9c0-1.5,1.2-2.8,2.8-2.8
		s2.8,1.2,2.8,2.8v6.5c-5.4,2.5-9.1,7.8-9.3,14.1c0,0.1,0,0.1,0,0.2c0,0,0,0,0,0.1c0,0,0,0.1,0,0.1v12.3c0,0.1,0,0.2,0,0.3
		s0,0.2,0,0.3v8.2c0,0.1,0,0.2,0,0.3c0,0.1,0,0.2,0,0.3v2.1c0,2.5,0.6,4.9,1.7,7.1c0.1,0.2,0.1,0.3,0.2,0.4
		c2.4,4.5,6.9,7.7,12.2,8.3v2.8c0,1,0.8,1.9,1.9,1.9s1.9-0.8,1.9-1.9v-2.8c7.9-0.9,14.1-7.7,14.1-15.8V52.6c0,0,0-0.1,0-0.1
		c0,0,0,0,0-0.1C68.1,52.3,68.1,52.2,68.1,52.2z M58.9,42.4c3.3,2.2,5.5,5.9,5.5,10.1c0,1.5-1.3,2.7-2.8,2.7c-1.5,0-2.8-1.2-2.8-2.8
		V42.4z M45.5,42.4v10c0,1.5-1.2,2.8-2.8,2.8c-1.5,0-2.7-1.2-2.8-2.7C40,48.2,42.2,44.5,45.5,42.4z M64.4,76.4
		c0,1.6-0.3,3.1-0.9,4.6H40.9C40.3,79.6,40,78,40,76.4v-0.5h24.4V76.4z M64.4,63.4H40v-5.1c0.8,0.4,1.8,0.6,2.8,0.6
		c3.6,0,6.5-2.9,6.5-6.5V40.7c0.9-0.2,1.9-0.4,2.9-0.4c1,0,2,0.1,2.9,0.4v11.6c0,3.6,2.9,6.5,6.5,6.5c1,0,1.9-0.2,2.8-0.6V63.4z"/>
</g>
</svg>
