<?xml version="1.0" encoding="utf-8"?>
<!-- Generator: Adobe Illustrator 21.0.0, SVG Export Plug-In . SVG Version: 6.00 Build 0)  -->
<svg version="1.1" id="Layer_1" xmlns="http://www.w3.org/2000/svg" xmlns:xlink="http://www.w3.org/1999/xlink" x="0px" y="0px"
	 viewBox="0 0 104.4 122" style="enable-background:new 0 0 104.4 122;" xml:space="preserve">
<style type="text/css">
	.st0{clip-path:url(#SVGID_2_);}
	.st1{clip-path:url(#SVGID_4_);fill:#F3B920;}
	.st2{fill-rule:evenodd;clip-rule:evenodd;fill:#F3B920;}
</style>
<g>
	<defs>
		<path id="SVGID_1_" d="M6.5,89.7V32.4l45.7-25l45.7,25v57.3l-45.7,25L6.5,89.7z M52.2,0L0,28.5v65L52.2,122l52.2-28.5v-65L52.2,0
			L52.2,0z"/>
	</defs>
	<clipPath id="SVGID_2_">
		<use xlink:href="#SVGID_1_"  style="overflow:visible;"/>
	</clipPath>
	<g class="st0">
		<defs>
			<rect id="SVGID_3_" x="-289" y="-1344" width="1440" height="3190"/>
		</defs>
		<clipPath id="SVGID_4_">
			<use xlink:href="#SVGID_3_"  style="overflow:visible;"/>
		</clipPath>
		<rect x="-5" y="-5" class="st1" width="114.4" height="132"/>
	</g>
</g>
<path class="st2" d="M82.6,63.7L67.8,47.6l0,0c-0.4-3-1.6-5.7-3.4-7.9l4.9-6.6c0.9-1.3,0.7-3-0.6-4c-1.3-0.9-3-0.7-4,0.6L60.1,36
	c-2.3-1.3-5-2.1-7.9-2.1c-2.8,0-5.5,0.8-7.8,2.1l-4.7-6.3c-0.9-1.3-2.7-1.5-4-0.6c-1.3,0.9-1.5,2.7-0.6,4l4.9,6.6
	c-1.8,2.2-3,5-3.4,7.9l0,0L21.8,63.7c-1.8,1.9-2.7,4.5-2.6,7.1c0.1,2.6,1.3,5.1,3.2,6.8c1.8,1.7,4.2,2.6,6.7,2.6c0.1,0,0.3,0,0.4,0
	c2.6-0.1,5.1-1.2,6.8-3.2l1-1.1c1.8,5.2,6.4,9.2,12,10.2v4.5c0,1.6,1.3,2.8,2.9,2.8c1.6,0,2.9-1.3,2.9-2.8v-4.5
	c5.5-1,10.1-5,11.9-10.2l1,1.1c1.8,1.9,4.2,3.1,6.8,3.2c0.1,0,0.3,0,0.4,0c2.5,0,4.8-0.9,6.7-2.6c1.9-1.8,3.1-4.2,3.2-6.8
	C85.3,68.2,84.4,65.7,82.6,63.7z M33.2,74.2c-1,1.1-2.4,1.8-3.9,1.8l-0.2,0c-1.4,0-2.8-0.5-3.8-1.5c-1.1-1-1.8-2.4-1.8-3.9
	c-0.1-1.5,0.5-2.9,1.5-4L36.5,54v16.6L33.2,74.2z M42.3,70.8h19.9v-7.1H42.3V70.8z M42.3,56.6h19.9v-7.1H42.3V56.6z M80.9,70.6
	c-0.1,1.5-0.7,2.9-1.8,3.9c-1,1-2.4,1.5-3.8,1.5l-0.2,0c-1.5-0.1-2.9-0.7-3.9-1.8l-3.3-3.6V53.9l11.6,12.7
	C80.5,67.7,81,69.1,80.9,70.6z"/>
</svg>
