<?xml version="1.0" encoding="utf-8"?>
<!-- Generator: Adobe Illustrator 21.0.0, SVG Export Plug-In . SVG Version: 6.00 Build 0)  -->
<svg version="1.1" id="Layer_1" xmlns="http://www.w3.org/2000/svg" xmlns:xlink="http://www.w3.org/1999/xlink" x="0px" y="0px"
	 viewBox="0 0 104.4 122" style="enable-background:new 0 0 104.4 122;" xml:space="preserve">
<style type="text/css">
	.st0{clip-path:url(#SVGID_2_);}
	.st1{clip-path:url(#SVGID_4_);fill:#F3B91E;}
	.st2{clip-path:url(#SVGID_6_);}
	.st3{clip-path:url(#SVGID_8_);fill:#F3B91E;}
</style>
<g>
	<defs>
		<path id="SVGID_1_" d="M6.5,89.7V32.4l45.7-25l45.7,25v57.3l-45.7,25L6.5,89.7z M52.2,0L0,28.5v65L52.2,122l52.2-28.5v-65L52.2,0
			L52.2,0z"/>
	</defs>
	<clipPath id="SVGID_2_">
		<use xlink:href="#SVGID_1_"  style="overflow:visible;"/>
	</clipPath>
	<g class="st0">
		<defs>
			<rect id="SVGID_3_" x="-668" y="-1344" width="1440" height="3190"/>
		</defs>
		<clipPath id="SVGID_4_">
			<use xlink:href="#SVGID_3_"  style="overflow:visible;"/>
		</clipPath>
		<rect x="-5" y="-5" class="st1" width="114.4" height="132"/>
	</g>
</g>
<g>
	<defs>
		<path id="SVGID_5_" d="M71.4,91.3L71.4,91.3c2.1,0,4.1-0.6,5.9-1.7c3.3-2.1,5.3-5.6,5.3-9.5c0-2-0.6-4-1.6-5.8l-0.1-0.1l-8-11.1
			c-0.2-0.2-0.4-0.4-0.7-0.6L72,62.5l0.2-0.2c0.2-0.1,0.4-0.3,0.6-0.5c1-1,1.5-2.3,1.6-3.7l0-0.1l0.1,0c1.4-0.1,2.7-0.6,3.7-1.6
			c1-1,1.6-2.5,1.6-4c0-0.9-0.3-1.9-0.8-2.8L79,49.6l0.1-0.1c0.7-0.3,1.3-0.7,1.8-1.2c1-1,1.6-2.5,1.6-4c0-1.5-0.6-2.9-1.6-4
			l-8.1-8.1c-1-1-2.5-1.6-4-1.6h0c-1.5,0-2.9,0.6-4,1.6c-0.5,0.5-0.9,1.1-1.2,1.8l-0.1,0.1l-0.1-0.1c-0.9-0.5-1.8-0.8-2.8-0.8h0
			c-1.5,0-2.9,0.6-4,1.6c-1,1-1.5,2.3-1.6,3.7l0,0.1l-0.1,0c-1.4,0.1-2.7,0.6-3.7,1.6c-1,1-1.6,2.5-1.6,4c0,0.9,0.3,1.9,0.8,2.8
			l0.1,0.1l-0.1,0.1c-0.7,0.3-1.3,0.7-1.8,1.2c-1,1-1.6,2.5-1.6,4c0,1.5,0.6,2.9,1.6,4l0.1,0.1L23.5,81.8c-1,1-1.6,2.5-1.6,4
			c0,1.5,0.6,2.9,1.6,4c1,1,2.5,1.6,4,1.6h0h0c1.5,0,2.9-0.6,4-1.6l25.2-25.2l0.1,0.1c1,1,2.5,1.6,4,1.6h0c1.5,0,2.9-0.6,4-1.6
			c0.5-0.5,0.9-1.1,1.2-1.8l0.1-0.1l0.1,0.1c0.9,0.5,1.8,0.8,2.8,0.8c0.2,0,0.3,0,0.5,0l0.5-0.1l-7.8,10.8c-1.1,1.8-1.7,3.8-1.7,5.9
			c0,2.1,0.6,4.1,1.7,5.9C64,89.4,67.5,91.3,71.4,91.3z M67.4,34.8c0.4-0.4,0.9-0.6,1.4-0.6c0.6,0,1.1,0.2,1.4,0.6l8.1,8.1
			c0.4,0.4,0.6,0.9,0.6,1.4c0,0.6-0.2,1.1-0.6,1.4c-0.4,0.4-0.9,0.6-1.4,0.6c-0.6,0-1.1-0.2-1.4-0.6l-8.1-8.1
			c-0.4-0.4-0.6-0.9-0.6-1.5C66.8,35.7,67,35.2,67.4,34.8z M59.3,37.5L59.3,37.5c0.4-0.4,0.9-0.6,1.4-0.6c0.6,0,1.1,0.2,1.4,0.6
			l13.5,13.5c0.4,0.4,0.6,0.9,0.6,1.4c0,0.6-0.2,1.1-0.6,1.4c-0.4,0.4-0.9,0.6-1.4,0.6c-0.6,0-1.1-0.2-1.4-0.6L59.3,40.4
			c-0.4-0.4-0.6-0.9-0.6-1.4C58.7,38.4,58.9,37.9,59.3,37.5z M28.9,87.2c-0.4,0.4-0.9,0.6-1.4,0.6c-0.5,0-1.1-0.2-1.4-0.6
			c-0.4-0.4-0.6-0.9-0.6-1.4c0-0.5,0.2-1.1,0.6-1.4l25.2-25.2l2.9,2.9L28.9,87.2z M62.2,62.1L62.2,62.1c-0.4,0.4-0.9,0.6-1.4,0.6
			c-0.5,0-1.1-0.2-1.4-0.6L51.1,54c-0.4-0.4-0.6-0.9-0.6-1.4c0-0.5,0.2-1.1,0.6-1.4c0.4-0.4,0.9-0.6,1.4-0.6c0.5,0,1.1,0.2,1.4,0.6
			l8.1,8.1c0.4,0.4,0.6,0.9,0.6,1.4C62.7,61.2,62.5,61.7,62.2,62.1z M68.8,60L68.8,60c-0.5,0-1.1-0.2-1.4-0.6L53.9,45.8
			c-0.4-0.4-0.6-0.9-0.6-1.4c0-0.5,0.2-1.1,0.6-1.4c0.4-0.4,0.9-0.6,1.4-0.6c0.5,0,1.1,0.2,1.4,0.6l13.5,13.5
			c0.4,0.4,0.6,0.9,0.6,1.4c0,0.6-0.2,1.1-0.6,1.4C69.9,59.8,69.4,60,68.8,60z M65,76.2l6.4-8.9l6.5,9c0.7,1.2,1.1,2.5,1.1,3.8
			c0,2.6-1.4,5.1-3.6,6.5c-1.2,0.8-2.6,1.2-4,1.2c-2.6,0-5-1.3-6.4-3.6c-0.7-1.2-1.1-2.6-1.1-4C63.8,78.7,64.2,77.4,65,76.2z"/>
	</defs>
	<clipPath id="SVGID_6_">
		<use xlink:href="#SVGID_5_"  style="overflow:visible;"/>
	</clipPath>
	<g class="st2">
		<defs>
			<rect id="SVGID_7_" x="-668" y="-1344" width="1440" height="3190"/>
		</defs>
		<clipPath id="SVGID_8_">
			<use xlink:href="#SVGID_7_"  style="overflow:visible;"/>
		</clipPath>
		<rect x="16.9" y="25.7" class="st3" width="70.7" height="70.7"/>
	</g>
</g>
</svg>
