<?xml version="1.0" encoding="utf-8"?>
<!-- Generator: Adobe Illustrator 21.0.0, SVG Export Plug-In . SVG Version: 6.00 Build 0)  -->
<svg version="1.1" id="Layer_1" xmlns="http://www.w3.org/2000/svg" xmlns:xlink="http://www.w3.org/1999/xlink" x="0px" y="0px"
	 viewBox="0 0 104.4 122.1" style="enable-background:new 0 0 104.4 122.1;" xml:space="preserve">
<style type="text/css">
	.st0{fill:#F3B920;}
	.st1{clip-path:url(#SVGID_2_);}
	.st2{clip-path:url(#SVGID_4_);fill:#F3B920;}
	.st3{clip-path:url(#SVGID_6_);}
	.st4{clip-path:url(#SVGID_8_);fill:#F3B920;}
</style>
<path class="st0" d="M6.5,89.7V32.4l45.7-25l45.7,25v57.3l-45.7,25L6.5,89.7z M52.2,0L0,28.6v65l52.2,28.5l52.2-28.5v-65L52.2,0
	L52.2,0z"/>
<g>
	<g>
		<defs>
			<path id="SVGID_1_" d="M86.6,47.2c-0.1-0.4-0.4-0.7-0.8-0.9L70.6,38l0.5-0.1c2.1-0.2,6.4-0.7,6.6-0.8c2.2-0.2,4.2-0.4,5.7-3.6
				c0.9-2,0.9-4.2-0.2-6.1c-0.9-1.7-2.5-3-4.5-3.5c-3.7-0.9-5.2,0.9-6.8,2.8l-4.3,5.1c0.3-0.6,0.4-1.2,0.4-1.8
				c0-2.2-1.8-4.1-4.1-4.1H34.4c-2.2,0-4.1,1.8-4.1,4.1c0,0.9,0.3,1.7,0.8,2.4c-0.5,0.7-0.8,1.6-0.8,2.4c0,0.7,0.2,1.4,0.6,2
				l-5.4,8.5c-0.2,0.3-0.3,0.6-0.3,0.9c0,1.5,0.7,2.9,1.9,4c-0.3,0.7-0.4,1.4-0.4,2.1v34.6c0,3.2,2.6,5.8,5.8,5.8H66
				c3.2,0,5.8-2.6,5.8-5.8V52.2c0-0.7-0.1-1.4-0.4-2.1c1.2-1.1,1.9-2.5,1.9-4c0-0.3-0.1-0.6-0.3-0.9l-2.6-3.8l14,7.6
				c0.4,0.2,0.8,0.2,1.2,0.1c0.4-0.1,0.7-0.4,0.9-0.8C86.6,48,86.7,47.6,86.6,47.2z M29.8,52.2c0-0.2,0-0.4,0.1-0.6
				c0.5,0.1,1,0.2,1.5,0.2c1.7,0,3.3-0.6,4.4-1.7c1.2,1.1,2.8,1.7,4.4,1.7c1.7,0,3.3-0.6,4.4-1.7c1.2,1.1,2.8,1.7,4.4,1.7
				c1.7,0,3.3-0.6,4.4-1.7c1.2,1.1,2.8,1.7,4.4,1.7c1.7,0,3.3-0.6,4.4-1.7c1.2,1.1,2.8,1.7,4.4,1.7c0.5,0,1-0.1,1.5-0.2
				c0.1,0.2,0.1,0.4,0.1,0.6v34.6c0,1.4-1.2,2.6-2.6,2.6H32.5c-1.4,0-2.6-1.2-2.6-2.6V52.2H29.8z M64,46.8c-0.2-0.6-0.8-1-1.5-1
				s-1.2,0.4-1.5,1c-0.4,1.1-1.6,1.8-3,1.8s-2.6-0.7-3-1.8c-0.2-0.6-0.8-1-1.5-1s-1.2,0.4-1.5,1c-0.4,1.1-1.6,1.8-3,1.8
				s-2.6-0.7-3-1.8c-0.2-0.6-0.8-1-1.5-1s-1.2,0.4-1.5,1c-0.4,1.1-1.6,1.8-3,1.8s-2.6-0.7-3-1.8c-0.2-0.6-0.8-1-1.5-1
				s-1.2,0.4-1.5,1c-0.4,1.1-1.6,1.8-3,1.8c-1.5,0-2.8-0.9-3.1-2.1l5.7-8.8c0.2-0.3,0.7-1.3-0.3-2.1c-0.2-0.2-0.3-0.4-0.3-0.7
				c0-0.4,0.3-0.7,0.6-0.9c0.9,0,12.8,0,19.9,0c0.9,0,1.6-0.7,1.6-1.6c0-0.9-0.7-1.6-1.6-1.6H34.3l0,0h-0.1
				c-0.4-0.1-0.8-0.5-0.8-0.9c0-0.5,0.4-0.9,0.9-0.9H64c0.5,0,0.9,0.4,0.9,0.9c0,0.4-0.3,0.8-0.8,0.9c-0.7,0.1-1.3,0.8-1.3,1.5
				c0,0.8,0.5,1.4,1.3,1.5c0.4,0.1,0.8,0.5,0.8,0.9c0,0.1-0.1,0.3-0.1,0.4c-0.1,0.3-0.5,0.5-0.8,0.5H39.3c-0.9,0-1.6,0.7-1.6,1.6
				c0,0.9,0.7,1.6,1.6,1.6h24.8c0.3,0,0.6,0,0.8-0.1l5.2,7.6c-0.3,1.2-1.6,2.1-3.1,2.1C65.6,48.6,64.4,47.9,64,46.8z M80.5,32.2
				c-0.7,1.5-1.3,1.6-3.2,1.8c-0.2,0-6.3,0.7-8.2,0.9l5.2-6.3c1.1-1.3,1.6-1.9,2.5-1.9c0.3,0,0.6,0.1,1.1,0.2c1,0.3,1.9,0.9,2.4,1.9
				C81,29.9,81,31.2,80.5,32.2z"/>
		</defs>
		<clipPath id="SVGID_2_">
			<use xlink:href="#SVGID_1_"  style="overflow:visible;"/>
		</clipPath>
		<g class="st1">
			<g>
				<defs>
					<rect id="SVGID_3_" x="-1047.5" y="-1344" width="1440" height="3190"/>
				</defs>
				<clipPath id="SVGID_4_">
					<use xlink:href="#SVGID_3_"  style="overflow:visible;"/>
				</clipPath>
				<rect x="20.2" y="18.7" class="st2" width="71.4" height="78.8"/>
			</g>
		</g>
		<g class="st1">
			<g>
				<defs>
					<path id="SVGID_5_" d="M56.5,74.1v-8l-7-4l-7,4v8l7,4L56.5,74.1z M45,72.6v-5.2l4.5-2.6l4.5,2.6v5.2l-4.5,2.6L45,72.6z"/>
				</defs>
				<clipPath id="SVGID_6_">
					<use xlink:href="#SVGID_5_"  style="overflow:visible;"/>
				</clipPath>
				<g class="st3">
					<g>
						<defs>
							<rect id="SVGID_7_" x="-1047.5" y="-1344" width="1440" height="3190"/>
						</defs>
						<clipPath id="SVGID_8_">
							<use xlink:href="#SVGID_7_"  style="overflow:visible;"/>
						</clipPath>
						<rect x="37.5" y="57" class="st4" width="23.9" height="26.1"/>
					</g>
				</g>
			</g>
		</g>
	</g>
</g>
</svg>
