<?xml version="1.0" encoding="utf-8"?>
<!-- Generator: Adobe Illustrator 21.0.0, SVG Export Plug-In . SVG Version: 6.00 Build 0)  -->
<svg version="1.1" id="Layer_1" xmlns="http://www.w3.org/2000/svg" xmlns:xlink="http://www.w3.org/1999/xlink" x="0px" y="0px"
	 viewBox="0 0 109.4 131" style="enable-background:new 0 0 109.4 131;" xml:space="preserve">
<style type="text/css">
	.st0{clip-path:url(#SVGID_2_);}
	.st1{clip-path:url(#SVGID_4_);fill:#F3B920;}
	.st2{clip-path:url(#SVGID_6_);}
	.st3{clip-path:url(#SVGID_8_);fill:#F3B920;}
	.st4{clip-path:url(#SVGID_10_);}
	.st5{clip-path:url(#SVGID_12_);fill:#F3B920;}
</style>
<g>
	<g>
		<defs>
			<path id="SVGID_1_" d="M6.5,93.6V36.3l45.7-25l45.7,25v57.3l-45.7,25L6.5,93.6z M52.2,3.9L0,32.5v65L52.2,126l52.2-28.5v-65
				L52.2,3.9L52.2,3.9z"/>
		</defs>
		<clipPath id="SVGID_2_">
			<use xlink:href="#SVGID_1_"  style="overflow:visible;"/>
		</clipPath>
		<g class="st0">
			<defs>
				<rect id="SVGID_3_" x="-1045" y="-1340.1" width="1440" height="3190"/>
			</defs>
			<clipPath id="SVGID_4_">
				<use xlink:href="#SVGID_3_"  style="overflow:visible;"/>
			</clipPath>
			<rect x="-5" y="-1.1" class="st1" width="114.4" height="132"/>
		</g>
	</g>
	<g>
		<defs>
			<path id="SVGID_5_" d="M89.1,51.1c-0.1-0.4-0.4-0.7-0.8-0.9l-15.2-8.3l0.5-0.1c2.1-0.2,6.4-0.7,6.6-0.8c2.2-0.2,4.2-0.4,5.7-3.6
				c0.9-2,0.9-4.2-0.2-6.1c-0.9-1.7-2.5-3-4.5-3.5c-3.7-0.9-5.2,0.9-6.8,2.8l-4.3,5.1c0.3-0.6,0.4-1.2,0.4-1.8
				c0-2.2-1.8-4.1-4.1-4.1H36.9c-2.2,0-4.1,1.8-4.1,4.1c0,0.9,0.3,1.7,0.8,2.4c-0.5,0.7-0.8,1.6-0.8,2.4c0,0.7,0.2,1.4,0.6,2
				L28,49.2c-0.2,0.3-0.3,0.6-0.3,0.9c0,1.5,0.7,2.9,1.9,4c-0.3,0.7-0.4,1.4-0.4,2.1v34.6c0,3.2,2.6,5.8,5.8,5.8h33.5
				c3.2,0,5.8-2.6,5.8-5.8V56.1c0-0.7-0.1-1.4-0.4-2.1c1.2-1.1,1.9-2.5,1.9-4c0-0.3-0.1-0.6-0.3-0.9l-2.6-3.8l14,7.6
				c0.4,0.2,0.8,0.2,1.2,0.1c0.4-0.1,0.7-0.4,0.9-0.8C89.1,51.9,89.2,51.5,89.1,51.1z M32.3,56.1c0-0.2,0-0.4,0.1-0.6
				c0.5,0.1,1,0.2,1.5,0.2c1.7,0,3.3-0.6,4.4-1.7c1.2,1.1,2.8,1.7,4.4,1.7c1.7,0,3.3-0.6,4.4-1.7c1.2,1.1,2.8,1.7,4.4,1.7
				c1.7,0,3.3-0.6,4.4-1.7c1.2,1.1,2.8,1.7,4.4,1.7c1.7,0,3.3-0.6,4.4-1.7c1.2,1.1,2.8,1.7,4.4,1.7c0.5,0,1-0.1,1.5-0.2
				c0.1,0.2,0.1,0.4,0.1,0.6v34.6c0,1.4-1.2,2.6-2.6,2.6H35c-1.4,0-2.6-1.2-2.6-2.6V56.1z M66.5,50.7c-0.2-0.6-0.8-1-1.5-1
				c-0.7,0-1.2,0.4-1.5,1c-0.4,1.1-1.6,1.8-3,1.8s-2.6-0.7-3-1.8c-0.2-0.6-0.8-1-1.5-1c-0.7,0-1.2,0.4-1.5,1c-0.4,1.1-1.6,1.8-3,1.8
				c-1.4,0-2.6-0.7-3-1.8c-0.2-0.6-0.8-1-1.5-1c-0.7,0-1.2,0.4-1.5,1c-0.4,1.1-1.6,1.8-3,1.8c-1.4,0-2.6-0.7-3-1.8
				c-0.2-0.6-0.8-1-1.5-1c-0.7,0-1.2,0.4-1.5,1c-0.4,1.1-1.6,1.8-3,1.8c-1.5,0-2.8-0.9-3.1-2.1l5.7-8.8c0.2-0.3,0.7-1.3-0.3-2.1
				c-0.2-0.2-0.3-0.4-0.3-0.7c0-0.4,0.3-0.7,0.6-0.9c0.9,0,12.8,0,19.9,0c0.9,0,1.6-0.7,1.6-1.6c0-0.9-0.7-1.6-1.6-1.6H36.8l0,0
				l-0.1,0c-0.4-0.1-0.8-0.5-0.8-0.9c0-0.5,0.4-0.9,0.9-0.9h29.7c0.5,0,0.9,0.4,0.9,0.9c0,0.4-0.3,0.8-0.8,0.9
				c-0.7,0.1-1.3,0.8-1.3,1.5c0,0.8,0.5,1.4,1.3,1.5c0.4,0.1,0.8,0.5,0.8,0.9c0,0.1-0.1,0.3-0.1,0.4c-0.1,0.3-0.5,0.5-0.8,0.5H41.8
				c-0.9,0-1.6,0.7-1.6,1.6c0,0.9,0.7,1.6,1.6,1.6h24.8c0.3,0,0.6,0,0.8-0.1l5.2,7.6c-0.3,1.2-1.6,2.1-3.1,2.1
				C68.1,52.5,66.9,51.8,66.5,50.7z M83,36.1c-0.7,1.5-1.3,1.6-3.2,1.8c-0.2,0-6.3,0.7-8.2,0.9l5.2-6.3c1.1-1.3,1.6-1.9,2.5-1.9
				c0.3,0,0.6,0.1,1.1,0.2c1,0.3,1.9,0.9,2.4,1.9C83.5,33.8,83.5,35.1,83,36.1z"/>
		</defs>
		<clipPath id="SVGID_6_">
			<use xlink:href="#SVGID_5_"  style="overflow:visible;"/>
		</clipPath>
		<g class="st2">
			<defs>
				<rect id="SVGID_7_" x="-1045" y="-1340.1" width="1440" height="3190"/>
			</defs>
			<clipPath id="SVGID_8_">
				<use xlink:href="#SVGID_7_"  style="overflow:visible;"/>
			</clipPath>
			<rect x="22.7" y="22.6" class="st3" width="71.4" height="78.8"/>
		</g>
	</g>
	<g>
		<defs>
			<path id="SVGID_9_" d="M59,78v-8l-7-4l-7,4v8l7,4L59,78z M47.5,76.5v-5.2l4.5-2.6l4.5,2.6v5.2L52,79.1L47.5,76.5z"/>
		</defs>
		<clipPath id="SVGID_10_">
			<use xlink:href="#SVGID_9_"  style="overflow:visible;"/>
		</clipPath>
		<g class="st4">
			<defs>
				<rect id="SVGID_11_" x="-1045" y="-1340.1" width="1440" height="3190"/>
			</defs>
			<clipPath id="SVGID_12_">
				<use xlink:href="#SVGID_11_"  style="overflow:visible;"/>
			</clipPath>
			<rect x="40" y="60.9" class="st5" width="23.9" height="26.1"/>
		</g>
	</g>
</g>
</svg>
