<?xml version="1.0" encoding="utf-8"?>
<!-- Generator: Adobe Illustrator 21.0.0, SVG Export Plug-In . SVG Version: 6.00 Build 0)  -->
<svg version="1.1" id="Layer_1" xmlns="http://www.w3.org/2000/svg" xmlns:xlink="http://www.w3.org/1999/xlink" x="0px" y="0px"
	 viewBox="0 0 342.1 400" style="enable-background:new 0 0 342.1 400;" xml:space="preserve">
<style type="text/css">
	.st0{fill:#F4B91F;}
	.st1{fill:#FFFFFF;}
</style>
<g>
	<path class="st0" d="M341.8,93.5L170.7,0L-0.5,93.5v213l47.1,25.8l-0.1,0.7l7,3.1l117,64l117-63.9l7.1-3.1l-0.1-0.7l47.1-25.8V93.5
		H341.8z M320.6,293.9l-28.3,15.5l-3.7-35.7c0,0-11.8-19.7-79-30.5l-2.2-8.5c-9.6,10.2-21.7,16.8-35,16.8c-14,0-27.2-7.2-37.9-18.3
		l-2.6,10c-67.2,10.7-79,30.5-79,30.5L49,309.4l-28.3-15.5V106.1l149.9-81.9l149.9,81.9v187.8H320.6z"/>
	<rect x="221.9" y="299.9" class="st0" width="17.7" height="6.4"/>
	<rect x="221.9" y="312.5" class="st0" width="17.7" height="6.4"/>
	<path class="st0" d="M205.2,318.7c0.1,1.3,0.6,2.6,1.6,3.5c0.9,0.8,2.1,1.3,3.4,1.3h0.2c1.3-0.1,2.6-0.6,3.5-1.6l2.9-3.2v-14.8
		l-10.3,11.3C205.6,316.1,205.2,317.4,205.2,318.7z"/>
	<path class="st0" d="M251.2,323.5h0.2c1.3,0,2.5-0.5,3.4-1.3c1-0.9,1.6-2.1,1.6-3.5c0.1-1.3-0.4-2.6-1.3-3.6l-10.3-11.3v14.8l3,3.2
		C248.6,322.9,249.8,323.5,251.2,323.5z"/>
	<path class="st0" d="M112.5,151.4c0,0.7,0,1.3,0.1,2c-4.9,2.5-7.6,11.5-6.2,21.7c1.5,10.8,7.1,19,12.8,19.3
		c8.1,25.8,29.3,48.7,52.9,48.7s42.5-22.9,49.6-48.7c5.8,0.1,11.6-8.3,13.2-19.3c1.5-10.2-1.3-19.3-6.2-21.7c0-0.7,0.1-1.3,0.1-2
		c0-32.1-26-58.2-58.2-58.2S112.5,119.3,112.5,151.4z"/>
</g>
<g>
	<g id="l-wing_1_">
		<path id="l-wing-out_1_" class="st1" d="M220.8,299.4c-4.2,0-16.6,3.1-16.6,12.7c0,5,4.1,9.1,9.1,9.1s9.1-4,9.1-9.1
			c0-4.2-0.1-11.1-0.1-11.1C222.3,300.1,221.6,299.4,220.8,299.4z M213.2,318.2c-3.4,0-6.1-2.7-6.1-6.1c0-6,7.7-9,12.1-9.5
			c0,2.3,0,6.7,0,9.5C219.3,315.5,216.6,318.2,213.2,318.2z"/>
	</g>
	<path id="r-wing-out_1_" class="st1" d="M243.4,299.4c-0.8,0-1.5,0.6-1.5,1.5c0,0.1-0.1,7.1-0.1,11.1c0,5,4.1,9.1,9.1,9.1
		c5.1,0.1,9.1-4,9.1-9.1C260,302.5,247.6,299.4,243.4,299.4z M250.9,318.2c-3.4,0-6.1-2.7-6.1-6.1c0-2.9,0-7.2,0-9.5
		c4.4,0.6,12.1,3.5,12.1,9.5C256.9,315.5,254.2,318.2,250.9,318.2z"/>
	<g id="body_1_">
		<path id="outline_1_" class="st1" d="M244.8,294.6c-0.2-5-3.1-9.3-7.5-11.3v-5.2c0-1.2,1-2.2,2.2-2.2c1.2,0,2.2,1,2.2,2.2
			c0,0.8,0.6,1.5,1.5,1.5c0.9,0,1.5-0.6,1.5-1.5c0-2.9-2.3-5.2-5.2-5.2c-2.9,0-5.2,2.3-5.2,5.2v4.2c-0.7-0.2-1.5-0.2-2.3-0.2
			c-0.8,0-1.6,0.1-2.3,0.2v-4.2c0-2.9-2.3-5.2-5.2-5.2c-2.9,0-5.2,2.3-5.2,5.2c0,0.8,0.6,1.5,1.5,1.5c0.8,0,1.5-0.6,1.5-1.5
			c0-1.2,1-2.2,2.2-2.2c1.3,0,2.2,1,2.2,2.2v5.2c-4.3,2-7.3,6.3-7.5,11.3c0,0.1,0,0.1,0,0.2c0,0,0,0,0,0.1v0.1v9.9
			c0,0.1,0,0.2,0,0.2s0,0.2,0,0.2v6.6c0,0.1,0,0.2,0,0.2s0,0.2,0,0.2v1.7c0,2,0.5,3.9,1.4,5.7c0.1,0.2,0.1,0.2,0.2,0.3
			c1.9,3.6,5.5,6.2,9.8,6.7v2.2c0,0.8,0.6,1.5,1.5,1.5s1.5-0.6,1.5-1.5v-2.2c6.3-0.7,11.3-6.2,11.3-12.7L244.8,294.6 M237.4,286.8
			c2.6,1.8,4.4,4.7,4.4,8.1c0,1.2-1,2.2-2.2,2.2s-2.2-1-2.2-2.2L237.4,286.8L237.4,286.8z M226.7,286.8v8c0,1.2-1,2.2-2.2,2.2
			c-1.2,0-2.2-1-2.2-2.2C222.3,291.4,224,288.4,226.7,286.8z M241.8,314c0,1.3-0.2,2.5-0.7,3.7H223c-0.5-1.1-0.7-2.4-0.7-3.7v-0.4
			h19.6V314z M241.8,303.6h-19.6v-4.1c0.6,0.3,1.4,0.5,2.2,0.5c2.9,0,5.2-2.3,5.2-5.2v-9.4c0.7-0.2,1.5-0.3,2.3-0.3s1.6,0.1,2.3,0.3
			v9.3c0,2.9,2.3,5.2,5.2,5.2c0.8,0,1.5-0.2,2.2-0.5V303.6z"/>
	</g>
</g>
<g>
	<g id="l-wing_2_">
		<path id="l-wing-out_2_" class="st0" d="M56.5,195.8c-4.2,0-16.6,3.1-16.6,12.7c0,5,4.1,9.1,9.1,9.1s9.1-4,9.1-9.1
			c0-4.2-0.1-11.1-0.1-11.1C58,196.5,57.3,195.8,56.5,195.8z M48.9,214.5c-3.4,0-6.1-2.7-6.1-6.1c0-6,7.7-9,12.1-9.5
			c0,2.3,0,6.7,0,9.5C55,211.8,52.3,214.5,48.9,214.5z"/>
	</g>
	<path id="r-wing-out_2_" class="st0" d="M79.1,195.8c-0.8,0-1.5,0.6-1.5,1.5c0,0.1-0.1,7.1-0.1,11.1c0,5,4.1,9.1,9.1,9.1
		c5.1,0.1,9.1-4,9.1-9.1C95.7,198.9,83.3,195.8,79.1,195.8z M86.6,214.5c-3.4,0-6.1-2.7-6.1-6.1c0-2.9,0-7.2,0-9.5
		c4.4,0.6,12.1,3.5,12.1,9.5C92.6,211.8,89.9,214.5,86.6,214.5z"/>
	<g id="body_2_">
		<path id="outline_2_" class="st0" d="M80.5,190.9c-0.2-5-3.1-9.3-7.5-11.3v-5.2c0-1.2,1-2.2,2.2-2.2c1.2,0,2.2,1,2.2,2.2
			c0,0.8,0.6,1.5,1.5,1.5c0.9,0,1.5-0.6,1.5-1.5c0-2.9-2.3-5.2-5.2-5.2s-5.2,2.3-5.2,5.2v4.2c-0.7-0.2-1.5-0.2-2.3-0.2
			c-0.8,0-1.6,0.1-2.3,0.2v-4.2c0-2.9-2.3-5.2-5.2-5.2c-2.9,0-5.2,2.3-5.2,5.2c0,0.8,0.6,1.5,1.5,1.5c0.8,0,1.5-0.6,1.5-1.5
			c0-1.2,1-2.2,2.2-2.2s2.2,1,2.2,2.2v5.2c-4.3,2-7.3,6.3-7.5,11.3c0,0.1,0,0.1,0,0.2c0,0,0,0,0,0.1v0.1v9.9c0,0.1,0,0.2,0,0.2
			c0,0.1,0,0.2,0,0.2v6.6c0,0.1,0,0.2,0,0.2c0,0.1,0,0.2,0,0.2v1.7c0,2,0.5,3.9,1.4,5.7c0.1,0.2,0.1,0.2,0.2,0.3
			c1.9,3.6,5.5,6.2,9.8,6.7v2.2c0,0.8,0.6,1.5,1.5,1.5c0.9,0,1.5-0.6,1.5-1.5V223c6.3-0.7,11.3-6.2,11.3-12.7L80.5,190.9
			 M73.1,183.1c2.6,1.8,4.4,4.7,4.4,8.1c0,1.2-1,2.2-2.2,2.2c-1.2,0-2.2-1-2.2-2.2L73.1,183.1L73.1,183.1z M62.4,183.1v8
			c0,1.2-1,2.2-2.2,2.2c-1.2,0-2.2-1-2.2-2.2C58,187.7,59.8,184.8,62.4,183.1z M77.6,210.3c0,1.3-0.2,2.5-0.7,3.7H58.7
			c-0.5-1.1-0.7-2.4-0.7-3.7v-0.4h19.6V210.3z M77.6,199.9H58v-4.1c0.6,0.3,1.4,0.5,2.2,0.5c2.9,0,5.2-2.3,5.2-5.2v-9.4
			c0.7-0.2,1.5-0.3,2.3-0.3c0.8,0,1.6,0.1,2.3,0.3v9.3c0,2.9,2.3,5.2,5.2,5.2c0.8,0,1.5-0.2,2.2-0.5V199.9z"/>
	</g>
</g>
</svg>
