<?xml version="1.0" encoding="utf-8"?>
<!-- Generator: Adobe Illustrator 21.0.0, SVG Export Plug-In . SVG Version: 6.00 Build 0)  -->
<svg version="1.1" id="Layer_1" xmlns="http://www.w3.org/2000/svg" xmlns:xlink="http://www.w3.org/1999/xlink" x="0px" y="0px"
	 viewBox="0 0 342.1 400" style="enable-background:new 0 0 342.1 400;" xml:space="preserve">
<style type="text/css">
	.st0{fill:#F4B91F;}
</style>
<g>
	<path class="st0" d="M341.8,93.5L170.7,0L-0.5,93.5v213l47.1,25.8l-0.1,0.7l7,3.1l117,64l117-63.9l7.1-3.1l-0.1-0.7l47.1-25.8V93.5
		z M215.6,285.2c-0.8-1.1-0.6-2.7,0.5-3.5c1.1-0.8,2.7-0.6,3.5,0.5l4.2,5.6c2.1-1.2,4.4-1.9,7-1.9c2.5,0,4.9,0.7,7,1.9l4.2-5.6
		c0.8-1.1,2.4-1.4,3.5-0.5c1.1,0.8,1.4,2.4,0.5,3.5l-4.4,5.9c1.6,2,2.7,4.4,3,7.1l0,0l13.2,14.4c1.6,1.7,2.4,4,2.3,6.3
		c-0.1,2.3-1.1,4.5-2.8,6.1c-1.6,1.5-3.7,2.3-5.9,2.3c-0.1,0-0.3,0-0.4,0c-2.3-0.1-4.5-1.1-6.1-2.8l-0.9-1
		c-1.6,4.7-5.7,8.2-10.6,9.1v4c0,1.4-1.1,2.5-2.5,2.5c-1.4,0-2.5-1.1-2.5-2.5v-4c-5-0.9-9-4.4-10.7-9.1l-0.9,1
		c-1.6,1.7-3.8,2.7-6.1,2.8c-0.1,0-0.3,0-0.4,0c-2.2,0-4.3-0.8-5.9-2.3c-1.7-1.6-2.7-3.8-2.8-6.1c-0.1-2.3,0.7-4.6,2.3-6.3
		l13.2-14.4l0,0c0.3-2.7,1.4-5.1,3-7.1L215.6,285.2z M320.6,293.9l-28.3,15.5l-3.7-35.7c0,0-11.8-19.7-79-30.5l-2.2-8.5
		c-9.6,10.2-21.7,16.8-35,16.8c-14,0-27.2-7.2-37.9-18.3l-2.6,10c-67.2,10.7-79,30.5-79,30.5L49,309.4l-28.3-15.5V106.1l149.9-81.9
		l149.9,81.9V293.9z"/>
	<path class="st0" d="M95.1,192.1L95.1,192.1c-0.4-2.6-1.4-5-3-7l4.4-5.9c0.8-1.1,0.6-2.7-0.5-3.5c-1.1-0.8-2.7-0.6-3.5,0.5
		l-4.2,5.6c-2.1-1.2-4.5-1.9-7-1.9c-2.5,0-4.9,0.7-7,1.9l-4.2-5.6c-0.8-1.1-2.4-1.4-3.5-0.5c-1.1,0.8-1.4,2.4-0.5,3.5l4.4,5.9
		c-1.6,2-2.7,4.4-3,7.1l0,0l-13.2,14.4c-1.6,1.7-2.4,4-2.3,6.3c0.1,2.3,1.1,4.5,2.8,6.1c1.6,1.5,3.7,2.3,5.9,2.3c0.1,0,0.3,0,0.4,0
		c2.3-0.1,4.5-1.1,6.1-2.8l0.9-1c1.6,4.7,5.7,8.2,10.7,9.1v4c0,1.4,1.1,2.5,2.5,2.5c1.4,0,2.5-1.1,2.5-2.5v-4
		c4.9-0.9,9-4.5,10.6-9.1l0.9,1c1.6,1.7,3.8,2.7,6.1,2.8c0.1,0,0.3,0,0.4,0c2.2,0,4.3-0.8,5.9-2.3c1.7-1.6,2.7-3.8,2.8-6.1
		c0.1-2.3-0.7-4.6-2.3-6.3L95.1,192.1z M67.2,212.6l-2.9,3.2c-0.9,1-2.1,1.6-3.5,1.6l-0.2,0c-1.3,0-2.5-0.5-3.4-1.3
		c-1-0.9-1.6-2.1-1.6-3.5c-0.1-1.3,0.4-2.6,1.3-3.6l10.3-11.3V212.6z M90,212.8H72.3v-6.4H90V212.8z M90,200.2H72.3v-6.4H90V200.2z
		 M105.1,216.1c-0.9,0.8-2.1,1.3-3.4,1.3l-0.2,0c-1.3-0.1-2.6-0.6-3.5-1.6l-3-3.2v-14.8l10.3,11.3c0.9,1,1.4,2.3,1.3,3.6
		C106.7,214,106.1,215.2,105.1,216.1z"/>
	<rect x="221.9" y="299.9" class="st0" width="17.7" height="6.4"/>
	<rect x="221.9" y="312.5" class="st0" width="17.7" height="6.4"/>
	<path class="st0" d="M205.2,318.7c0.1,1.3,0.6,2.6,1.6,3.5c0.9,0.8,2.1,1.3,3.4,1.3l0.2,0c1.3-0.1,2.6-0.6,3.5-1.6l2.9-3.2v-14.8
		l-10.3,11.3C205.6,316.1,205.2,317.4,205.2,318.7z"/>
	<path class="st0" d="M251.2,323.5l0.2,0c1.3,0,2.5-0.5,3.4-1.3c1-0.9,1.6-2.1,1.6-3.5c0.1-1.3-0.4-2.6-1.3-3.6l-10.3-11.3v14.8
		l3,3.2C248.6,322.9,249.8,323.5,251.2,323.5z"/>
	<path class="st0" d="M112.5,151.4c0,0.7,0,1.3,0.1,2c-4.9,2.5-7.6,11.5-6.2,21.7c1.5,10.8,7.1,19,12.8,19.3
		c8.1,25.8,29.3,48.7,52.9,48.7c23.6,0,42.5-22.9,49.6-48.7c5.8,0.1,11.6-8.3,13.2-19.3c1.5-10.2-1.3-19.3-6.2-21.7
		c0-0.7,0.1-1.3,0.1-2c0-32.1-26-58.2-58.2-58.2S112.5,119.3,112.5,151.4z"/>
</g>
</svg>
