<?xml version="1.0" encoding="utf-8"?>
<!-- Generator: Adobe Illustrator 21.0.0, SVG Export Plug-In . SVG Version: 6.00 Build 0)  -->
<svg version="1.1" id="Layer_1" xmlns="http://www.w3.org/2000/svg" xmlns:xlink="http://www.w3.org/1999/xlink" x="0px" y="0px"
	 viewBox="0 0 342.1 400" style="enable-background:new 0 0 342.1 400;" xml:space="preserve">
<style type="text/css">
	.st0{fill:#F4B91F;}
</style>
<g>
	<path class="st0" d="M342.1,93.5L171,0L0,93.5v212.8L47.1,332l-0.1,0.7l7,3.1l117,63.9l117-63.9l7.1-3.1L295,332l47.1-25.7V93.5z
		 M320.9,293.7l-28.3,15.5l-3.7-35.7c0,0-2.4-4-11.3-9.5c-9.3,8-37.4,25.4-105,25.4c-60.7,0-91.1-17.1-104.1-27.7
		c-12.2,6.5-15.3,11.7-15.3,11.7l-3.7,35.7l-28.3-15.5V106L171,24.2L320.9,106V293.7z"/>
	<path class="st0" d="M107.5,116c-23.2,4-38.8,10.1-41,17h-0.3v1.7c0,0,0,0,0,0c0,0,0,0,0,0v113l0.9,1.2c1,1.3,25.1,32.4,105.5,32.4
		c80.3,0,101.4-25,102.3-26.1l1-1.2V133h-0.3c-2.2-6.9-17.8-13-41-17c-3.8-25.9-30.8-46.1-63.6-46.1S111.2,90.1,107.5,116z
		 M172.6,272c-29.4,0-54.2-4.3-73.7-12.8c-13.7-6-20.6-12.2-23-14.8v-100c8,3.9,20.5,7.1,36,9.5c-4.2,3.2-6.4,11.6-5,21
		c1.5,10.8,7.1,19,12.8,19.3c8.1,25.8,29.3,48.7,52.9,48.7c23.6,0,42.5-22.9,49.6-48.7c5.8,0.1,11.6-8.3,13.2-19.3
		c1.3-9.4-0.9-17.9-5-21c15.5-2.4,28-5.7,36-9.5v106C261,255.3,238.2,272,172.6,272z"/>
	<path class="st0" d="M207.7,234.5c-9.6,10.2-21.7,16.8-35,16.8c-14,0-27.2-7.2-37.9-18.3l-2.6,10c-13.2,2.1-24.2,4.5-33.4,7.1
		c1.1,0.5,2.2,1,3.4,1.6c18.5,8,42.1,12.1,70.4,12.1c40.6,0,63.7-6.5,76.1-12.1c-10.2-3.1-23-6.2-38.8-8.7L207.7,234.5z"/>
</g>
</svg>
