<?xml version="1.0" encoding="utf-8"?>
<!-- Generator: Adobe Illustrator 19.0.0, SVG Export Plug-In . SVG Version: 6.00 Build 0)  -->
<svg version="1.1" id="Layer_1" xmlns="http://www.w3.org/2000/svg" xmlns:xlink="http://www.w3.org/1999/xlink" x="0px" y="0px"
	 viewBox="0 0 1440 1000" style="enable-background:new 0 0 1440 1000;" xml:space="preserve">
<style type="text/css">
	.st0{fill:#F2B91D;}
</style>
<g id="XMLID_1_">
	<path id="l-wing-out_3_" class="st0" d="M839.5,336.1c-5.3,0-20.7,3.9-20.7,15.8c0,6.2,5.1,11.3,11.3,11.3s11.3-5,11.3-11.3
		c0-5.2-0.1-13.8-0.1-13.9C841.4,337,840.5,336.1,839.5,336.1z M830.1,359.5c-4.2,0-7.6-3.4-7.6-7.6c0-7.5,9.6-11.2,15.1-11.9
		c0,2.9,0,8.3,0,11.9C837.7,356.1,834.3,359.5,830.1,359.5z"/>
	<path id="r-wing-out_3_" class="st0" d="M867.7,336.1c-1,0-1.9,0.8-1.9,1.9c0,0.1-0.1,8.8-0.1,13.9c0,6.2,5.1,11.3,11.3,11.3
		c6.3,0.1,11.4-5,11.4-11.3C888.4,340,873,336.1,867.7,336.1z M877.1,359.5c-4.2,0-7.6-3.4-7.6-7.6c0-3.6,0-9,0-11.9
		c5.5,0.7,15.1,4.4,15.1,11.9C884.6,356.1,881.2,359.5,877.1,359.5z"/>
	<path id="outline_3_" class="st0" d="M869.5,330.1c-0.2-6.2-3.9-11.6-9.3-14.1v-6.5c0-1.5,1.2-2.8,2.8-2.8c1.5,0,2.8,1.2,2.8,2.8
		c0,1,0.8,1.9,1.9,1.9c1.1,0,1.9-0.8,1.9-1.9c0-3.6-2.9-6.5-6.5-6.5s-6.5,2.9-6.5,6.5v5.3c-0.9-0.2-1.9-0.3-2.9-0.3s-2,0.1-2.9,0.3
		v-5.3c0-3.6-2.9-6.5-6.5-6.5c-3.6,0-6.5,2.9-6.5,6.5c0,1,0.8,1.9,1.9,1.9c1,0,1.9-0.8,1.9-1.9c0-1.5,1.2-2.8,2.8-2.8
		s2.8,1.2,2.8,2.8v6.5c-5.4,2.5-9.1,7.8-9.3,14.1c0,0.1,0,0.1,0,0.2c0,0,0,0,0,0.1v0.1v12.3c0,0.1,0,0.2,0,0.3s0,0.2,0,0.3v8.2
		c0,0.1,0,0.2,0,0.3c0,0.1,0,0.2,0,0.3v2.1c0,2.5,0.6,4.9,1.7,7.1c0.1,0.2,0.1,0.3,0.2,0.4c2.4,4.5,6.9,7.7,12.2,8.3v2.8
		c0,1,0.8,1.9,1.9,1.9c1.1,0,1.9-0.8,1.9-1.9v-2.8c7.9-0.9,14.1-7.7,14.1-15.8v-23.8v-0.1c0,0,0,0,0-0.1
		C869.5,330.2,869.5,330.1,869.5,330.1z M860.3,320.3c3.3,2.2,5.5,5.9,5.5,10.1c0,1.5-1.3,2.7-2.8,2.7s-2.8-1.2-2.8-2.8v-10H860.3z
		 M846.9,320.3v10c0,1.5-1.2,2.8-2.8,2.8c-1.5,0-2.7-1.2-2.8-2.7C841.4,326.1,843.6,322.4,846.9,320.3z M865.8,354.3
		c0,1.6-0.3,3.1-0.9,4.6h-22.6c-0.6-1.4-0.9-3-0.9-4.6v-0.5h24.4V354.3z M865.8,341.3h-24.4v-5.1c0.8,0.4,1.8,0.6,2.8,0.6
		c3.6,0,6.5-2.9,6.5-6.5v-11.7c0.9-0.2,1.9-0.4,2.9-0.4s2,0.1,2.9,0.4v11.6c0,3.6,2.9,6.5,6.5,6.5c1,0,1.9-0.2,2.8-0.6V341.3z"/>
</g>
<g id="XMLID_3_">
	<path id="l-wing-out_1_" class="st0" d="M1294.4,804.5c-5.3,0-20.7,3.9-20.7,15.8c0,6.2,5.1,11.3,11.3,11.3c6.2,0,11.3-5,11.3-11.3
		c0-5.2-0.1-13.8-0.1-13.9C1296.3,805.4,1295.4,804.5,1294.4,804.5z M1285,827.9c-4.2,0-7.6-3.4-7.6-7.6c0-7.5,9.6-11.2,15.1-11.9
		c0,2.9,0,8.3,0,11.9C1292.6,824.5,1289.2,827.9,1285,827.9z"/>
	<path id="r-wing-out_1_" class="st0" d="M1322.6,804.5c-1,0-1.9,0.8-1.9,1.9c0,0.1-0.1,8.8-0.1,13.9c0,6.2,5.1,11.3,11.3,11.3
		c6.3,0.1,11.4-5,11.4-11.3C1343.3,808.4,1327.9,804.5,1322.6,804.5z M1332,827.9c-4.2,0-7.6-3.4-7.6-7.6c0-3.6,0-9,0-11.9
		c5.5,0.7,15.1,4.4,15.1,11.9C1339.5,824.5,1336.1,827.9,1332,827.9z"/>
	<path id="outline_1_" class="st0" d="M1324.4,798.5c-0.2-6.2-3.9-11.6-9.3-14.1v-6.5c0-1.5,1.2-2.8,2.8-2.8c1.5,0,2.8,1.2,2.8,2.8
		c0,1,0.8,1.9,1.9,1.9s1.9-0.8,1.9-1.9c0-3.6-2.9-6.5-6.5-6.5s-6.5,2.9-6.5,6.5v5.3c-0.9-0.2-1.9-0.3-2.9-0.3s-2,0.1-2.9,0.3v-5.3
		c0-3.6-2.9-6.5-6.5-6.5s-6.5,2.9-6.5,6.5c0,1,0.8,1.9,1.9,1.9c1,0,1.9-0.8,1.9-1.9c0-1.5,1.2-2.8,2.8-2.8c1.6,0,2.8,1.2,2.8,2.8
		v6.5c-5.4,2.5-9.1,7.8-9.3,14.1c0,0.1,0,0.1,0,0.2c0,0,0,0,0,0.1v0.1v12.3c0,0.1,0,0.2,0,0.3c0,0.1,0,0.2,0,0.3v8.2
		c0,0.1,0,0.2,0,0.3c0,0.1,0,0.2,0,0.3v2.1c0,2.5,0.6,4.9,1.7,7.1c0.1,0.2,0.1,0.3,0.2,0.4c2.4,4.5,6.9,7.7,12.2,8.3v2.8
		c0,1,0.8,1.9,1.9,1.9c1.1,0,1.9-0.8,1.9-1.9v-2.8c7.9-0.9,14.1-7.7,14.1-15.8v-23.8v-0.1c0,0,0,0,0-0.1
		C1324.4,798.6,1324.4,798.5,1324.4,798.5z M1315.2,788.7c3.3,2.2,5.5,5.9,5.5,10.1c0,1.5-1.3,2.7-2.8,2.7s-2.8-1.2-2.8-2.8
		L1315.2,788.7L1315.2,788.7z M1301.8,788.7v10c0,1.5-1.2,2.8-2.8,2.8c-1.5,0-2.7-1.2-2.8-2.7
		C1296.3,794.5,1298.5,790.8,1301.8,788.7z M1320.7,822.7c0,1.6-0.3,3.1-0.9,4.6h-22.6c-0.6-1.4-0.9-3-0.9-4.6v-0.5h24.4V822.7z
		 M1320.7,809.7h-24.4v-5.1c0.8,0.4,1.8,0.6,2.8,0.6c3.6,0,6.5-2.9,6.5-6.5V787c0.9-0.2,1.9-0.4,2.9-0.4s2,0.1,2.9,0.4v11.6
		c0,3.6,2.9,6.5,6.5,6.5c1,0,1.9-0.2,2.8-0.6V809.7z"/>
</g>
<g id="XMLID_13_">
	<path id="l-wing-out_2_" class="st0" d="M438.7,639.3c-5.3,0-20.7,3.9-20.7,15.8c0,6.2,5.1,11.3,11.3,11.3c6.2,0,11.3-5,11.3-11.3
		c0-5.2-0.1-13.8-0.1-13.9C440.6,640.2,439.7,639.3,438.7,639.3z M429.3,662.7c-4.2,0-7.6-3.4-7.6-7.6c0-7.5,9.6-11.2,15.1-11.9
		c0,2.9,0,8.3,0,11.9C436.9,659.3,433.5,662.7,429.3,662.7z"/>
	<path id="r-wing-out_2_" class="st0" d="M466.9,639.3c-1,0-1.9,0.8-1.9,1.9c0,0.1-0.1,8.8-0.1,13.9c0,6.2,5.1,11.3,11.3,11.3
		c6.3,0.1,11.4-5,11.4-11.3C487.6,643.2,472.2,639.3,466.9,639.3z M476.3,662.7c-4.2,0-7.6-3.4-7.6-7.6c0-3.6,0-9,0-11.9
		c5.5,0.7,15.1,4.4,15.1,11.9C483.8,659.3,480.4,662.7,476.3,662.7z"/>
	<path id="outline_2_" class="st0" d="M468.7,633.3c-0.2-6.2-3.9-11.6-9.3-14.1v-6.5c0-1.5,1.2-2.8,2.8-2.8c1.5,0,2.8,1.2,2.8,2.8
		c0,1,0.8,1.9,1.9,1.9c1.1,0,1.9-0.8,1.9-1.9c0-3.6-2.9-6.5-6.5-6.5c-3.6,0-6.5,2.9-6.5,6.5v5.3c-0.9-0.2-1.9-0.3-2.9-0.3
		s-2,0.1-2.9,0.3v-5.3c0-3.6-2.9-6.5-6.5-6.5s-6.5,2.9-6.5,6.5c0,1,0.8,1.9,1.9,1.9c1,0,1.9-0.8,1.9-1.9c0-1.5,1.2-2.8,2.8-2.8
		s2.8,1.2,2.8,2.8v6.5c-5.4,2.5-9.1,7.8-9.3,14.1c0,0.1,0,0.1,0,0.2c0,0,0,0,0,0.1v0.1V646c0,0.1,0,0.2,0,0.3c0,0.1,0,0.2,0,0.3v8.2
		c0,0.1,0,0.2,0,0.3c0,0.1,0,0.2,0,0.3v2.1c0,2.5,0.6,4.9,1.7,7.1c0.1,0.2,0.1,0.3,0.2,0.4c2.4,4.5,6.9,7.7,12.2,8.3v2.8
		c0,1,0.8,1.9,1.9,1.9s1.9-0.8,1.9-1.9v-2.8c7.9-0.9,14.1-7.7,14.1-15.8v-23.8v-0.1c0,0,0,0,0-0.1
		C468.7,633.4,468.7,633.3,468.7,633.3z M459.5,623.5c3.3,2.2,5.5,5.9,5.5,10.1c0,1.5-1.3,2.7-2.8,2.7s-2.8-1.2-2.8-2.8v-10H459.5z
		 M446.1,623.5v10c0,1.5-1.2,2.8-2.8,2.8c-1.5,0-2.7-1.2-2.8-2.7C440.6,629.3,442.8,625.6,446.1,623.5z M465,657.5
		c0,1.6-0.3,3.1-0.9,4.6h-22.6c-0.6-1.4-0.9-3-0.9-4.6V657H465V657.5z M465,644.5h-24.4v-5.1c0.8,0.4,1.8,0.6,2.8,0.6
		c3.6,0,6.5-2.9,6.5-6.5v-11.7c0.9-0.2,1.9-0.4,2.9-0.4s2,0.1,2.9,0.4v11.6c0,3.6,2.9,6.5,6.5,6.5c1,0,1.9-0.2,2.8-0.6V644.5z"/>
</g>
<g id="XMLID_32_">
	<path id="l-wing-out_4_" class="st0" d="M146.1,93.8c-5.3,0-20.7,3.9-20.7,15.8c0,6.2,5.1,11.3,11.3,11.3c6.2,0,11.3-5,11.3-11.3
		c0-5.2-0.1-13.8-0.1-13.9C148,94.7,147.1,93.8,146.1,93.8z M136.7,117.2c-4.2,0-7.6-3.4-7.6-7.6c0-7.5,9.6-11.2,15.1-11.9
		c0,2.9,0,8.3,0,11.9C144.3,113.8,140.9,117.2,136.7,117.2z"/>
	<path id="r-wing-out_4_" class="st0" d="M174.3,93.8c-1,0-1.9,0.8-1.9,1.9c0,0.1-0.1,8.8-0.1,13.9c0,6.2,5.1,11.3,11.3,11.3
		c6.3,0.1,11.4-5,11.4-11.3C195,97.7,179.6,93.8,174.3,93.8z M183.7,117.2c-4.2,0-7.6-3.4-7.6-7.6c0-3.6,0-9,0-11.9
		c5.5,0.7,15.1,4.4,15.1,11.9C191.2,113.8,187.8,117.2,183.7,117.2z"/>
	<path id="outline_4_" class="st0" d="M176.1,87.8c-0.2-6.2-3.9-11.6-9.3-14.1v-6.5c0-1.5,1.2-2.8,2.8-2.8c1.5,0,2.8,1.2,2.8,2.8
		c0,1,0.8,1.9,1.9,1.9c1.1,0,1.9-0.8,1.9-1.9c0-3.6-2.9-6.5-6.5-6.5c-3.6,0-6.5,2.9-6.5,6.5v5.3c-0.9-0.2-1.9-0.3-2.9-0.3
		s-2,0.1-2.9,0.3v-5.3c0-3.6-2.9-6.5-6.5-6.5c-3.6,0-6.5,2.9-6.5,6.5c0,1,0.8,1.9,1.9,1.9c1,0,1.9-0.8,1.9-1.9
		c0-1.5,1.2-2.8,2.8-2.8c1.6,0,2.8,1.2,2.8,2.8v6.5c-5.4,2.5-9.1,7.8-9.3,14.1c0,0.1,0,0.1,0,0.2c0,0,0,0,0,0.1v0.1v12.3
		c0,0.1,0,0.2,0,0.3s0,0.2,0,0.3v8.2c0,0.1,0,0.2,0,0.3c0,0.1,0,0.2,0,0.3v2.1c0,2.5,0.6,4.9,1.7,7.1c0.1,0.2,0.1,0.3,0.2,0.4
		c2.4,4.5,6.9,7.7,12.2,8.3v2.8c0,1,0.8,1.9,1.9,1.9s1.9-0.8,1.9-1.9v-2.8c7.9-0.9,14.1-7.7,14.1-15.8V88.2v-0.1c0,0,0,0,0-0.1
		C176.1,87.9,176.1,87.8,176.1,87.8z M166.9,78c3.3,2.2,5.5,5.9,5.5,10.1c0,1.5-1.3,2.7-2.8,2.7s-2.8-1.2-2.8-2.8L166.9,78L166.9,78
		z M153.5,78v10c0,1.5-1.2,2.8-2.8,2.8c-1.5,0-2.7-1.2-2.8-2.7C148,83.8,150.2,80.1,153.5,78z M172.4,112c0,1.6-0.3,3.1-0.9,4.6
		h-22.6c-0.6-1.4-0.9-3-0.9-4.6v-0.5h24.4V112z M172.4,99H148v-5.1c0.8,0.4,1.8,0.6,2.8,0.6c3.6,0,6.5-2.9,6.5-6.5V76.3
		c0.9-0.2,1.9-0.4,2.9-0.4s2,0.1,2.9,0.4v11.6c0,3.6,2.9,6.5,6.5,6.5c1,0,1.9-0.2,2.8-0.6V99z"/>
</g>
<g id="XMLID_2_">
</g>
<g id="XMLID_42_">
</g>
<g id="XMLID_43_">
</g>
<g id="XMLID_44_">
</g>
<g id="XMLID_45_">
</g>
<g id="XMLID_46_">
</g>
</svg>
