<?xml version="1.0" encoding="utf-8"?>
<!-- Generator: Adobe Illustrator 21.0.0, SVG Export Plug-In . SVG Version: 6.00 Build 0)  -->
<svg version="1.1" id="Layer_1" xmlns="http://www.w3.org/2000/svg" xmlns:xlink="http://www.w3.org/1999/xlink" x="0px" y="0px"
	 viewBox="0 0 65.8 67.9" style="enable-background:new 0 0 65.8 67.9;" xml:space="preserve">
<style type="text/css">
	.st0{clip-path:url(#SVGID_2_);}
	.st1{clip-path:url(#SVGID_4_);fill:#FFFFFF;}
	.st2{clip-path:url(#SVGID_6_);}
	.st3{clip-path:url(#SVGID_8_);enable-background:new    ;}
	.st4{clip-path:url(#SVGID_10_);}
	.st5{clip-path:url(#SVGID_12_);}
	.st6{clip-path:url(#SVGID_14_);fill:#FFFFFF;}
</style>
<g>
	<g>
		<defs>
			<path id="SVGID_1_" d="M39.5,34.6h-4.2v15.6h-6.4V34.6h-3.1v-5.5h3.1v-3.6c0-2.5,1.2-6.5,6.5-6.5l4.8,0v5.3h-3.4
				c-0.6,0-1.4,0.3-1.4,1.5v3.2H40L39.5,34.6z"/>
		</defs>
		<clipPath id="SVGID_2_">
			<use xlink:href="#SVGID_1_"  style="overflow:visible;"/>
		</clipPath>
		<g class="st0">
			<defs>
				<rect id="SVGID_3_" x="-690" y="-851.4" width="1440" height="2840"/>
			</defs>
			<clipPath id="SVGID_4_">
				<use xlink:href="#SVGID_3_"  style="overflow:visible;"/>
			</clipPath>
			<rect x="20.8" y="14" class="st1" width="24.3" height="41.2"/>
		</g>
	</g>
	<g>
		<defs>
			<polygon id="SVGID_5_" points="32.9,58.4 8.6,58.4 8.6,9.5 32.9,9.5 57.1,9.5 57.1,58.4 			"/>
		</defs>
		<clipPath id="SVGID_6_">
			<use xlink:href="#SVGID_5_"  style="overflow:visible;"/>
		</clipPath>
		<g class="st2">
			<defs>
				<rect id="SVGID_7_" x="-690" y="-851.4" width="1440" height="2840"/>
			</defs>
			<clipPath id="SVGID_8_">
				<use xlink:href="#SVGID_7_"  style="overflow:visible;"/>
			</clipPath>
			<g class="st3">
				<g>
					<defs>
						<rect id="SVGID_9_" x="8.6" y="8.6" width="49" height="50"/>
					</defs>
					<clipPath id="SVGID_10_">
						<use xlink:href="#SVGID_9_"  style="overflow:visible;"/>
					</clipPath>
					<g class="st4">
						<defs>
							<path id="SVGID_11_" d="M48.8,9.5H17c-4.6,0-8.4,3.8-8.4,8.4v32c0,4.7,3.8,8.4,8.4,8.4h31.8c4.6,0,8.4-3.8,8.4-8.4v-32
								C57.1,13.3,53.4,9.5,48.8,9.5z M55.9,50c0,3.9-3.2,7.1-7.1,7.1H17c-3.9,0-7.1-3.2-7.1-7.1v-32c0-3.9,3.2-7.1,7.1-7.1h31.8
								c3.9,0,7.1,3.2,7.1,7.1V50z"/>
						</defs>
						<clipPath id="SVGID_12_">
							<use xlink:href="#SVGID_11_"  style="overflow:visible;"/>
						</clipPath>
						<g class="st5">
							<defs>
								<rect id="SVGID_13_" x="8.6" y="8.6" width="49" height="50"/>
							</defs>
							<clipPath id="SVGID_14_">
								<use xlink:href="#SVGID_13_"  style="overflow:visible;"/>
							</clipPath>
							<rect x="3.6" y="4.5" class="st6" width="58.5" height="58.9"/>
						</g>
					</g>
				</g>
			</g>
		</g>
	</g>
</g>
</svg>
