<?xml version="1.0" encoding="utf-8"?>
<!-- Generator: Adobe Illustrator 19.0.0, SVG Export Plug-In . SVG Version: 6.00 Build 0)  -->
<svg version="1.1" id="Layer_1" xmlns="http://www.w3.org/2000/svg" xmlns:xlink="http://www.w3.org/1999/xlink" x="0px" y="0px"
	 viewBox="0 0 1440 1000" style="enable-background:new 0 0 1440 1000;" xml:space="preserve">
<style type="text/css">
	.st0{fill:#FFFFFF;}
</style>
<path id="XMLID_2_" class="st0" d="M152.1,139.4L138,113.7l14.1-25.8h34.1L203,57.3l-16.8-30.6h-34.1L136.7-1.6H98.6L81.9,29
	l15.5,28.3L83.3,83.1H51.8L36.4,54.8H-1.6L-17,83.1h-35.1l-16.8,30.6l16.8,30.6h35.3l14.1,25.8l-15.5,28.3l16.8,30.6h38.1l16.8-30.6
	L38,170.1l14.1-25.8h31.3l15.5,28.3H133l15.5,28.3h38.1l16.8-30.6l-16.8-30.6h-34.4V139.4z M197.5,57.3l-14.1,25.8h-31.3L138,57.3
	l14.1-25.8h31.3L197.5,57.3z M101.4,3.2h32.4L147.5,28L132.8,55h-31.3L87.4,29.2L101.4,3.2z M101.4,59.6h31.3l14.6,26.9l-13.6,24.8
	h-32.4l-7-13l-7-13L101.4,59.6z M83.1,139.4H51.8l-14.1-25.8l14.1-25.8h31.3l7,13l7,13l-7,13L83.1,139.4z M-5.9,129l7-13h31.4
	l14.6,26.9l-13.6,24.8H1.3l-14.1-25.8L-5.9,129z M1.3,59.6h32.4l13.6,24.8l-14.8,26.9H1.3l-7-13l-7-13L1.3,59.6z M-63.4,113.7
	l14.1-25.8h32.4l7,13l7,13l-7,13l-7,13h-32.6L-63.4,113.7z M33.7,224.1H1.3l-14.1-25.8l14.1-25.8h32.4l14.1,25.8L33.7,224.1z
	 M87.3,141.9l7-13l7-13h32.4l13.6,24.8l-14.6,26.9h-31.3L87.3,141.9z M183.4,196H151l-13.6-24.8l14.6-26.9h31.3l14.1,25.8L183.4,196
	z"/>
<path id="XMLID_14_" class="st0" d="M1272.1,641.9l14.1,25.8l-14.1,25.8H1238l-16.8,30.6l16.8,30.6h34.1l15.5,28.3h38.1l16.6-30.6
	l-15.5-28.3l14.1-25.8h31.4l15.5,28.3h37.9l15.5-28.3h35.1l16.8-30.6l-16.8-30.6h-35.3l-14.1-25.8l15.5-28.3l-16.8-30.6h-38.1
	l-16.8,30.6l15.5,28.3l-14.1,25.8h-31.3l-15.5-28.3h-34.1l-15.5-28.3h-38.1l-16.8,30.6l16.8,30.6h34.4V641.9z M1226.7,724l14.1-25.8
	h31.3l14.1,25.8l-14.1,25.8h-31.3L1226.7,724z M1322.9,778.1h-32.4l-13.6-24.8l14.6-26.9h31.3l14.1,25.8L1322.9,778.1z
	 M1322.9,721.7h-31.3l-14.6-26.9l13.6-24.8h32.4l7,13l7,13L1322.9,721.7z M1341.2,641.9h31.3l14.1,25.8l-14.1,25.8h-31.3l-7-13
	l-7-13l7-13L1341.2,641.9z M1430.1,652.4l-7,13h-31.4l-14.6-26.9l13.6-24.8h32.3l14.1,25.8L1430.1,652.4z M1423,721.7h-32.4
	l-13.6-24.8l14.8-26.9h31.3l7,13l7,13L1423,721.7z M1487.7,667.7l-14.1,25.8h-32.4l-7-13l-7-13l7-13l7-13h32.6L1487.7,667.7z
	 M1390.6,557.2h32.4l14.1,25.8l-14.1,25.8h-32.4l-14.1-25.8L1390.6,557.2z M1337,639.4l-7,13l-7,13h-32.4l-13.6-24.8l14.6-26.9h31.3
	L1337,639.4z M1240.9,585.3h32.4l13.6,24.8l-14.6,26.9H1241l-14.1-25.8L1240.9,585.3z"/>
<g id="XMLID_1_">
</g>
<g id="XMLID_26_">
</g>
<g id="XMLID_27_">
</g>
<g id="XMLID_28_">
</g>
<g id="XMLID_29_">
</g>
<g id="XMLID_30_">
</g>
</svg>
