<?xml version="1.0" encoding="utf-8"?>
<!-- Generator: Adobe Illustrator 21.0.0, SVG Export Plug-In . SVG Version: 6.00 Build 0)  -->
<svg version="1.1" id="Layer_1" xmlns="http://www.w3.org/2000/svg" xmlns:xlink="http://www.w3.org/1999/xlink" x="0px" y="0px"
	 viewBox="0 0 163.4 138.6" style="enable-background:new 0 0 163.4 138.6;" xml:space="preserve">
<style type="text/css">
	.st0{fill:#FFFFFF;}
</style>
<path class="st0" d="M132.9,84.8l-8.5-15.5l8.5-15.5h20.5l10.1-18.4L153.4,17h-20.5l-9.3-17h-22.9L90.7,18.4l9.3,17l-8.5,15.5H72.6
	l-9.3-17H40.5l-9.3,17H10.1L0,69.3l10.1,18.4h21.2l8.5,15.5l-9.3,17l10.1,18.4h22.9l10.1-18.4l-9.3-17l8.5-15.5h18.8l9.3,17h20.5
	l9.3,17h22.9l10.1-18.4l-10.1-18.4H132.9z M160.2,35.4l-8.5,15.5h-18.8l-8.5-15.5l8.5-15.5h18.8L160.2,35.4z M102.4,2.9h19.5
	l8.2,14.9l-8.8,16.2h-18.8l-8.5-15.5L102.4,2.9z M102.4,36.8h18.8L130,53l-8.2,14.9h-19.5l-4.2-7.8l-4.2-7.8L102.4,36.8z M91.4,84.8
	H72.6l-8.5-15.5l8.5-15.5h18.8l4.2,7.8l4.2,7.8l-4.2,7.8L91.4,84.8z M37.9,78.5l4.2-7.8H61l8.8,16.2l-8.2,14.9H42.2l-8.5-15.5
	L37.9,78.5z M42.2,36.8h19.5l8.2,14.9L61,67.9H42.2l-4.2-7.8l-4.2-7.8L42.2,36.8z M3.3,69.3l8.5-15.5h19.5l4.2,7.8l4.2,7.8l-4.2,7.8
	l-4.2,7.8H11.7L3.3,69.3z M61.7,135.7H42.2l-8.5-15.5l8.5-15.5h19.5l8.5,15.5L61.7,135.7z M93.9,86.3l4.2-7.8l4.2-7.8h19.5l8.2,14.9
	l-8.8,16.2h-18.8L93.9,86.3z M151.7,118.8h-19.5l-8.2-14.9l8.8-16.2h18.8l8.5,15.5L151.7,118.8z"/>
</svg>
