<?xml version="1.0" encoding="utf-8"?>
<!-- Generator: Adobe Illustrator 21.0.0, SVG Export Plug-In . SVG Version: 6.00 Build 0)  -->
<svg version="1.1" id="Layer_1" xmlns="http://www.w3.org/2000/svg" xmlns:xlink="http://www.w3.org/1999/xlink" x="0px" y="0px"
	 viewBox="0 0 65.8 67.9" style="enable-background:new 0 0 65.8 67.9;" xml:space="preserve">
<style type="text/css">
	.st0{clip-path:url(#SVGID_2_);}
	.st1{clip-path:url(#SVGID_4_);fill:#FFFFFF;}
	.st2{clip-path:url(#SVGID_6_);}
	.st3{clip-path:url(#SVGID_8_);fill:#FFFFFF;}
	.st4{clip-path:url(#SVGID_10_);}
	.st5{clip-path:url(#SVGID_12_);fill:#FFFFFF;}
	.st6{clip-path:url(#SVGID_14_);}
	.st7{clip-path:url(#SVGID_16_);enable-background:new    ;}
	.st8{clip-path:url(#SVGID_18_);}
	.st9{clip-path:url(#SVGID_20_);}
	.st10{clip-path:url(#SVGID_22_);fill:#FFFFFF;}
</style>
<g>
	<g>
		<defs>
			<path id="SVGID_1_" d="M40.1,19.2H25.7c-4.1,0-7.4,3.3-7.4,7.4v14.6c0,4.1,3.3,7.4,7.4,7.4h14.5c4.1,0,7.4-3.3,7.4-7.4V26.7
				C47.5,22.6,44.2,19.2,40.1,19.2z M44.3,41.2c0,2.3-1.9,4.2-4.2,4.2H25.7c-2.3,0-4.2-1.9-4.2-4.2V26.7c0-2.3,1.9-4.2,4.2-4.2h14.5
				c2.3,0,4.2,1.9,4.2,4.2V41.2z"/>
		</defs>
		<clipPath id="SVGID_2_">
			<use xlink:href="#SVGID_1_"  style="overflow:visible;"/>
		</clipPath>
		<g class="st0">
			<defs>
				<rect id="SVGID_3_" x="-776.7" y="-851.4" width="1440" height="2840"/>
			</defs>
			<clipPath id="SVGID_4_">
				<use xlink:href="#SVGID_3_"  style="overflow:visible;"/>
			</clipPath>
			<rect x="13.3" y="14.2" class="st1" width="39.2" height="39.4"/>
		</g>
	</g>
	<g>
		<defs>
			<path id="SVGID_5_" d="M40.7,24.4c-1,0-1.8,0.8-1.8,1.8c0,1,0.8,1.8,1.8,1.8c1,0,1.8-0.8,1.8-1.8C42.4,25.2,41.6,24.4,40.7,24.4"
				/>
		</defs>
		<clipPath id="SVGID_6_">
			<use xlink:href="#SVGID_5_"  style="overflow:visible;"/>
		</clipPath>
		<g class="st2">
			<defs>
				<rect id="SVGID_7_" x="-776.7" y="-851.4" width="1440" height="2840"/>
			</defs>
			<clipPath id="SVGID_8_">
				<use xlink:href="#SVGID_7_"  style="overflow:visible;"/>
			</clipPath>
			<rect x="33.9" y="19.4" class="st3" width="13.6" height="13.6"/>
		</g>
	</g>
	<g>
		<defs>
			<path id="SVGID_9_" d="M32.9,26.4c-4.1,0-7.5,3.4-7.5,7.6c0,4.2,3.4,7.6,7.5,7.6s7.5-3.4,7.5-7.6C40.4,29.8,37,26.4,32.9,26.4
				 M32.9,38.3c-2.4,0-4.3-2-4.3-4.4c0-2.4,1.9-4.4,4.3-4.4c2.4,0,4.3,2,4.3,4.4C37.2,36.4,35.3,38.3,32.9,38.3"/>
		</defs>
		<clipPath id="SVGID_10_">
			<use xlink:href="#SVGID_9_"  style="overflow:visible;"/>
		</clipPath>
		<g class="st4">
			<defs>
				<rect id="SVGID_11_" x="-776.7" y="-851.4" width="1440" height="2840"/>
			</defs>
			<clipPath id="SVGID_12_">
				<use xlink:href="#SVGID_11_"  style="overflow:visible;"/>
			</clipPath>
			<rect x="20.4" y="21.4" class="st5" width="25" height="25.2"/>
		</g>
	</g>
	<g>
		<defs>
			<polygon id="SVGID_13_" points="32.9,58.4 57.1,58.4 57.1,9.5 32.9,9.5 8.6,9.5 8.6,58.4 			"/>
		</defs>
		<clipPath id="SVGID_14_">
			<use xlink:href="#SVGID_13_"  style="overflow:visible;"/>
		</clipPath>
		<g class="st6">
			<defs>
				<rect id="SVGID_15_" x="-776.7" y="-851.4" width="1440" height="2840"/>
			</defs>
			<clipPath id="SVGID_16_">
				<use xlink:href="#SVGID_15_"  style="overflow:visible;"/>
			</clipPath>
			<g class="st7">
				<g>
					<defs>
						<rect id="SVGID_17_" x="8.6" y="8.6" width="49" height="50"/>
					</defs>
					<clipPath id="SVGID_18_">
						<use xlink:href="#SVGID_17_"  style="overflow:visible;"/>
					</clipPath>
					<g class="st8">
						<defs>
							<path id="SVGID_19_" d="M48.8,9.5H17c-4.6,0-8.4,3.8-8.4,8.4v32c0,4.7,3.8,8.4,8.4,8.4h31.8c4.6,0,8.4-3.8,8.4-8.4v-32
								C57.1,13.3,53.4,9.5,48.8,9.5z M55.9,50c0,3.9-3.2,7.1-7.1,7.1H17c-3.9,0-7.1-3.2-7.1-7.1v-32c0-3.9,3.2-7.1,7.1-7.1h31.8
								c3.9,0,7.1,3.2,7.1,7.1V50z"/>
						</defs>
						<clipPath id="SVGID_20_">
							<use xlink:href="#SVGID_19_"  style="overflow:visible;"/>
						</clipPath>
						<g class="st9">
							<defs>
								<rect id="SVGID_21_" x="8.6" y="8.6" width="49" height="50"/>
							</defs>
							<clipPath id="SVGID_22_">
								<use xlink:href="#SVGID_21_"  style="overflow:visible;"/>
							</clipPath>
							<rect x="3.6" y="4.5" class="st10" width="58.5" height="58.9"/>
						</g>
					</g>
				</g>
			</g>
		</g>
	</g>
</g>
</svg>
