<?xml version="1.0" encoding="utf-8"?>
<!-- Generator: Adobe Illustrator 21.0.0, SVG Export Plug-In . SVG Version: 6.00 Build 0)  -->
<svg version="1.1" id="Layer_1" xmlns="http://www.w3.org/2000/svg" xmlns:xlink="http://www.w3.org/1999/xlink" x="0px" y="0px"
	 viewBox="0 0 189.7 48.3" style="enable-background:new 0 0 189.7 48.3;" xml:space="preserve">
<style type="text/css">
	.st0{fill:#F2B91B;}
</style>
<g>
	<g>
		<g>
			<path class="st0" d="M59.5,18.6h1v4.9h6.2v-4.9h1v11.2h-1v-5.3h-6.2v5.3h-1V18.6z"/>
			<path class="st0" d="M74.3,18.6h6.8v0.9h-5.8v4h5.4v0.9h-5.4v4.4h6v0.9h-7.1V18.6z"/>
			<path class="st0" d="M87.2,18.6h6.7v0.9h-5.6v4h5.3v0.9h-5.3v5.3h-1V18.6z"/>
			<path class="st0" d="M99.4,18.6h6.7v0.9h-5.6v4h5.3v0.9h-5.3v5.3h-1V18.6z"/>
			<path class="st0" d="M110.5,18.6h1.2l-1.2,3.6h-0.9L110.5,18.6z"/>
			<path class="st0" d="M115.7,27.7c0.3,0.5,0.6,0.8,1.1,1.1c0.4,0.2,0.9,0.3,1.5,0.3c0.3,0,0.7-0.1,1-0.2c0.3-0.1,0.6-0.3,0.8-0.4
				c0.2-0.2,0.4-0.4,0.5-0.7c0.1-0.3,0.2-0.6,0.2-0.9c0-0.4-0.1-0.7-0.2-1c-0.2-0.3-0.4-0.5-0.7-0.6c-0.3-0.2-0.6-0.3-0.9-0.4
				c-0.3-0.1-0.7-0.2-1.1-0.3c-0.4-0.1-0.7-0.2-1.1-0.4c-0.3-0.1-0.6-0.3-0.9-0.6c-0.3-0.2-0.5-0.5-0.7-0.9
				c-0.2-0.4-0.2-0.8-0.2-1.3c0-0.5,0.1-0.9,0.3-1.3c0.2-0.4,0.5-0.7,0.8-1c0.3-0.3,0.7-0.5,1.1-0.6c0.4-0.1,0.9-0.2,1.4-0.2
				c0.6,0,1.2,0.1,1.7,0.3c0.5,0.2,1,0.6,1.3,1.1l-0.9,0.6c-0.3-0.4-0.6-0.6-0.9-0.8c-0.4-0.2-0.8-0.3-1.3-0.3c-0.3,0-0.7,0-1,0.1
				c-0.3,0.1-0.6,0.2-0.8,0.4c-0.2,0.2-0.4,0.4-0.5,0.7c-0.1,0.3-0.2,0.6-0.2,0.9c0,0.6,0.1,1,0.4,1.3c0.3,0.3,0.6,0.5,1.1,0.7
				c0.4,0.2,0.9,0.3,1.4,0.5c0.5,0.1,1,0.3,1.4,0.5c0.4,0.2,0.8,0.5,1.1,0.9c0.3,0.4,0.4,0.9,0.4,1.6c0,0.5-0.1,1-0.3,1.3
				c-0.2,0.4-0.4,0.7-0.8,1s-0.7,0.5-1.1,0.6c-0.4,0.1-0.9,0.2-1.3,0.2c-0.7,0-1.4-0.1-2-0.4c-0.6-0.3-1.2-0.7-1.6-1.3L115.7,27.7z"
				/>
			<path class="st0" d="M135.2,18.6h1v4.9h6.2v-4.9h1v11.2h-1v-5.3h-6.2v5.3h-1V18.6z"/>
			<path class="st0" d="M150.1,18.6h1v11.2h-1V18.6z"/>
			<path class="st0" d="M156.1,18.6h1.1l3.6,9.8l3.6-9.8h1.1l-4.2,11.2h-1L156.1,18.6z"/>
			<path class="st0" d="M170.5,18.6h6.8v0.9h-5.8v4h5.4v0.9h-5.4v4.4h6v0.9h-7.1V18.6z"/>
			<path class="st0" d="M183.6,27.7c0.3,0.5,0.6,0.8,1.1,1.1c0.4,0.2,0.9,0.3,1.5,0.3c0.3,0,0.7-0.1,1-0.2c0.3-0.1,0.6-0.3,0.8-0.4
				c0.2-0.2,0.4-0.4,0.5-0.7c0.1-0.3,0.2-0.6,0.2-0.9c0-0.4-0.1-0.7-0.2-1c-0.2-0.3-0.4-0.5-0.7-0.6c-0.3-0.2-0.6-0.3-0.9-0.4
				c-0.3-0.1-0.7-0.2-1.1-0.3c-0.4-0.1-0.7-0.2-1.1-0.4c-0.3-0.1-0.6-0.3-0.9-0.6c-0.3-0.2-0.5-0.5-0.7-0.9
				c-0.2-0.4-0.2-0.8-0.2-1.3c0-0.5,0.1-0.9,0.3-1.3c0.2-0.4,0.5-0.7,0.8-1c0.3-0.3,0.7-0.5,1.1-0.6c0.4-0.1,0.9-0.2,1.4-0.2
				c0.6,0,1.2,0.1,1.7,0.3c0.5,0.2,1,0.6,1.3,1.1l-0.9,0.6c-0.3-0.4-0.6-0.6-0.9-0.8c-0.4-0.2-0.8-0.3-1.3-0.3c-0.3,0-0.7,0-1,0.1
				c-0.3,0.1-0.6,0.2-0.8,0.4c-0.2,0.2-0.4,0.4-0.5,0.7c-0.1,0.3-0.2,0.6-0.2,0.9c0,0.6,0.1,1,0.4,1.3c0.3,0.3,0.6,0.5,1.1,0.7
				s0.9,0.3,1.4,0.5c0.5,0.1,1,0.3,1.4,0.5c0.4,0.2,0.8,0.5,1.1,0.9c0.3,0.4,0.4,0.9,0.4,1.6c0,0.5-0.1,1-0.3,1.3
				c-0.2,0.4-0.4,0.7-0.8,1s-0.7,0.5-1.1,0.6c-0.4,0.1-0.9,0.2-1.3,0.2c-0.7,0-1.4-0.1-2-0.4c-0.6-0.3-1.2-0.7-1.6-1.3L183.6,27.7z"
				/>
		</g>
	</g>
	<path class="st0" d="M0,11.3V37l20.7,11.3L41.4,37V11.3L20.7,0L0,11.3z M38.8,35.5l-18.1,9.9L2.6,35.5V12.8l18.1-9.9l18.1,9.9V35.5
		z"/>
	<g>
		<g>
			<g>
				<polygon class="st0" points="28.3,22.5 28.3,27.5 21.8,27.5 21.8,24.9 19.6,26 19.6,35.1 21.8,35.1 21.8,29.3 28.3,29.3 
					28.3,35.1 30.5,35.1 30.5,22.5 				"/>
			</g>
			<g>
				<polygon class="st0" points="19.6,23.5 21.8,22.3 21.8,22.4 21.8,13.2 19.6,13.2 19.6,18.2 13,18.2 13,13.2 10.9,13.2 
					10.9,25.9 13,25.9 13,20.1 19.6,20.1 				"/>
			</g>
		</g>
	</g>
</g>
</svg>
