<?xml version="1.0" encoding="utf-8"?>
<!-- Generator: Adobe Illustrator 21.0.0, SVG Export Plug-In . SVG Version: 6.00 Build 0)  -->
<svg version="1.1" id="Layer_1" xmlns="http://www.w3.org/2000/svg" xmlns:xlink="http://www.w3.org/1999/xlink" x="0px" y="0px"
	 viewBox="0 0 713.6 62.5" style="enable-background:new 0 0 713.6 62.5;" xml:space="preserve">
<style type="text/css">
	.st0{clip-path:url(#SVGID_2_);}
	.st1{clip-path:url(#SVGID_4_);fill:#FEFEFE;}
	.st2{clip-path:url(#SVGID_6_);}
	.st3{clip-path:url(#SVGID_8_);fill:#FEFEFE;}
	.st4{clip-path:url(#SVGID_10_);}
	.st5{clip-path:url(#SVGID_12_);fill:#FEFEFE;}
	.st6{clip-path:url(#SVGID_14_);}
	.st7{clip-path:url(#SVGID_16_);fill:#FEFEFE;}
	.st8{clip-path:url(#SVGID_18_);}
	.st9{clip-path:url(#SVGID_20_);fill:#FEFEFE;}
	.st10{clip-path:url(#SVGID_22_);}
	.st11{clip-path:url(#SVGID_24_);fill:#FEFEFE;}
	.st12{clip-path:url(#SVGID_26_);}
	.st13{clip-path:url(#SVGID_28_);fill:#FEFEFE;}
	.st14{clip-path:url(#SVGID_30_);}
	.st15{clip-path:url(#SVGID_32_);enable-background:new    ;}
	.st16{clip-path:url(#SVGID_34_);}
	.st17{clip-path:url(#SVGID_36_);}
	.st18{clip-path:url(#SVGID_38_);fill:#FEFEFE;}
	.st19{clip-path:url(#SVGID_40_);}
	.st20{clip-path:url(#SVGID_42_);fill:#FEFEFE;}
	.st21{clip-path:url(#SVGID_44_);}
	.st22{clip-path:url(#SVGID_46_);fill:#FEFEFE;}
	.st23{clip-path:url(#SVGID_48_);}
	.st24{clip-path:url(#SVGID_50_);fill:#FEFEFE;}
</style>
<g>
	<defs>
		<polygon id="SVGID_1_" points="40,1.5 40,28.4 5.7,28.4 5.7,1.5 0,1.5 0,62.5 5.7,62.5 5.7,33.6 40,33.6 40,62.5 45.7,62.5 
			45.7,1.5 		"/>
	</defs>
	<clipPath id="SVGID_2_">
		<use xlink:href="#SVGID_1_"  style="overflow:visible;"/>
	</clipPath>
	<g class="st0">
		<defs>
			<rect id="SVGID_3_" x="-365.9" y="-658.7" width="1440" height="3190"/>
		</defs>
		<clipPath id="SVGID_4_">
			<use xlink:href="#SVGID_3_"  style="overflow:visible;"/>
		</clipPath>
		<rect x="-5" y="-3.5" class="st1" width="55.7" height="70.9"/>
	</g>
</g>
<g>
	<defs>
		<polygon id="SVGID_5_" points="81.5,1.5 81.5,62.5 120.3,62.5 120.3,57.3 87.2,57.3 87.2,33.6 116.9,33.6 116.9,28.4 87.2,28.4 
			87.2,6.7 118.9,6.7 118.9,1.5 		"/>
	</defs>
	<clipPath id="SVGID_6_">
		<use xlink:href="#SVGID_5_"  style="overflow:visible;"/>
	</clipPath>
	<g class="st2">
		<defs>
			<rect id="SVGID_7_" x="-365.9" y="-658.7" width="1440" height="3190"/>
		</defs>
		<clipPath id="SVGID_8_">
			<use xlink:href="#SVGID_7_"  style="overflow:visible;"/>
		</clipPath>
		<rect x="76.5" y="-3.5" class="st3" width="48.8" height="70.9"/>
	</g>
</g>
<g>
	<defs>
		<polygon id="SVGID_9_" points="151.8,1.5 151.8,62.5 157.5,62.5 157.5,33.6 186.3,33.6 186.3,28.4 157.5,28.4 157.5,6.7 
			188.4,6.7 188.4,1.5 		"/>
	</defs>
	<clipPath id="SVGID_10_">
		<use xlink:href="#SVGID_9_"  style="overflow:visible;"/>
	</clipPath>
	<g class="st4">
		<defs>
			<rect id="SVGID_11_" x="-365.9" y="-658.7" width="1440" height="3190"/>
		</defs>
		<clipPath id="SVGID_12_">
			<use xlink:href="#SVGID_11_"  style="overflow:visible;"/>
		</clipPath>
		<rect x="146.8" y="-3.5" class="st5" width="46.7" height="70.9"/>
	</g>
</g>
<g>
	<defs>
		<polygon id="SVGID_13_" points="218.9,1.5 218.9,62.5 224.6,62.5 224.6,33.6 253.4,33.6 253.4,28.4 224.6,28.4 224.6,6.7 
			255.5,6.7 255.5,1.5 		"/>
	</defs>
	<clipPath id="SVGID_14_">
		<use xlink:href="#SVGID_13_"  style="overflow:visible;"/>
	</clipPath>
	<g class="st6">
		<defs>
			<rect id="SVGID_15_" x="-365.9" y="-658.7" width="1440" height="3190"/>
		</defs>
		<clipPath id="SVGID_16_">
			<use xlink:href="#SVGID_15_"  style="overflow:visible;"/>
		</clipPath>
		<rect x="213.9" y="-3.5" class="st7" width="46.7" height="70.9"/>
	</g>
</g>
<g>
	<defs>
		<polygon id="SVGID_17_" points="279.7,1.5 286.1,1.5 279.4,21.2 274.3,21.2 		"/>
	</defs>
	<clipPath id="SVGID_18_">
		<use xlink:href="#SVGID_17_"  style="overflow:visible;"/>
	</clipPath>
	<g class="st8">
		<defs>
			<rect id="SVGID_19_" x="-365.9" y="-658.7" width="1440" height="3190"/>
		</defs>
		<clipPath id="SVGID_20_">
			<use xlink:href="#SVGID_19_"  style="overflow:visible;"/>
		</clipPath>
		<rect x="269.3" y="-3.5" class="st9" width="21.8" height="29.6"/>
	</g>
</g>
<g>
	<defs>
		<path id="SVGID_21_" d="M307.9,51.2c1.5,2.6,3.4,4.5,5.8,5.8c2.4,1.3,5.1,1.9,8.2,1.9c1.9,0,3.7-0.3,5.4-0.9
			c1.7-0.6,3.1-1.4,4.4-2.4c1.2-1,2.2-2.3,2.9-3.7c0.7-1.5,1.1-3.1,1.1-4.9c0-2.1-0.4-3.9-1.3-5.3c-0.9-1.4-2.1-2.5-3.6-3.4
			c-1.5-0.9-3.2-1.6-5.1-2.3c-1.9-0.6-3.8-1.3-5.8-1.9c-2-0.6-3.9-1.3-5.8-2.1c-1.9-0.8-3.6-1.8-5.1-3.1c-1.5-1.3-2.7-2.9-3.6-4.9
			c-0.9-1.9-1.3-4.4-1.3-7.2c0-2.7,0.5-5.1,1.6-7.2c1.1-2.1,2.5-3.8,4.3-5.2c1.8-1.4,3.9-2.5,6.3-3.2c2.4-0.7,4.8-1.1,7.4-1.1
			c3.3,0,6.4,0.6,9.3,1.8c2.9,1.2,5.3,3.1,7.4,5.9l-4.9,3.5c-1.4-2-3.1-3.5-5.1-4.5c-1.9-1-4.2-1.5-6.9-1.5c-1.9,0-3.6,0.2-5.3,0.7
			c-1.7,0.5-3.1,1.2-4.4,2.1c-1.2,0.9-2.2,2.1-3,3.6c-0.7,1.4-1.1,3.1-1.1,5.1c0,3,0.8,5.4,2.3,7c1.6,1.6,3.5,2.9,5.8,3.9
			c2.3,0.9,4.9,1.8,7.6,2.5c2.7,0.7,5.3,1.7,7.6,2.9c2.3,1.2,4.3,2.9,5.8,5c1.6,2.2,2.3,5.1,2.3,8.9c0,2.8-0.5,5.2-1.6,7.3
			c-1,2.1-2.4,3.9-4.2,5.4c-1.8,1.5-3.8,2.6-6.1,3.3c-2.3,0.7-4.7,1.1-7.2,1.1c-4,0-7.8-0.7-11.2-2.1c-3.4-1.4-6.3-3.8-8.7-7.1
			L307.9,51.2z"/>
	</defs>
	<clipPath id="SVGID_22_">
		<use xlink:href="#SVGID_21_"  style="overflow:visible;"/>
	</clipPath>
	<g class="st10">
		<defs>
			<rect id="SVGID_23_" x="-365.9" y="-658.7" width="1440" height="3190"/>
		</defs>
		<clipPath id="SVGID_24_">
			<use xlink:href="#SVGID_23_"  style="overflow:visible;"/>
		</clipPath>
		<rect x="297.5" y="-5" class="st11" width="48.9" height="74"/>
	</g>
</g>
<g>
	<defs>
		<polygon id="SVGID_25_" points="414.9,1.5 420.6,1.5 420.6,28.4 454.9,28.4 454.9,1.5 460.6,1.5 460.6,62.5 454.9,62.5 
			454.9,33.6 420.6,33.6 420.6,62.5 414.9,62.5 		"/>
	</defs>
	<clipPath id="SVGID_26_">
		<use xlink:href="#SVGID_25_"  style="overflow:visible;"/>
	</clipPath>
	<g class="st12">
		<defs>
			<rect id="SVGID_27_" x="-365.9" y="-658.7" width="1440" height="3190"/>
		</defs>
		<clipPath id="SVGID_28_">
			<use xlink:href="#SVGID_27_"  style="overflow:visible;"/>
		</clipPath>
		<rect x="409.9" y="-3.5" class="st13" width="55.7" height="70.9"/>
	</g>
</g>
<g>
	<defs>
		<rect id="SVGID_29_" x="0" width="713.6" height="64"/>
	</defs>
	<clipPath id="SVGID_30_">
		<use xlink:href="#SVGID_29_"  style="overflow:visible;"/>
	</clipPath>
	<g class="st14">
		<defs>
			<rect id="SVGID_31_" x="-365.9" y="-658.7" width="1440" height="3190"/>
		</defs>
		<clipPath id="SVGID_32_">
			<use xlink:href="#SVGID_31_"  style="overflow:visible;"/>
		</clipPath>
		<g class="st15">
			<g>
				<defs>
					<rect id="SVGID_33_" x="496.1" y="-0.7" width="218" height="65"/>
				</defs>
				<clipPath id="SVGID_34_">
					<use xlink:href="#SVGID_33_"  style="overflow:visible;"/>
				</clipPath>
				<g class="st16">
					<defs>
						<rect id="SVGID_35_" x="496.4" y="1.5" width="5.7" height="60.9"/>
					</defs>
					<clipPath id="SVGID_36_">
						<use xlink:href="#SVGID_35_"  style="overflow:visible;"/>
					</clipPath>
					<g class="st17">
						<defs>
							<rect id="SVGID_37_" x="-0.9" y="-0.7" width="715" height="65"/>
						</defs>
						<clipPath id="SVGID_38_">
							<use xlink:href="#SVGID_37_"  style="overflow:visible;"/>
						</clipPath>
						<rect x="491.4" y="-3.5" class="st18" width="15.7" height="70.9"/>
					</g>
				</g>
				<g class="st16">
					<defs>
						<polygon id="SVGID_39_" points="529.2,1.5 535.4,1.5 555.1,55 575,1.5 581,1.5 557.8,62.5 552.1,62.5 						"/>
					</defs>
					<clipPath id="SVGID_40_">
						<use xlink:href="#SVGID_39_"  style="overflow:visible;"/>
					</clipPath>
					<g class="st19">
						<defs>
							<rect id="SVGID_41_" x="-0.9" y="-0.7" width="715" height="65"/>
						</defs>
						<clipPath id="SVGID_42_">
							<use xlink:href="#SVGID_41_"  style="overflow:visible;"/>
						</clipPath>
						<rect x="524.2" y="-3.5" class="st20" width="61.8" height="70.9"/>
					</g>
				</g>
				<g class="st16">
					<defs>
						<polygon id="SVGID_43_" points="608.2,1.5 645.6,1.5 645.6,6.7 613.9,6.7 613.9,28.4 643.6,28.4 643.6,33.6 613.9,33.6 
							613.9,57.3 647,57.3 647,62.5 608.2,62.5 						"/>
					</defs>
					<clipPath id="SVGID_44_">
						<use xlink:href="#SVGID_43_"  style="overflow:visible;"/>
					</clipPath>
					<g class="st21">
						<defs>
							<rect id="SVGID_45_" x="-0.9" y="-0.7" width="715" height="65"/>
						</defs>
						<clipPath id="SVGID_46_">
							<use xlink:href="#SVGID_45_"  style="overflow:visible;"/>
						</clipPath>
						<rect x="603.2" y="-3.5" class="st22" width="48.8" height="70.9"/>
					</g>
				</g>
				<g class="st16">
					<defs>
						<path id="SVGID_47_" d="M680.1,51.2c1.5,2.6,3.4,4.5,5.8,5.8c2.4,1.3,5.1,1.9,8.2,1.9c1.9,0,3.7-0.3,5.4-0.9
							c1.7-0.6,3.1-1.4,4.4-2.4c1.2-1,2.2-2.3,2.9-3.7c0.7-1.5,1.1-3.1,1.1-4.9c0-2.1-0.5-3.9-1.3-5.3c-0.9-1.4-2.1-2.5-3.6-3.4
							c-1.5-0.9-3.2-1.6-5.1-2.3c-1.9-0.6-3.8-1.3-5.8-1.9c-2-0.6-3.9-1.3-5.8-2.1c-1.9-0.8-3.6-1.8-5.1-3.1
							c-1.5-1.3-2.7-2.9-3.6-4.9c-0.9-1.9-1.3-4.4-1.3-7.2c0-2.7,0.5-5.1,1.6-7.2c1.1-2.1,2.5-3.8,4.3-5.2c1.8-1.4,3.9-2.5,6.3-3.2
							c2.4-0.7,4.8-1.1,7.4-1.1c3.3,0,6.4,0.6,9.3,1.8c2.9,1.2,5.3,3.1,7.4,5.9l-4.9,3.5c-1.4-2-3.1-3.5-5.1-4.5
							c-1.9-1-4.2-1.5-6.9-1.5c-1.9,0-3.6,0.2-5.3,0.7c-1.7,0.5-3.1,1.2-4.4,2.1c-1.2,0.9-2.2,2.1-3,3.6c-0.7,1.4-1.1,3.1-1.1,5.1
							c0,3,0.8,5.4,2.3,7c1.6,1.6,3.5,2.9,5.8,3.9c2.3,0.9,4.9,1.8,7.6,2.5c2.7,0.7,5.3,1.7,7.6,2.9c2.3,1.2,4.3,2.9,5.8,5
							c1.6,2.2,2.3,5.1,2.3,8.9c0,2.8-0.5,5.2-1.6,7.3c-1,2.1-2.4,3.9-4.2,5.4c-1.8,1.5-3.8,2.6-6.1,3.3c-2.3,0.7-4.7,1.1-7.2,1.1
							c-4,0-7.8-0.7-11.2-2.1c-3.4-1.4-6.3-3.8-8.7-7.1L680.1,51.2z"/>
					</defs>
					<clipPath id="SVGID_48_">
						<use xlink:href="#SVGID_47_"  style="overflow:visible;"/>
					</clipPath>
					<g class="st23">
						<defs>
							<rect id="SVGID_49_" x="-0.9" y="-0.7" width="715" height="65"/>
						</defs>
						<clipPath id="SVGID_50_">
							<use xlink:href="#SVGID_49_"  style="overflow:visible;"/>
						</clipPath>
						<rect x="669.7" y="-5" class="st24" width="48.9" height="74"/>
					</g>
				</g>
			</g>
		</g>
	</g>
</g>
</svg>
