<?xml version="1.0" encoding="utf-8"?>
<!-- Generator: Adobe Illustrator 21.0.0, SVG Export Plug-In . SVG Version: 6.00 Build 0)  -->
<svg version="1.1" id="Layer_1" xmlns="http://www.w3.org/2000/svg" xmlns:xlink="http://www.w3.org/1999/xlink" x="0px" y="0px"
	 viewBox="0 0 216.8 315" style="enable-background:new 0 0 216.8 315;" xml:space="preserve">
<style type="text/css">
	.st0{clip-path:url(#SVGID_2_);}
	.st1{clip-path:url(#SVGID_4_);fill:#FEFEFE;}
	.st2{fill-rule:evenodd;clip-rule:evenodd;fill:#FEFEFE;}
	.st3{fill-rule:evenodd;clip-rule:evenodd;fill:#FFFFFF;}
</style>
<g>
	<defs>
		<path id="SVGID_1_" d="M13.3,184.9V66.8l94.3-51.5L202,66.8v118.1l-94.3,51.5L13.3,184.9z M107.7,0L0,58.8v134l107.7,58.8
			l107.7-58.8v-134L107.7,0z"/>
	</defs>
	<clipPath id="SVGID_2_">
		<use xlink:href="#SVGID_1_"  style="overflow:visible;"/>
	</clipPath>
	<g class="st0">
		<defs>
			<rect id="SVGID_3_" x="-614.2" y="-321" width="1440" height="2636"/>
		</defs>
		<clipPath id="SVGID_4_">
			<use xlink:href="#SVGID_3_"  style="overflow:visible;"/>
		</clipPath>
		<rect x="-5" y="-5" class="st1" width="225.4" height="261.6"/>
	</g>
</g>
<polygon class="st2" points="147.5,116.9 147.5,143 113.4,143 113.4,129.4 102.1,135.6 102.1,182.8 113.4,182.8 113.4,152.5 
	147.5,152.5 147.5,182.8 158.8,182.8 158.8,116.9 "/>
<polygon class="st2" points="102,122.2 113.3,116 113.3,116.6 113.3,68.9 102,68.9 102,95 67.9,95 67.9,68.9 56.6,68.9 56.6,134.8 
	67.9,134.8 67.9,104.5 102,104.5 "/>
<rect x="0.8" y="311" class="st3" width="216" height="4"/>
</svg>
