<?xml version="1.0" encoding="utf-8"?>
<!-- Generator: Adobe Illustrator 19.0.0, SVG Export Plug-In . SVG Version: 6.00 Build 0)  -->
<svg version="1.1" id="Layer_1" xmlns="http://www.w3.org/2000/svg" xmlns:xlink="http://www.w3.org/1999/xlink" x="0px" y="0px"
	 viewBox="-633.2 479.5 36.8 43" style="enable-background:new -633.2 479.5 36.8 43;" xml:space="preserve">
<style type="text/css">
	.st0{fill:#F3B91E;}
	.st1{fill:#FFFFFF;}
</style>
<g>
	<path class="st0" d="M-614.8,480.4l-17.6,9.6v22l17.6,9.6l17.6-9.6v-22L-614.8,480.4L-614.8,480.4z"/>
	<g id="l-wing_2_">
		<path id="l-wing-out_2_" class="st1" d="M-619.6,500.1c-1.8,0-7,1.3-7,5.3c0,2.1,1.7,3.8,3.8,3.8s3.8-1.7,3.8-3.8
			c0-1.8,0-4.7,0-4.7C-618.9,500.4-619.2,500.1-619.6,500.1z M-622.7,508c-1.4,0-2.6-1.1-2.6-2.6c0-2.5,3.2-3.8,5.1-4c0,1,0,2.8,0,4
			C-620.2,506.8-621.3,508-622.7,508z"/>
	</g>
	<path id="r-wing-out_2_" class="st1" d="M-610,500.1c-0.3,0-0.6,0.3-0.6,0.6c0,0,0,3,0,4.7c0,2.1,1.7,3.8,3.8,3.8
		c2.1,0,3.8-1.7,3.8-3.8C-603,501.4-608.2,500.1-610,500.1z M-606.9,508c-1.4,0-2.6-1.1-2.6-2.6c0-1.2,0-3,0-4
		c1.9,0.2,5.1,1.5,5.1,4C-604.3,506.8-605.5,508-606.9,508z"/>
	<g id="body_2_">
		<path id="outline_2_" class="st1" d="M-609.4,498c-0.1-2.1-1.3-3.9-3.1-4.8v-2.2c0-0.5,0.4-0.9,0.9-0.9c0.5,0,0.9,0.4,0.9,0.9
			c0,0.3,0.3,0.6,0.6,0.6s0.6-0.3,0.6-0.6c0-1.2-1-2.2-2.2-2.2c-1.2,0-2.2,1-2.2,2.2v1.8c-0.3-0.1-0.6-0.1-1-0.1s-0.7,0-1,0.1v-1.8
			c0-1.2-1-2.2-2.2-2.2c-1.2,0-2.2,1-2.2,2.2c0,0.3,0.3,0.6,0.6,0.6c0.3,0,0.6-0.3,0.6-0.6c0-0.5,0.4-0.9,0.9-0.9
			c0.5,0,0.9,0.4,0.9,0.9v2.2c-1.8,0.8-3.1,2.6-3.1,4.8c0,0,0,0,0,0.1c0,0,0,0,0,0v0v4.2c0,0,0,0.1,0,0.1s0,0.1,0,0.1v2.8
			c0,0,0,0.1,0,0.1c0,0,0,0.1,0,0.1v0.7c0,0.8,0.2,1.7,0.6,2.4c0,0.1,0,0.1,0.1,0.1c0.8,1.5,2.3,2.6,4.1,2.8v0.9
			c0,0.3,0.3,0.6,0.6,0.6c0.4,0,0.6-0.3,0.6-0.6v-0.9c2.7-0.3,4.8-2.6,4.8-5.3v-8v0c0,0,0,0,0,0C-609.4,498.1-609.4,498-609.4,498z
			 M-612.5,494.7c1.1,0.7,1.9,2,1.9,3.4c0,0.5-0.4,0.9-0.9,0.9c-0.5,0-0.9-0.4-0.9-0.9L-612.5,494.7L-612.5,494.7L-612.5,494.7z
			 M-617.1,494.7v3.4c0,0.5-0.4,0.9-0.9,0.9c-0.5,0-0.9-0.4-0.9-0.9C-618.9,496.7-618.2,495.4-617.1,494.7z M-610.7,506.2
			c0,0.5-0.1,1-0.3,1.6h-7.6c-0.2-0.5-0.3-1-0.3-1.6V506h8.2V506.2z M-610.7,501.8h-8.2v-1.7c0.3,0.1,0.6,0.2,0.9,0.2
			c1.2,0,2.2-1,2.2-2.2v-4c0.3-0.1,0.6-0.1,1-0.1s0.7,0,1,0.1v3.9c0,1.2,1,2.2,2.2,2.2c0.3,0,0.6-0.1,0.9-0.2V501.8z"/>
	</g>
</g>
</svg>
