<?xml version="1.0" encoding="utf-8"?>
<!-- Generator: Adobe Illustrator 21.0.0, SVG Export Plug-In . SVG Version: 6.00 Build 0)  -->
<svg version="1.1" id="Layer_1" xmlns="http://www.w3.org/2000/svg" xmlns:xlink="http://www.w3.org/1999/xlink" x="0px" y="0px"
	 viewBox="0 0 65.8 67.9" style="enable-background:new 0 0 65.8 67.9;" xml:space="preserve">
<style type="text/css">
	.st0{clip-path:url(#SVGID_2_);}
	.st1{clip-path:url(#SVGID_4_);enable-background:new    ;}
	.st2{clip-path:url(#SVGID_6_);}
	.st3{clip-path:url(#SVGID_8_);}
	.st4{clip-path:url(#SVGID_10_);fill:#FFFFFF;}
	.st5{clip-path:url(#SVGID_12_);}
	.st6{clip-path:url(#SVGID_14_);fill:#FFFFFF;}
</style>
<g>
	<g>
		<defs>
			<polygon id="SVGID_1_" points="32.9,58.4 8.6,58.4 8.6,9.5 32.9,9.5 57.1,9.5 57.1,58.4 			"/>
		</defs>
		<clipPath id="SVGID_2_">
			<use xlink:href="#SVGID_1_"  style="overflow:visible;"/>
		</clipPath>
		<g class="st0">
			<defs>
				<rect id="SVGID_3_" x="-603.4" y="-851.4" width="1440" height="2840"/>
			</defs>
			<clipPath id="SVGID_4_">
				<use xlink:href="#SVGID_3_"  style="overflow:visible;"/>
			</clipPath>
			<g class="st1">
				<g>
					<defs>
						<rect id="SVGID_5_" x="8.6" y="8.6" width="49" height="50"/>
					</defs>
					<clipPath id="SVGID_6_">
						<use xlink:href="#SVGID_5_"  style="overflow:visible;"/>
					</clipPath>
					<g class="st2">
						<defs>
							<path id="SVGID_7_" d="M48.8,9.5H17c-4.6,0-8.4,3.8-8.4,8.4v32c0,4.7,3.8,8.4,8.4,8.4h31.8c4.6,0,8.4-3.8,8.4-8.4v-32
								C57.1,13.3,53.4,9.5,48.8,9.5z M55.9,50c0,3.9-3.2,7.1-7.1,7.1H17c-3.9,0-7.1-3.2-7.1-7.1v-32c0-3.9,3.2-7.1,7.1-7.1h31.8
								c3.9,0,7.1,3.2,7.1,7.1V50z"/>
						</defs>
						<clipPath id="SVGID_8_">
							<use xlink:href="#SVGID_7_"  style="overflow:visible;"/>
						</clipPath>
						<g class="st3">
							<defs>
								<rect id="SVGID_9_" x="8.6" y="8.6" width="49" height="50"/>
							</defs>
							<clipPath id="SVGID_10_">
								<use xlink:href="#SVGID_9_"  style="overflow:visible;"/>
							</clipPath>
							<rect x="3.6" y="4.5" class="st4" width="58.5" height="58.9"/>
						</g>
					</g>
				</g>
			</g>
		</g>
	</g>
	<g>
		<defs>
			<path id="SVGID_11_" d="M47.3,25.6c-1.1,0.5-2.2,0.8-3.4,0.9c1.2-0.7,2.2-1.9,2.6-3.3c-1.1,0.7-2.4,1.2-3.8,1.4
				c-1.1-1.2-2.6-1.9-4.3-1.9c-3.3,0-5.9,2.7-5.9,6c0,0.5,0.1,0.9,0.2,1.4c-4.9-0.2-9.3-2.6-12.2-6.2c-0.5,0.9-0.8,1.9-0.8,3
				c0,2.1,1,3.9,2.6,5c-1,0-1.9-0.3-2.7-0.7c0,0,0,0.1,0,0.1c0,2.9,2,5.3,4.7,5.8c-0.5,0.1-1,0.2-1.6,0.2c-0.4,0-0.8,0-1.1-0.1
				c0.8,2.4,2.9,4.1,5.5,4.1c-2,1.6-4.6,2.5-7.3,2.5c-0.5,0-0.9,0-1.4-0.1c2.6,1.7,5.7,2.7,9.1,2.7c10.9,0,16.8-9.1,16.8-16.9
				c0-0.3,0-0.5,0-0.8C45.5,27.9,46.5,26.8,47.3,25.6"/>
		</defs>
		<clipPath id="SVGID_12_">
			<use xlink:href="#SVGID_11_"  style="overflow:visible;"/>
		</clipPath>
		<g class="st5">
			<defs>
				<rect id="SVGID_13_" x="-603.4" y="-851.4" width="1440" height="2840"/>
			</defs>
			<clipPath id="SVGID_14_">
				<use xlink:href="#SVGID_13_"  style="overflow:visible;"/>
			</clipPath>
			<rect x="13.5" y="17.9" class="st6" width="38.8" height="33.6"/>
		</g>
	</g>
</g>
</svg>
